<svg xmlns="http://www.w3.org/2000/svg" viewBox="0 0 183.38 196.54"><g id="isis_tbm" data-name="isis tbm"><path d="M106.46,38.34a15.86,15.86,0,0,0-2.73,2.94c-.86,1.17-1.26,2.85-.06,4a3.54,3.54,0,0,0,1.52.74l.56.16c.28.07-.3-.16-.07,0s-.24-.23-.29-.32a1.13,1.13,0,0,1,0-.92c.09-.1.08-.09,0,0l-.14.16c-.21.23-.42.45-.65.66s-.21.19-.32.28c-.34.3.22-.15-.14.12s-.55.37-.84.54a1.52,1.52,0,0,0-.54,2,1.54,1.54,0,0,0,2.06.54,9.44,9.44,0,0,0,3.11-2.75,2.13,2.13,0,0,0,.07-2.29,2.59,2.59,0,0,0-1.55-1l-.54-.14c-.06,0-.38-.17-.16,0l-.13-.08c.17.15.22.18.14.1s-.06,0,.19.34c-.13-.29.08.17,0,.24a2.1,2.1,0,0,1,.06-.24c-.07.15-.08.17,0,.07s.14-.26.22-.38a8.05,8.05,0,0,1,1-1.29,14.68,14.68,0,0,1,1.41-1.32,1.51,1.51,0,0,0,0-2.12,1.53,1.53,0,0,0-2.12,0Z" transform="translate(-8.34 -0.46)"/><path d="M160,38.37l-4.21,4.71a1.52,1.52,0,0,0-.38,1.46,2.64,2.64,0,0,0,2,1.77,6.9,6.9,0,0,0,1.19.14.89.89,0,0,0,.23,0c-.11,0-.25-.05-.06,0l.23.06c.28,0-.16,0,0,0s.17.17.07,0a1.29,1.29,0,0,1-.22-.3c-.11-.29,0-.43.07-.69s-.09,0,0,0-.07,0-.1.05l-.55.31-2.56,1.39a1.5,1.5,0,1,0,1.51,2.59l2.88-1.56c1.05-.58,2-1.61,1.62-2.91a2.77,2.77,0,0,0-2.28-1.86c-.43-.08-.87-.08-1.3-.13.47.06,0,0,0,0l-.11,0c-.11,0-.07,0,.11.06,0,0-.18-.07-.18-.1a.51.51,0,0,1,.21.17.56.56,0,0,1,.13.24l-.39,1.46,4.22-4.71A1.5,1.5,0,0,0,160,38.37Z" transform="translate(-8.34 -0.46)"/><path d="M23.66,14.77a27.76,27.76,0,0,0,3,13.6c2.13,4.09,7.16,5.58,11.4,6.39s9.49,1.1,13.8-.26c4.87-1.54,5.53-6.6,6.05-11a57.1,57.1,0,0,0-.6-16.71,3,3,0,0,0-3.69-2.1,3.07,3.07,0,0,0-2.1,3.69,51.79,51.79,0,0,1,.39,15.12c-.18,1.5-.46,4.18-1.22,4.93-.29.29-.09.21-.63.34s-1.12.25-1.69.34a22.15,22.15,0,0,1-2.93.26A26.17,26.17,0,0,1,39,28.85a17.38,17.38,0,0,1-6.13-2.15c-1.42-1-2-3.58-2.48-5.2a22.49,22.49,0,0,1-.75-6.73c.12-3.86-5.88-3.86-6,0Z" transform="translate(-8.34 -0.46)"/><path d="M41.63,31.92a37.88,37.88,0,0,0,4.15-20.74,3.06,3.06,0,0,0-3-3c-1.5.07-3.15,1.33-3,3a31.85,31.85,0,0,1-3.33,17.71,3,3,0,0,0,5.18,3Z" transform="translate(-8.34 -0.46)"/><path d="M26.94,28.19c-.12.21-.24.43-.37.64s-.51.74-.33.5-.24.27-.31.36l-.6.62-.65.57c-.25.22.09-.07.12-.1l-.3.22a12.9,12.9,0,0,1-1.49.87l-.33.16.15-.06-.7.25c-.55.18-1.11.28-1.67.42-.34.09.15,0,.19,0l-.37,0a6.12,6.12,0,0,1-.74,0,8.26,8.26,0,0,1-.86,0l-.37,0c-.43,0,.5.09.07,0a11.3,11.3,0,0,1-1.6-.39c-.18-.06-.72-.32-.28-.09-.28-.15-.56-.28-.83-.45-.07,0-.54-.35-.25-.14s-.08-.07-.11-.1c-.19-.18-.38-.37-.56-.57.33.36,0-.11-.14-.27s-.21-.44-.08-.14-.1-.34-.12-.41c-.17-.51,0,.28-.06-.27,0-.27,0-.54,0-.82,0,.56.1-.19.13-.39s0,0-.05.08a4,4,0,0,1,.24-.46c.12-.2.47-.57.13-.23l.54-.55c.38-.38.1-.11,0,0l.32-.23a7.83,7.83,0,0,1,.79-.47l.35-.18c.12-.06.68-.24.14-.06.29-.1.58-.21.88-.3a21,21,0,0,1,2.35-.54c1.66-.29,3.33-.49,5-.92A3,3,0,1,0,23.55,19c-3.41.9-6.94.92-10.12,2.61s-5.46,5-5,8.67c.86,7.44,9.58,9.92,15.8,7.59a14.76,14.76,0,0,0,7.93-6.63,3,3,0,1,0-5.18-3Z" transform="translate(-8.34 -0.46)"/><path d="M65.7,4.86l.54,14c.16,4.2.54,8.5-.62,12.6-1.06,3.72,4.73,5.31,5.78,1.59,1.27-4.46,1-9.1.86-13.69L71.7,4.86a3,3,0,1,0-6,0Z" transform="translate(-8.34 -0.46)"/><path d="M78.08,34.51l11.69.33c2,.06,4,.14,5.91-.78a8.37,8.37,0,0,0,3.55-3.59c1.78-3.38,1.64-7.25,1.65-11l.05-12c0-3.86-6-3.87-6,0l0,10.28c0,2.93.45,6.42-.66,9.2a2.93,2.93,0,0,1-1.39,1.73c-1.23.41-3,.07-4.27,0l-10.49-.29c-3.86-.11-3.86,5.89,0,6Z" transform="translate(-8.34 -0.46)"/><path d="M82.69,9.37q-.28,9.63-1.48,19.2a3,3,0,0,0,3,3,3.08,3.08,0,0,0,3-3q1.2-9.57,1.48-19.2a3,3,0,0,0-6,0Z" transform="translate(-8.34 -0.46)"/><path d="M104.53,5.16V30.7c0,3.86,6,3.86,6,0V5.16c0-3.86-6-3.87-6,0Z" transform="translate(-8.34 -0.46)"/><path d="M131.49,18a103.85,103.85,0,0,0,2.24,11.74c1.15,3.84,3.52,7.27,7.39,8.71a8.88,8.88,0,0,0,9.86-3c2.71-3.34,3.08-7.59,2.91-11.75-.2-4.77-.68-9.53-.35-14.31a3,3,0,0,0-3-3,3.07,3.07,0,0,0-3,3,114.32,114.32,0,0,0,.32,13.6A21.28,21.28,0,0,1,147.6,29a5.7,5.7,0,0,1-2.06,3.37,2.59,2.59,0,0,1-3.11.06A6.47,6.47,0,0,1,139.78,29a37.94,37.94,0,0,1-1.36-6.06l-1.15-6.51a3,3,0,0,0-3.69-2.09A3.06,3.06,0,0,0,131.49,18Z" transform="translate(-8.34 -0.46)"/><path d="M135,19.14a12.22,12.22,0,0,0-17.69,5.2c-1.44,3.19-1.7,7.21.39,10.22,2.29,3.31,6.23,4.09,10,3.79,4.31-.34,8.85-2.26,10.07-6.83A3,3,0,0,0,132,29.93c0,.05-.11.43-.13.43s.27-.51.09-.2c0,0-.33.69-.4.68s.39-.41.05-.08c-.11.1-.21.22-.32.33s-.18.14-.26.22c-.27.28.57-.35,0,0-.23.14-.45.28-.69.4l-.36.17c.49-.21,0,0-.05,0l-.93.26-.54.11c-.06,0-.63.09-.29,0s-.21,0-.3,0l-.41,0c-.35,0-.71,0-1.06.05s-.59,0-.89,0l-.38,0c-.08,0-.78-.1-.35,0l-.1,0-.48-.12-.48-.14c-.06,0-.42-.18-.1,0s-.11-.07-.19-.12l-.32-.19c.09.05.42.39,0,0l-.32-.32c-.42-.41,0,.07.05.09a1.66,1.66,0,0,1-.25-.38,2.09,2.09,0,0,0-.16-.29c-.23-.34.16.49,0,.1s-.17-.5-.23-.76c0-.11,0-.23-.07-.34-.1-.34,0,.58,0,0,0-.27,0-.54,0-.81s0-.31,0-.46c0-.36,0,.22,0,.23s.41-1.6.46-1.76.19-.4,0-.06,0-.07.09-.16.25-.47.39-.69.51-.77.29-.45,0,0,0-.05l.38-.43c.19-.19.38-.38.57-.55l.35-.3s-.43.3-.15.13.43-.3.66-.44l.4-.22c.07,0,.66-.32.27-.14s0,0,.09,0a5.62,5.62,0,0,1,.58-.19c.32-.09.64-.15,1-.22s-.51,0-.07,0l.62,0c.33,0,.65,0,1,0,.15,0,.58.09-.06,0l.48.09a8,8,0,0,1,1,.25l.46.16c-.39-.13-.2-.1.08,0s.65.35,1,.55a3,3,0,0,0,4.1-1.08,3.06,3.06,0,0,0-1.07-4.1Z" transform="translate(-8.34 -0.46)"/><path d="M158.24,3.35l-.55,28.55c-.08,3.86,5.92,3.86,6,0l.55-28.55c.08-3.86-5.92-3.86-6,0Z" transform="translate(-8.34 -0.46)"/><path d="M170.69,35.05a65.23,65.23,0,0,0,11.22,1.34c1.88,0,3.88.16,5.6-.73a7,7,0,0,0,3.19-4.07,20.23,20.23,0,0,0,.73-4.9c.14-1.89.23-3.79.27-5.69.08-3.88,0-7.76-.12-11.64s-6.1-3.87-6,0c.08,3.33.17,6.65.14,10a75,75,0,0,1-.46,9.26,12.19,12.19,0,0,1-.35,1.39c0,.12-.12.35-.21.38.33-.13-.13,0-.23,0h-.73c-.76,0-1.52,0-2.28,0a55.48,55.48,0,0,1-9.17-1.11,3.08,3.08,0,0,0-3.69,2.1,3,3,0,0,0,2.09,3.69Z" transform="translate(-8.34 -0.46)"/><path d="M173.4,9.67c-.15,4-.37,8-.43,12a23.21,23.21,0,0,0,2.09,11.09,3,3,0,0,0,4.1,1.08,3.07,3.07,0,0,0,1.08-4.11c-1.33-2.62-1.34-5.7-1.26-8.8.1-3.75.28-7.5.42-11.25a3,3,0,1,0-6,0Z" transform="translate(-8.34 -0.46)"/></g><g id="isis"><path d="M94.5,135.79l-.34,0c-.11,0-.31,0-.42,0h-.08l-.09,0a5,5,0,0,1-.51-.16,2,2,0,0,0-.27-.13c-.11-.07-.27-.15-.42-.25l-.22-.12-.3-.26c-.16-.15-.32-.3-.47-.46l-.19-.23c-.07-.09-.23-.27-.29-.37s-.19-.31-.28-.47-.12-.28-.17-.4l-.19-.66v-.07a1.41,1.41,0,0,0,0-.34l0-.09,0-.06.19-.21.48-.28.08,0a1.52,1.52,0,0,0,.41-.18l.29-.08a2.78,2.78,0,0,1,.4,0h.11l.18.06c.09,0,.19.11.3.17a2.8,2.8,0,0,0,.33.23c.18.16.39.39.59.61l.09.13c.08.1.21.26.27.35s.3.5.43.76l.13.26c.07.2.16.45.24.71s.09.36.13.54a3.59,3.59,0,0,0-.36.7Z" transform="translate(-8.34 -0.46)"/><path d="M91.85,131.33l.28,0h.07l.09,0,.21.12.28.19c.19.18.37.37.54.56l.09.12.23.3c.15.23.29.48.42.72l.06.14,0,.07c.09.22.17.45.24.68s0,.21.08.31a3.89,3.89,0,0,0-.3.62v0c-.1,0-.26,0-.35,0h-.12l-.4-.13L93,135c-.14-.07-.27-.15-.4-.23l-.18-.1h0l-.12-.11-.14-.11c-.16-.16-.33-.32-.49-.49l0,0a.47.47,0,0,0-.09-.12c-.06-.08-.19-.23-.25-.32s-.18-.29-.26-.44a3,3,0,0,1-.13-.3c-.05-.19-.11-.38-.16-.56a1.85,1.85,0,0,0,0-.25l.07-.08c.13-.08.26-.16.4-.23l0,0a1.4,1.4,0,0,0,.44-.19l.14,0m.07-1h0l.42.09s-.34,0-.54,0h-.06a3.6,3.6,0,0,0-.44.12,1,1,0,0,1-.28.14l0,0-.28.14a5.21,5.21,0,0,0-.56.34l-.09.07a2.07,2.07,0,0,1-.18.2l-.12.23a.88.88,0,0,0,0,.15v0a2,2,0,0,1,0,.38.81.81,0,0,0,0,.16c.07.26.15.51.23.77a4,4,0,0,0,.19.46c.1.17.19.34.3.5a5,5,0,0,0,.36.46l-.31-.35c.15.17.28.34.43.5s.36.37.56.55a3,3,0,0,0,.27.23.43.43,0,0,0,.07.07l.25.14.49.28.29.14a4.3,4.3,0,0,0,.55.17l.17,0h0s.38.06.56.06a2.85,2.85,0,0,1,.67.1l.29-.78a3,3,0,0,1,.42-.76.81.81,0,0,1,0-.16s0,.07,0,.16h0v0q-.07-.37-.18-.75c-.08-.28-.18-.54-.27-.8,0-.09-.09-.18-.13-.27-.14-.27-.3-.54-.46-.8s-.39-.51-.38-.51l.09.1a9.27,9.27,0,0,0-.82-.84,1.88,1.88,0,0,1-.29-.2l-.41-.23-.23-.08a5,5,0,0,0-.53-.11Z" transform="translate(-8.34 -0.46)"/><path d="M138.81,166.1h-.26l-.53-.15a5.58,5.58,0,0,1-.61-.34l-.09-.06-.38-.36a2.59,2.59,0,0,0-1.8-.71h-.24a6,6,0,0,1-.16-.68,5.74,5.74,0,0,1,0-.83,3.77,3.77,0,0,1,.15-.5,2.88,2.88,0,0,1,.17-.31l.07-.08.12-.11.21-.1.25-.06h.42l.44.14a5.91,5.91,0,0,1,.85.47l.13.11.15.12h0l.52.49q.3.32.57.63l.24.28a5.78,5.78,0,0,1,.53.93c0,.08.06.21.09.34s0,.18,0,.31h0a.46.46,0,0,0,0,.14.92.92,0,0,1-.14.14l-.16.08-.39.09Z" transform="translate(-8.34 -0.46)"/><path d="M135.87,162.31H136l.34.09a6.08,6.08,0,0,1,.77.43.29.29,0,0,1,.08.07l.22.17a6.31,6.31,0,0,1,.47.44c.19.19.37.39.55.6l.14.17.07.07a5.71,5.71,0,0,1,.45.8.83.83,0,0,1,.06.21.38.38,0,0,1,0,.15h0l-.27.08h-.25a3.25,3.25,0,0,1-.42-.11,4.68,4.68,0,0,1-.54-.3l-.05,0a3.61,3.61,0,0,1-.35-.33,3.06,3.06,0,0,0-2-.85c0-.07,0-.14,0-.21a4,4,0,0,1,0-.69c0-.13.06-.26.1-.39h0a1.24,1.24,0,0,1,.1-.2l0,0s0,0,0,0l.05,0,0,0,.14,0h.13m0-1h-.27l-.38.1c-.09.06-.19.1-.29.16l-.16.15-.12.14h0a4.23,4.23,0,0,0-.22.42,4.91,4.91,0,0,0-.17.63,5.13,5.13,0,0,0,0,1,6.86,6.86,0,0,0,.31,1.16,2.25,2.25,0,0,1,.58-.08,2,2,0,0,1,1.44.57c.14.13.29.27.44.39l0,0,.06,0a5.18,5.18,0,0,0,.73.4c.21.07.43.13.65.18H139a3.18,3.18,0,0,0,.53-.14l.25-.13.14-.13.06-.06a1.62,1.62,0,0,1,.1-.18c0-.09.05-.19.07-.28a3.23,3.23,0,0,0,0-.44c0-.15-.08-.3-.13-.44a6.06,6.06,0,0,0-.6-1l-.24-.28c-.19-.22-.39-.44-.59-.65s-.42-.4-.64-.59l-.25-.2.16.14.07.06-.07-.06-.18-.14a6.52,6.52,0,0,0-1-.54,5.12,5.12,0,0,0-.56-.15l-.3,0Z" transform="translate(-8.34 -0.46)"/><path d="M108.92,196.5a65.27,65.27,0,1,1,65.26-65.26A65.34,65.34,0,0,1,108.92,196.5ZM82.39,175.88a2.94,2.94,0,0,0-1.61.45,3.29,3.29,0,0,0-1.16,4.41,9.82,9.82,0,0,0,8.6,5.25h.2A12.15,12.15,0,0,0,97,182.27a10.53,10.53,0,0,0,2-3.2q.51,0,1,.06a9.85,9.85,0,0,1,1.94.54c.28.13.6.28.9.45a3,3,0,0,0,1.57.42,3.57,3.57,0,0,0,1.37-.28,3.33,3.33,0,0,0,.4.16,9.89,9.89,0,0,0,8.47,4.23,11.93,11.93,0,0,0,2.61-.29,8.27,8.27,0,0,0,4.91-3.32c.67.34,1.36.66,2.06,1a30.62,30.62,0,0,0,8.21,2.49,9.64,9.64,0,0,0,1.19.08,6.24,6.24,0,0,0,5.88-3.27c1.24-2.46.66-5.18-1.77-8.33-.47-.61-1-1.19-1.52-1.83a4.72,4.72,0,0,0,.55-.36,7.07,7.07,0,0,0,2.06.32,6,6,0,0,0,2.38-.48,5.56,5.56,0,0,0,2.82-2.52,5.88,5.88,0,0,0,.4-4.28,9.62,9.62,0,0,0-2.54-4,10,10,0,0,0-4.09-2.67,6.14,6.14,0,0,0-7.16,2.62,7.54,7.54,0,0,0-.71,5.71l-.65.2a3.32,3.32,0,0,0-2.09,1.9,3.38,3.38,0,0,0,.16,2.84,20,20,0,0,0,3.26,4.24c.35.38.7.76,1,1.14s.64.74.95,1.12l.13.17.09.11c.15.21.29.42.42.64l.17.28-.41,0a1.6,1.6,0,0,0-.37-.06h0l-.46-.1c-.54-.12-1.07-.26-1.6-.42-1.14-.35-2.23-.77-3.15-1.14l-.46-.2-.77-.35c-.52-.24-1-.49-1.54-.76l-.83-.47c0-.42-.07-.81-.13-1.19a10.91,10.91,0,0,0-3.17-6.16,8.49,8.49,0,0,0-5.23-2.22,8.4,8.4,0,0,0-2.2-.29,8,8,0,0,0-2,.24,8.4,8.4,0,0,0-4.82,3.58,10.17,10.17,0,0,0-1.73,5.21,13.09,13.09,0,0,0-3-.9c-.64-.1-1.27-.18-1.87-.22,0-.3-.1-.61-.17-.92A14.3,14.3,0,0,0,93.32,163,17.57,17.57,0,0,0,83.67,160a16.61,16.61,0,0,0-1.74.09,3.31,3.31,0,0,0-3.19,3.27,3.34,3.34,0,0,0,3,3.24l.28,0c.53-.05,1.06-.08,1.56-.08H84l.73.05.34,0,.5.1a14.32,14.32,0,0,1,1.68.44l.68.25.27.12.51.25a15.45,15.45,0,0,1,1.63,1l.31.26c.24.2.46.41.68.63l.44.48.19.22.21.31q.26.38.48.78l.17.32.08.18a10.69,10.69,0,0,1,.46,1.6l0,.19v.21a9.28,9.28,0,0,1,0,1.18s0,.44,0,.54c-.06.25-.11.53-.2.82l-.06.18-.1.19c-.09.16-.17.31-.27.46s-.16.21-.19.27l-.07.06a4.75,4.75,0,0,1-.38.4l-.17.16a.83.83,0,0,0-.34.22l-.16.12-.26.18a4.13,4.13,0,0,1-.42.22l-.08,0a.9.9,0,0,0-.46.18,4.85,4.85,0,0,1-.55.17l-.42.1H89.1a1.17,1.17,0,0,0-.29,0h0l-.4,0h0v-.05h-.7l-.32-.08-.38-.11-.52-.29a.81.81,0,0,0-.35-.27h0c-.09-.08-.18-.18-.27-.27l-.24-.28c-.11-.2-.24-.45-.29-.57A3.24,3.24,0,0,0,82.39,175.88ZM153.63,121a3.36,3.36,0,0,0-2.37.94,3,3,0,0,0-.86,2.22c0,2.48.25,5,.48,7.38s.46,4.86.48,7.29a21.28,21.28,0,0,1-.81,6.79,6.94,6.94,0,0,1-3.06,4.13,3.06,3.06,0,0,0-1.42,3.56,3.3,3.3,0,0,0,3.07,2.53,3.16,3.16,0,0,0,1.64-.49c8.4-5,7.43-15.23,6.59-24.21-.24-2.5-.46-4.85-.48-7A3.13,3.13,0,0,0,153.63,121Zm-62,20.88c-1.66,2.51-3.49,3.76-5.57,3.82a3.18,3.18,0,0,0-3.14,3.37A3,3,0,0,0,86,152.18h.1c5.55-.14,9.92-3.84,13.32-11.3a42.6,42.6,0,0,0,11.84,3.36,92.25,92.25,0,0,0,13.35,1.2c.92,0,1.82,0,2.67-.07,4.73-.26,8.19-1.49,10.88-3.87,3.06-2.7,4.66-6.72,6-10.6a2.83,2.83,0,0,0-.29-2.65,3.44,3.44,0,0,0-2.81-1.35,3.25,3.25,0,0,0-3.15,2.21c-1.09,3.08-2.25,6-4.43,7.85-1.46,1.22-4.07,1.9-7.55,2h-1.17c.1-1.28.15-2.66.15-4.41a3.28,3.28,0,0,0-3.17-3.25h-.11a3.3,3.3,0,0,0-3.22,3.24c0,1.22,0,2.64-.13,4.09l-1.21-.12a4,4,0,0,0-1.26-.77l-.18-.07-.59-.3a7.71,7.71,0,0,1-.72-.44l-.15-.1-.13-.1a4,4,0,0,1-.3-.28l-.35-.31-.08-.12-.15-.21-.27-.43c-.07-.12-.19-.32-.28-.5l-.09-.24c-.06-.16-.11-.32-.16-.49s-.18-.62-.25-.94l0-.22c0-.1-.07-.23-.1-.36a1.63,1.63,0,0,0,0-.31l0-.57c-.06-.64-.09-1.32-.1-2.13s0-1.79,0-2.69c0-.62,0-1.23,0-1.85a3.3,3.3,0,0,0-1-2.32,3,3,0,0,0-2.15-.93h-.13a3.31,3.31,0,0,0-3.22,3.25c0,.61,0,1.23,0,1.85a31.38,31.38,0,0,0,.65,8.52,11.57,11.57,0,0,0,.37,1.14,28.75,28.75,0,0,1-4.83-1.88,11.88,11.88,0,0,0-2-5.73c-1.92-2.89-4.72-4.61-7.49-4.61h-.31a8.41,8.41,0,0,0-7.67,5.54,8.85,8.85,0,0,0,1.64,7.72A11.68,11.68,0,0,0,91.6,141.86ZM58,141.2a3,3,0,0,0-2.18.92,3.5,3.5,0,0,0-.94,2.63,2.72,2.72,0,0,0,1,2c3.44,2.71,7.56,4.33,11,4.33a9.43,9.43,0,0,0,6.62-2.54c2.39-2.23,3-5.34,3.27-7.8a50.15,50.15,0,0,0,0-8.49c-.06-.93-.13-1.87-.2-2.81-.15-1.89-.3-3.85-.31-5.76A3.13,3.13,0,0,0,73,120.53a3.36,3.36,0,0,0-2.38.94,3.1,3.1,0,0,0-.86,2.22c0,2.24.18,4.5.35,6.69.18,2.44.37,5,.33,7.43q0,.88-.06,1.77l-.06.72c0,.07-.07.58-.07.58-.07.38-.14.79-.25,1.19,0,.15-.08.29-.13.43l0,.15c-.1.16-.16.28-.23.4l-.17.31a2.2,2.2,0,0,1-.17.25l-.07.06-.26.25-.2.15-.25.17-.19.1-.43.11-.38.11h-1l-.34,0-.33,0c-.19,0-.46-.09-.73-.16a12.88,12.88,0,0,1-1.82-.59l-.63-.3c-.28-.14-.55-.29-.81-.44s-.6-.36-.89-.55l-.32-.22a5.28,5.28,0,0,0-.47-.34A3.84,3.84,0,0,0,58,141.2Zm70.88-60.78a3.1,3.1,0,0,0-3.25,3.16v31.09a3.25,3.25,0,0,0,6.5,0V83.58A3.11,3.11,0,0,0,128.86,80.42ZM69.32,93.5A10.46,10.46,0,0,0,63,95.64a13.24,13.24,0,0,0-5.34,11,10.86,10.86,0,0,0,5.83,9.25,13.49,13.49,0,0,0,6.07,1.44,13.09,13.09,0,0,0,3.8-.56,11.44,11.44,0,0,0,6.58-5c4.74,3.24,10.47,4,16,4.81l2.26.32a17.42,17.42,0,0,0,2.53.2c11.87,0,12.68-13.86,13.28-24,.07-1.13.13-2.21.21-3.23a3.77,3.77,0,0,0-.93-2.92,4.19,4.19,0,0,0-3.06-1.24,4.42,4.42,0,0,0-4.55,4.09c-.09,1.24-.15,2.48-.21,3.73-.12,2.35-.24,4.79-.59,7.15l-.1.74c-.26,1.87-.62,4.44-1.64,5.86a2.83,2.83,0,0,1-2.47,1.36,11.05,11.05,0,0,1-2.22-.33l-1-.21c-.29-4.67-.33-9.37-.33-13.76a4.08,4.08,0,0,0-4.27-4.14,4.5,4.5,0,0,0-2.92,1,4,4,0,0,0-1.35,3.11c0,3.9,0,8.07.24,12.28a12.68,12.68,0,0,1-4.23-2c-3.62-2.7-5.71-7.26-6.4-13.93a4.56,4.56,0,0,0-4.65-4.06,4,4,0,0,0-3,1.24,3.65,3.65,0,0,0-.85,2.92c.09.89.2,1.79.34,2.68Z" transform="translate(-8.34 -0.46)"/><path d="M108.91,66.47a64.77,64.77,0,1,1-64.76,64.77,64.84,64.84,0,0,1,64.76-64.77m20,51.86a3.59,3.59,0,0,0,3.75-3.66V83.58a3.75,3.75,0,0,0-7.5,0v31.09a3.59,3.59,0,0,0,3.75,3.66m-28.21-10.14a10.84,10.84,0,0,1-2.11-.32l-.66-.13c-.27-4.53-.31-9.09-.31-13.35a4.56,4.56,0,0,0-4.77-4.64,5,5,0,0,0-3.24,1.15A4.46,4.46,0,0,0,88,94.39c0,3.68,0,7.61.21,11.59a11.78,11.78,0,0,1-3.4-1.71c-3.5-2.61-5.53-7.06-6.2-13.58a5,5,0,0,0-5.15-4.51,4.54,4.54,0,0,0-3.4,1.4,4.13,4.13,0,0,0-1,3.31c.07.7.16,1.41.26,2.11h-.05a11,11,0,0,0-6.66,2.24,13.74,13.74,0,0,0-5.54,11.47,11.33,11.33,0,0,0,6.1,9.67,14,14,0,0,0,6.3,1.5,13.66,13.66,0,0,0,3.94-.58,12,12,0,0,0,6.59-4.8c4.74,3.07,10.36,3.85,15.8,4.6l2.26.32a17,17,0,0,0,2.6.2c12.34,0,13.17-14.12,13.78-24.44.07-1.13.13-2.21.21-3.22a4.3,4.3,0,0,0-1.06-3.3,4.67,4.67,0,0,0-3.43-1.4,4.92,4.92,0,0,0-5,4.55c-.09,1.25-.15,2.52-.21,3.75-.12,2.34-.24,4.76-.58,7.1,0,.23-.07.48-.11.74-.25,1.82-.6,4.32-1.55,5.63a2.29,2.29,0,0,1-2.06,1.16m-30.94,32.6a11.14,11.14,0,0,1-.23,1.15l-.12.41,0,.09-.21.37c-.05.1-.1.2-.16.3a1.3,1.3,0,0,1-.1.15l-.09.09-.19.18-.19.13a1.25,1.25,0,0,1-.2.14l-.12.07-.37.1-.34.09h-.85l-.31,0-.26,0c-.25,0-.49-.08-.73-.14a12.62,12.62,0,0,1-1.71-.55l-.44-.21-.2-.1-.78-.42c-.29-.17-.58-.35-.86-.54l-.29-.2,0,0c-.19-.14-.32-.24-.44-.31A4.26,4.26,0,0,0,58,140.7a3.51,3.51,0,0,0-2.53,1.07,4,4,0,0,0-1.09,3,3.2,3.2,0,0,0,1.18,2.37c3.53,2.78,7.76,4.44,11.31,4.44a9.9,9.9,0,0,0,7-2.67c2.51-2.34,3.15-5.57,3.42-8.11a50.17,50.17,0,0,0,0-8.58c-.06-.94-.13-1.88-.2-2.82-.15-1.88-.3-3.83-.31-5.73A3.61,3.61,0,0,0,73,120a3.86,3.86,0,0,0-2.73,1.09,3.55,3.55,0,0,0-1,2.57c0,2.26.18,4.53.35,6.73.18,2.42.37,4.93.33,7.38,0,.64,0,1.21-.06,1.75l-.06.7a3,3,0,0,1,0,.34l0,.2m79.43,15.53a3.64,3.64,0,0,0,1.9-.56c8.67-5.21,7.69-15.56,6.82-24.69-.23-2.48-.45-4.83-.47-6.94a3.61,3.61,0,0,0-3.76-3.65,3.86,3.86,0,0,0-2.73,1.09,3.5,3.5,0,0,0-1,2.57c0,2.5.25,5,.48,7.43s.46,4.84.48,7.25a20.85,20.85,0,0,1-.79,6.63,6.46,6.46,0,0,1-2.83,3.85,3.56,3.56,0,0,0-1.66,4.12,3.82,3.82,0,0,0,3.56,2.9m-43.59-20.54a27.1,27.1,0,0,1-3.57-1.43,12.5,12.5,0,0,0-2-5.69c-2-3.07-4.93-4.84-7.92-4.84h-.32a8.93,8.93,0,0,0-8.13,5.89,9.36,9.36,0,0,0,1.72,8.17,12.28,12.28,0,0,0,5.5,4.23c-1.46,2-3,3-4.79,3.06a3.66,3.66,0,0,0-3.63,3.87A3.52,3.52,0,0,0,86,152.68h.11c5.65-.14,10.09-3.79,13.56-11.14a43.64,43.64,0,0,0,11.52,3.2,94.29,94.29,0,0,0,13.42,1.2c.93,0,1.83,0,2.7-.07,4.85-.27,8.4-1.54,11.18-4,3.15-2.78,4.77-6.87,6.17-10.81a3.33,3.33,0,0,0-.35-3.11,4,4,0,0,0-3.22-1.56,3.75,3.75,0,0,0-3.62,2.54c-1.06,3-2.19,5.87-4.29,7.63-1.36,1.16-3.86,1.79-7.23,1.85h-.63c.08-1.15.12-2.4.12-3.92a3.76,3.76,0,0,0-3.67-3.75h-.13a3.8,3.8,0,0,0-3.7,3.74c0,1.07,0,2.28-.09,3.54l-.54,0a4.62,4.62,0,0,0-1.29-.76l-.13,0h0l-.07,0-.49-.25c-.24-.13-.46-.27-.69-.42l-.15-.09-.07-.07-.29-.26a1.16,1.16,0,0,0-.15-.13l-.15-.14-.07-.1a1.27,1.27,0,0,1-.13-.19c-.09-.13-.18-.27-.27-.43s-.14-.24-.23-.41l0-.06-.06-.16-.15-.47q-.14-.42-.24-.9c0-.05,0-.14-.06-.25s0-.17-.07-.26,0-.22,0-.32l0-.17,0-.39c-.06-.63-.08-1.29-.1-2.1s0-1.8,0-2.69c0-.61,0-1.22,0-1.84a3.84,3.84,0,0,0-1.14-2.67,3.55,3.55,0,0,0-2.51-1.08h-.15a3.81,3.81,0,0,0-3.7,3.75c0,.61,0,1.23,0,1.85a31.59,31.59,0,0,0,.67,8.64,1.82,1.82,0,0,0,.07.25m23.84,29.31-.22.07a3.83,3.83,0,0,0-2.4,2.18,3.89,3.89,0,0,0,.18,3.26,20.58,20.58,0,0,0,3.33,4.35c.35.37.7.75,1,1.13s.61.71.91,1.08l.15.2.06.07-.15,0c-.49-.11-1-.24-1.56-.41-1.12-.34-2.2-.76-3.11-1.12l-.14-.06-.31-.13-.76-.35c-.54-.25-1-.5-1.52-.76l-.58-.32c0-.33-.07-.65-.12-1a11.13,11.13,0,0,0-3.33-6.44,8.91,8.91,0,0,0-5.43-2.36,10,10,0,0,0-2.33-.29,8.46,8.46,0,0,0-2.08.25,9,9,0,0,0-5.11,3.78,10.58,10.58,0,0,0-1.76,4.78,13.36,13.36,0,0,0-2.45-.67c-.51-.09-1-.15-1.52-.19,0-.19-.07-.38-.11-.56a14.85,14.85,0,0,0-6.45-9,18.16,18.16,0,0,0-9.94-3,15,15,0,0,0-1.79.1,3.75,3.75,0,0,0-.12,7.5l.34,0a12.74,12.74,0,0,1,1.49-.08H84l.71.05H85l.27.06.16,0a12.88,12.88,0,0,1,1.62.43l.63.23h0l.24.1.49.25a15.38,15.38,0,0,1,1.54.94h0l0,0,.24.2c.23.2.45.4.65.61s.29.31.43.47l.17.19.09.14.1.14c.16.24.31.49.45.74l.16.3.08.18a10.38,10.38,0,0,1,.42,1.46l0,.17V174a8.51,8.51,0,0,1,0,1.13,1.8,1.8,0,0,1,0,.22,2.12,2.12,0,0,1,0,.24,5.79,5.79,0,0,1-.18.77s0,.09,0,.14h0l-.09.15a4.49,4.49,0,0,1-.24.42l0,.07-.09.12-.07.07a4.12,4.12,0,0,1-.35.37l-.11.1a1.49,1.49,0,0,0-.39.27l-.14.1-.2.15-.39.21h0a1.51,1.51,0,0,0-.54.22l-.43.13-.35.08h-.08a1.48,1.48,0,0,0-.38,0l-.32,0h-.13a1.14,1.14,0,0,0-.39-.06h-.18l-.22-.05-.14,0-.18-.06-.39-.22a1.24,1.24,0,0,0-.39-.29l-.18-.2-.13-.14-.06-.08c-.11-.18-.22-.41-.27-.5l0-.07a3.71,3.71,0,0,0-3.31-1.9,3.44,3.44,0,0,0-1.88.53A3.83,3.83,0,0,0,79.17,181a10.34,10.34,0,0,0,9,5.52h.21a12.62,12.62,0,0,0,9-3.88,10.58,10.58,0,0,0,2-3l.59,0a10.1,10.1,0,0,1,1.81.5,7.51,7.51,0,0,1,.85.43,3.58,3.58,0,0,0,1.83.49,4,4,0,0,0,1.36-.24l.09,0a10.38,10.38,0,0,0,8.79,4.31,12.32,12.32,0,0,0,2.72-.3,8.82,8.82,0,0,0,5-3.17c.55.27,1.12.53,1.7.78a31.44,31.44,0,0,0,8.35,2.53,10.63,10.63,0,0,0,1.25.08,6.73,6.73,0,0,0,6.33-3.55c1.34-2.64.74-5.54-1.82-8.85-.34-.44-.7-.88-1.05-1.29a7.41,7.41,0,0,0,1.74.22,6.63,6.63,0,0,0,2.57-.52,5.89,5.89,0,0,0,3.07-2.76,6.43,6.43,0,0,0,.44-4.64,11.75,11.75,0,0,0-7-7.06,6.7,6.7,0,0,0-2.08-.33,6.54,6.54,0,0,0-5.66,3.17,7.85,7.85,0,0,0-.86,5.63M108.91,65.47a65.77,65.77,0,1,0,65.77,65.77,65.77,65.77,0,0,0-65.77-65.77Zm20,51.86a2.6,2.6,0,0,1-2.75-2.66V83.58a2.75,2.75,0,0,1,5.5,0v31.09a2.61,2.61,0,0,1-2.75,2.66Zm-28.21-8.14a3.29,3.29,0,0,0,2.87-1.57c1.24-1.72,1.54-4.82,1.84-6.82.53-3.61.53-7.28.8-10.91a3.9,3.9,0,0,1,4-3.63,3.26,3.26,0,0,1,3.49,3.63c-.75,10-.31,26.73-13,26.73a17.91,17.91,0,0,1-2.45-.18c-6.43-1-13.18-1.47-18.53-5.38a10.85,10.85,0,0,1-6.56,5.28,12.55,12.55,0,0,1-3.65.54,12.88,12.88,0,0,1-5.84-1.39,10.41,10.41,0,0,1-5.56-8.83A12.74,12.74,0,0,1,63.26,96a10,10,0,0,1,6.06-2,10.16,10.16,0,0,1,1.23.08c-.19-1.09-.33-2.19-.45-3.29a3.15,3.15,0,0,1,3.39-3.61,4,4,0,0,1,4.15,3.61c.55,5.28,2.15,11,6.61,14.28a14,14,0,0,0,5.06,2.26C89.07,103,89,98.71,89,94.39a3.77,3.77,0,0,1,7.54,0c0,4.74.05,9.46.36,14.19H97a25.72,25.72,0,0,0,3.65.6ZM69.18,144.34l.39-.38.06-.06a2.9,2.9,0,0,0,.19-.29c.14-.23.26-.48.4-.72l0,0,0-.12c.06-.18.12-.36.17-.54.11-.42.18-.84.25-1.26,0-.13.07-.48.08-.59l.06-.73q0-.9.06-1.8c.07-4.73-.66-9.41-.68-14.13a2.75,2.75,0,0,1,5.5,0c0,2.87.34,5.74.51,8.6a50.25,50.25,0,0,1,0,8.41c-.3,2.75-1,5.52-3.11,7.49a9,9,0,0,1-6.28,2.4c-3.81,0-7.81-2-10.69-4.23-1.18-.92-1-2.93,0-3.88A2.5,2.5,0,0,1,58,141.7a3.34,3.34,0,0,1,2.06.78l-.12-.1.41.3.34.23c.29.2.6.38.91.56s.55.31.83.46c.07,0,.62.28.66.31a13.17,13.17,0,0,0,1.9.62c.28.07.56.12.85.17h0c.07,0,.52.05.66.05h.18l.77,0h.09l.11,0,.77-.21h0l.26-.13c.12-.07.48-.35.51-.35Zm80,11c-2.38,0-3.94-3.63-1.39-5.16a7.48,7.48,0,0,0,3.28-4.41,22,22,0,0,0,.83-6.94c0-4.91-.94-9.77-1-14.67a2.59,2.59,0,0,1,2.73-2.66,2.61,2.61,0,0,1,2.76,2.66c.06,9.79,4.55,24.5-5.86,30.76a2.68,2.68,0,0,1-1.39.42Zm-41.94-18a11,11,0,0,1-.75-2c-.88-3.33-.63-6.84-.62-10.24a2.8,2.8,0,0,1,2.75-2.75h.1a2.8,2.8,0,0,1,2.65,2.75c0,1.52-.06,3,0,4.55,0,.72,0,1.44.1,2.16l.06.58c0,.18,0,.24,0,.24h0c0,.26.15.59.18.72.07.33.15.65.25,1,0,.17.11.34.17.51l.07.17c0,.07,0,.11,0,.14.11.21.26.47.29.51s.19.31.29.46l.15.22.07.09s-.08-.09-.22-.28c0,.17.52.58.64.69s.28.26.43.39l0,0,.06,0c.3.19.59.38.9.55s.4.21.61.3l.06,0,.16.06a3.44,3.44,0,0,1,1.21.79c.63.07,1.26.12,1.89.18.15-1.54.18-3.08.18-4.63a2.79,2.79,0,0,1,2.75-2.74h.08a2.77,2.77,0,0,1,2.67,2.75c0,1.65,0,3.28-.2,4.91h1.73c2.87,0,6-.52,7.86-2.08,2.33-2,3.54-5.1,4.59-8.06a2.72,2.72,0,0,1,2.67-1.88c1.69,0,3.34,1.32,2.63,3.34-1.31,3.7-2.87,7.72-5.89,10.39s-6.71,3.53-10.58,3.74c-.87,0-1.75.07-2.64.07a92.83,92.83,0,0,1-13.27-1.19,41.69,41.69,0,0,1-12.16-3.54c-2.51,5.66-6.43,11.3-13.1,11.47H86c-3.46,0-3.42-5.41.08-5.5,2.79-.07,4.84-2.14,6.36-4.64a10.9,10.9,0,0,1-6.29-4.25A8.36,8.36,0,0,1,84.54,130a8,8,0,0,1,7.23-5.2H92c3,0,5.51,2,7.09,4.4A11.47,11.47,0,0,1,101,135a30.88,30.88,0,0,0,6.18,2.32Zm26.88,41.27h.08l0,0-.09-.35,0,0c-.13-.22-.24-.44-.37-.65s-.29-.44-.45-.66-.16-.2-.23-.31c-.32-.38-.63-.76-1-1.13-1.46-1.66-3.2-3.29-4.22-5.28a2.78,2.78,0,0,1,1.64-4q.54-.18,1.11-.33a7.13,7.13,0,0,1,.51-5.8,5.59,5.59,0,0,1,4.81-2.69,5.8,5.8,0,0,1,1.78.28A10.78,10.78,0,0,1,144,164a5.43,5.43,0,0,1-.37,3.92,5,5,0,0,1-2.57,2.29,5.59,5.59,0,0,1-2.18.44,6.51,6.51,0,0,1-2.18-.39,3,3,0,0,1-1.27.73c.67.76,1.34,1.53,2,2.34,1.73,2.24,3.12,5,1.72,7.79a5.77,5.77,0,0,1-5.44,3,8.71,8.71,0,0,1-1.13-.08,29.83,29.83,0,0,1-8.08-2.45c-.82-.36-1.63-.74-2.42-1.15a7.81,7.81,0,0,1-4.85,3.49,11.54,11.54,0,0,1-2.5.27,9.37,9.37,0,0,1-8.15-4.16,2.79,2.79,0,0,1-.71-.29,3,3,0,0,1-1.38.34,2.56,2.56,0,0,1-1.32-.35c-.31-.18-.64-.34-1-.49a11.33,11.33,0,0,0-2.07-.57c-.44,0-.89-.07-1.33-.07h-.05a10,10,0,0,1-2,3.37,11.54,11.54,0,0,1-8.24,3.56h-.19a9.28,9.28,0,0,1-8.17-5,2.81,2.81,0,0,1,1-3.76,2.48,2.48,0,0,1,1.34-.37,2.73,2.73,0,0,1,2.42,1.36s.2.42.36.68l.11.14.18.2.29.3.14.11h0s.11.05.18.17l.69.39h0l.38.12.43.1a1.11,1.11,0,0,1,.23,0c.09,0,.1,0,.07,0l.45,0h0c.22,0,.44,0,.66-.05-.12,0-.16,0,0,0h.2c.16,0,.32-.07.48-.12s.53-.15.79-.24l.11,0-.12,0c-.06,0,0-.06.26-.09s.4-.2.59-.32.34-.25.52-.37c0,0,.09-.09.25-.15l.26-.23c.18-.17.34-.36.51-.54s.15-.2.2-.28.27-.47.4-.7l.09-.26a9.24,9.24,0,0,0,.21-.91v0h0c0-.18,0-.35,0-.53a10.43,10.43,0,0,0,0-1.25,1,1,0,0,0,0-.16v-.1l0-.2a10.37,10.37,0,0,0-.47-1.65l-.12-.25a3.59,3.59,0,0,0-.17-.34c-.16-.28-.32-.56-.5-.82l-.22-.32v0l0,0c-.21-.24-.42-.49-.64-.72s-.47-.45-.71-.66l-.33-.27,0,0a19.22,19.22,0,0,0-1.67-1l-.54-.27-.28-.12-.72-.26a15.39,15.39,0,0,0-1.74-.46l-.51-.1H85c-.33,0-.66-.06-1-.07h-.39a14.17,14.17,0,0,0-1.6.09h-.23A2.76,2.76,0,0,1,82,160.6a15.48,15.48,0,0,1,1.68-.09A17,17,0,0,1,93,163.36a14,14,0,0,1,6,8.42c.09.43.15.86.21,1.29a16.56,16.56,0,0,1,2.22.24,12.34,12.34,0,0,1,3.53,1.18,10,10,0,0,1,1.67-5.71,8,8,0,0,1,4.54-3.38,7.63,7.63,0,0,1,1.83-.22,8.85,8.85,0,0,1,2.17.28,8,8,0,0,1,4.92,2.1,10.33,10.33,0,0,1,3,5.87,13.43,13.43,0,0,1,.13,1.41l1.09.61q.77.41,1.56.78l.78.35.45.2h0c1,.42,2.1.82,3.19,1.15.54.16,1.08.31,1.63.43l.59.12s0,0,0,0a1.48,1.48,0,0,1,.33.06c.36,0,.72,0,1.09,0Zm-48.91-.16h0Zm4.09,1.51h0Zm0,0h0Z" transform="translate(-8.34 -0.46)"/><path d="M114.61,178.16c-.31,0-.61,0-.92,0l-.06,0c-.16,0-.32-.07-.48-.12l-.36-.11c-.22-.12-.45-.27-.69-.42l-.23-.23-.12-.14-.08-.11c-.11-.17-.21-.36-.31-.55l0-.1a2.74,2.74,0,0,0-.1-.31c-.06-.21-.1-.41-.14-.62l0-.15c0-.08,0-.22,0-.35a7.85,7.85,0,0,1,0-.84,3.6,3.6,0,0,0,.07-.39,6.78,6.78,0,0,1,.21-.76l.08-.23a6.77,6.77,0,0,1,.47-.81l.18-.2.2-.19.09-.06.12-.08a3.19,3.19,0,0,0,1.14.2,3.51,3.51,0,0,0,.72-.07l.13,0,.17.09a3.75,3.75,0,0,0,1.45.38,3.51,3.51,0,0,1,.34.33l0,.09a2.2,2.2,0,0,1,.17.25l.15.28a1.9,1.9,0,0,0,.26.52c0,.14.1.33.15.53s.11.49.16.74a5.45,5.45,0,0,1,0,.64c0,.23,0,.46,0,.69l0,.15c0,.17-.08.34-.13.51s0,.15-.08.22a2.86,2.86,0,0,1-.24.43l-.08.11-.17.18-.41.24a1.43,1.43,0,0,0-.21.12l-.5.12-.25,0-.48,0Z" transform="translate(-8.34 -0.46)"/><path d="M112.54,171.88a3.77,3.77,0,0,0,1.06.15,4.23,4.23,0,0,0,.7-.06l.09.05a4.09,4.09,0,0,0,1.47.42l.13.13.06.08.15.24.12.22a2.28,2.28,0,0,0,.24.5,4.42,4.42,0,0,1,.15.48c.06.23.1.46.15.69v.05c0,.17,0,.34,0,.51s0,.42,0,.63v.11a4.64,4.64,0,0,1-.12.47l-.07.2c-.06.11-.12.22-.19.33h0v0l-.11.11-.36.21-.15.09-.41.1h-.18l-.47,0h-.16c-.26,0-.54,0-.8,0h-.06l-.45-.11-.3-.1c-.19-.1-.37-.21-.55-.32l-.2-.21a.79.79,0,0,1-.12-.13l0,0c-.1-.17-.19-.33-.27-.5l0-.05c0-.1-.07-.2-.1-.29s-.09-.37-.12-.55l0-.12c0-.11,0-.22,0-.33s0-.51,0-.79,0-.23,0-.29c.06-.26.13-.51.2-.73,0-.07,0-.13.07-.19h0a7.33,7.33,0,0,1,.39-.67h0a1.14,1.14,0,0,1,.15-.17,1.59,1.59,0,0,0,.13-.13m-.08-1.08-.12,0-.36.22-.29.26-.24.27a7.08,7.08,0,0,0-.51.89l-.1.27a8.37,8.37,0,0,0-.23.86s0,.14-.06.35V174a8.82,8.82,0,0,0,0,.89l0,.44c.06.27.11.54.18.81s.09.27.14.4.24.47.38.7l.08.1.18.22.32.31c.25.15.49.3.75.44l.43.14c.21.06.43.11.65.15s.63,0,.94,0h.19l.75,0h.07a5.47,5.47,0,0,0,.58-.15l.07,0,.21-.14.45-.25.06,0,.26-.28.07-.1c.09-.14.17-.29.25-.44v0a2.83,2.83,0,0,1,.11-.31c0-.18.1-.37.14-.55s0-.08,0-.12c0-.28,0-.55,0-.83a5.68,5.68,0,0,0,0-.59v-.06c-.06-.29-.11-.58-.19-.86a6.36,6.36,0,0,0-.19-.62s0,0,0,0a2.14,2.14,0,0,1-.19-.35.8.8,0,0,1,.08.13c-.1-.2-.19-.4-.3-.59l-.27-.41a6.14,6.14,0,0,0-.52-.5h0a3.18,3.18,0,0,1-1.42-.33l-.22-.11-.28-.08-.08,0a3.11,3.11,0,0,1-.67.07,2.9,2.9,0,0,1-1.14-.23Z" transform="translate(-8.34 -0.46)"/><path d="M69,110.91a2.3,2.3,0,0,1-.37,0,.88.88,0,0,0-.23-.07l-.33-.07c-.3-.07-.6-.15-.9-.25l-.31-.11-.15-.09-.43-.22-.09,0-.32-.19-.24-.21-.25-.23-.1-.1-.25-.23A.64.64,0,0,0,65,109l-.23-.35-.26-.48a.82.82,0,0,0-.1-.25l0-.12a3.45,3.45,0,0,1-.12-.43l-.09-.43v-.38c0-.23,0-.46,0-.7,0,0,0-.35,0-.43l0-.19c.08-.34.15-.68.26-1,0-.07.09-.24.15-.39a2.13,2.13,0,0,0,.12-.31v0c.11-.21.21-.42.33-.63s.22-.35.34-.52l.18-.27.09-.09.39-.43.28-.27.17-.16.32-.25a5.35,5.35,0,0,1,.47-.29,2.69,2.69,0,0,1,.29-.16l.22-.12c.33-.11.68-.2,1-.29h.7l.26,0h.06l.11,0,.38.1.52.19a6.87,6.87,0,0,1,.89.5,25.72,25.72,0,0,0,3.12,6c0,.09,0,.19-.07.29a6.82,6.82,0,0,1-.19.78l0,.21a2.6,2.6,0,0,0-.15.28c-.07.12-.13.25-.21.37l-.11.2s-.17.18-.17.18-.27.28-.42.42l-.11.11h0l-.41.28a4.51,4.51,0,0,1-.73.45l-.23,0-.31.11a6.21,6.21,0,0,1-.74.2l-.15,0-.41.09-.85,0Z" transform="translate(-8.34 -0.46)"/><path d="M69.37,99.45v1h.1l.3,0h.07l.33.09.21.07.23.09a7.62,7.62,0,0,1,.71.38,25.84,25.84,0,0,0,3,5.78.43.43,0,0,0,0,.11,7.09,7.09,0,0,1-.18.73s0,.09,0,.15l-.13.25a3.47,3.47,0,0,1-.18.33l-.08.14v0l0,0-.11.12-.39.4-.1.09-.37.25a5.26,5.26,0,0,1-.59.38l-.23.06-.19.06-.12,0c-.23.08-.47.14-.71.2l-.15,0a2.47,2.47,0,0,1-.29.06h-.35l-.25,0h-.28l-.53,0h-.26l-.24-.07-.2,0-.13,0a5.93,5.93,0,0,1-.85-.24l-.12,0-.11,0-.15-.08-.42-.21-.09-.06-.27-.15,0,0-.16-.14-.24-.22-.12-.11-.17-.16,0-.07-.13-.2-.09-.14s-.14-.25-.23-.42a1.45,1.45,0,0,0-.1-.25l0-.08-.12-.4a1.62,1.62,0,0,0,0-.19l0-.18c0-.11,0-.22,0-.33s0-.45,0-.67a1,1,0,0,1,0-.17c0-.08,0-.16,0-.23l0-.13c.08-.35.15-.67.24-1L65,104a2.45,2.45,0,0,0,.12-.31h0c.1-.2.2-.4.31-.59s.21-.33.32-.49l.15-.23.09-.09c.12-.14.24-.28.37-.41a3.07,3.07,0,0,1,.26-.25l.13-.12.07-.07.18-.13,0,0,.45-.28.27-.15.2-.1c.3-.1.61-.18.93-.26h.44v-1m0,0-.58,0h0c-.39.1-.76.2-1.13.32h0l0,0-.52.28-.51.32-.29.23c-.11.1-.23.2-.25.23l-.3.28c-.18.19-.36.39-.53.59s-.37.54-.54.82-.27.5-.39.75l0,0s-.24.56-.29.72c-.13.4-.21.82-.3,1.23a.11.11,0,0,0,0,0v.06c0,.15,0,.29,0,.43,0,.36,0,.72,0,1.08V107s0,0,0,.05l.09.43c.05.23.12.44.19.67a.37.37,0,0,1,.08.19l.31.57c.07.12.15.23.23.35a.45.45,0,0,1,.06.13c.14.15.35.33.42.4s.28.26.42.39l.1.1.48.27c.22.13.45.23.68.35l.3.11c.31.11.63.19,1,.27l.33.06.2.07a2.89,2.89,0,0,0,.52,0c.3,0,.61,0,.85,0s.33,0,.5,0h.11a4.18,4.18,0,0,0,.62-.13,7.1,7.1,0,0,0,.79-.22l.31-.1a.81.81,0,0,1,.19,0,8.41,8.41,0,0,0,1.28-.79h0l.15-.16c.2-.18.37-.37.55-.56l.08-.07c.07-.1.12-.21.16-.27.14-.22.25-.47.38-.7,0,0,0,0,0,0a1.85,1.85,0,0,1,.06-.25,8.52,8.52,0,0,0,.2-.84,2.16,2.16,0,0,1,.15-.45,24.39,24.39,0,0,1-3.28-6.3l-.11-.06a10.5,10.5,0,0,0-1-.57l-.53-.19-.41-.1-.19,0h-.09l-.4,0Z" transform="translate(-8.34 -0.46)"/></g></svg>