<svg id="Layer_18" data-name="Layer 18" xmlns="http://www.w3.org/2000/svg" viewBox="0 0 142.19 200.05"><g id="g5"><path id="path7" d="M161.2,88.11c1.13-.56,1.7-1.33,2,.85s-2.5,19.05-3.51,20.93c-.61,1.14-3.21,15.16-4.72,18.39s-2.2,2.3-5.3,6.42c0,0-2.55,4.84-4.09,6.39s-2.85,3.13-3.08,4-1.85,19.92-1.2,25.08c0,5.43.1,18.92-.34,20.85a32.74,32.74,0,0,0-.88,6.64s.26,1.86-1.07,2-69.31.35-69.31.35-2.64,0-.1-18.33,4-24.82,6.54-39.75c1-2.23-9.45-12.74-17.81-27.32C49.78,99.73,32.24,81.39,32.24,75.85S57.19,26.33,65.09,27.54c6.71,1,45.93,17.8,46.57,20s-.24,12.67-4,14.4-15,6.16-21.35,4.78c0,0-9.19-10-12.48-11.53,0,0-.87.59.2,3.29S72.63,68,68.64,70.82c0,0-3,.44-2.77.94S66.59,73,70,73.42s5.73,2.34,7.07,3,6.13,1.66,8.88,3.28,32.28,45.25,32.24,47.34-9.42,9.06-13.56,9.45c0,0-.68,0,0,.68s8.92-.13,9.79.75.28,3.13.92,5.25,3.09,18.13,2.55,20.72a8,8,0,0,0,.55,3.93c.37,2.12,1,11.35.74,12.16a1.85,1.85,0,0,0,.53,1.58s.85-.4.85-2-2-36.06-.54-37.4c0,0,1.39-1.78,2.61-1.78s3.42-2.22,4.43-2.76c0,0,.58-.71-1-1.52s-4.38-2.58-5.72-8.25c-1.6-2.76-3.35-9.13-5.84-14.91s-1.9-5-1.9-5S99.51,92.14,95.46,86.81c0,0-2.22-2.94,0-2.81s19.59,3.79,22.15,4.8,7.32.65,11.22,5.49c4.52,4,7.92,7.77,9.45,8.35a5.2,5.2,0,0,1,1.71,2c.49,1.15,1.4,1.18,1.91.48" transform="translate(-32.24 0.05)"/><path id="path9" d="M173.46,67.92l-9-9.21c-1.43-1.48-4.64-3.44-6.28-1.85l-26.56,31.8a4,4,0,0,0-.39,5.57l7.23,7.49a4,4,0,0,0,5.58-.19l29-28A4,4,0,0,0,173.46,67.92Z" transform="translate(-32.24 0.05)"/><path id="path11" d="M153.48,47.16,142.69,36.5a6.5,6.5,0,0,0-9.12,1.07L108.9,72.85A6.53,6.53,0,0,0,110,82l11.62,5.55a6.52,6.52,0,0,0,9.12-1.07l23.84-30.18A6.5,6.5,0,0,0,153.48,47.16Z" transform="translate(-32.24 0.05)"/><path id="path13" d="M89.4,35,76.22,29.32c-1.4-.89-4.85-2.62-5.26-4.11-.48-1.72,3-4.68,4-6.29l10.25-16a6.52,6.52,0,0,1,9-2L105.31,8.1c1.66,1.07,3.71,2.45,4,4.28.2,1.48-1.14,3.35-2,4.69L97,33.06C95.09,36.07,92.41,36.91,89.4,35Z" transform="translate(-32.24 0.05)"/><path id="path15" d="M119.5,13.57l13.77,8.24a6.52,6.52,0,0,1,2.23,8.91l-9.58,16a27.11,27.11,0,0,1-2.74,3.3A23.11,23.11,0,0,0,120.59,53c-2.41,3.55-6.12,8.42-7.32,7.71-2.39-3.68,1-10,.84-13.45-.12-3-8.59-5.32-10.86-6.49-1.44-.86-4.56-1.43-5-2.93-.51-1.69,1.8-4.35,2.78-6l9.58-16A6.5,6.5,0,0,1,119.5,13.57Z" transform="translate(-32.24 0.05)"/><path id="path17" d="M110.37,64.42s.67,0,0,1.24c-.8,1.2-9.74,11.21-10.76,12.73s-1.58,1.94-2.25,1.71C92,78.2,81.69,71.29,80.18,69.53c-.75-.87-1.55-3.65,1.66-4.28,2-.1,2,.62,3.52,3.21s7,.9,9.57.21" transform="translate(-32.24 0.05)"/></g></svg>