<svg id="machado" xmlns="http://www.w3.org/2000/svg" viewBox="0 0 197.43 187.13"><path d="M190.06,49.76l-2.34-4.53-7,3.61a25.6,25.6,0,0,1-.19,2.77c-.07.54-.17,1.07-.29,1.59A36,36,0,0,1,183,59.13l.14-.08A70.11,70.11,0,0,1,60.29,125.36l.06,0c-.58-.84-1.15-1.68-1.68-2.51-1.29-2-2.47-4.11-3.66-6.19l-8.77,4.94,2.5,4.44A80.3,80.3,0,0,0,190.06,49.76Z" transform="translate(-1.57 -6.28)"/><rect x="29.62" y="121.19" width="17.16" height="68.07" transform="translate(137.67 25.06) rotate(53.02)"/><path d="M185.91,66.69S171,21.58,135.27,6.28c0,0,39.45,5.29,58,50.44Z" transform="translate(-1.57 -6.28)"/><path d="M53,133.13l-12,2.76s1.42,15.61,16.14,20.47l7.62-10.64Z" transform="translate(-1.57 -6.28)"/><circle cx="9.39" cy="168.95" r="9.39"/><polygon points="3.63 161.54 23.1 148.4 33.37 161.65 15.51 176.05 3.63 161.54"/><rect x="144.58" y="83.11" width="15.79" height="110.88" transform="translate(-54.23 113.29) rotate(-36.98)"/><path d="M135,69.28a17.87,17.87,0,0,1-10.75,3.79,17.21,17.21,0,0,1-14-7.19L79.39,89.12l19.38,25.74,45.05-33.92Z" transform="translate(-1.57 -6.28)"/><circle cx="184.72" cy="177.65" r="9.48"/><polygon points="166.71 166.37 167 166.84 176.87 182.96 176.3 175.54 166.71 166.37"/><polygon points="179.8 157.51 191.87 171.44 178.4 167.12 179.8 157.51"/></svg>