<svg id="Layer_15" data-name="Layer 15" xmlns="http://www.w3.org/2000/svg" viewBox="0 0 196.98 101.55"><defs><style>.cls-1,.cls-2{stroke:#000;stroke-miterlimit:10;stroke-width:0.25px;}.cls-2{fill-rule:evenodd;}</style></defs><g id="g4712"><path id="path3072" class="cls-1" d="M58.39,141.45a4.88,4.88,0,0,1,.68-.59,23.16,23.16,0,0,0,5.38-5.3,1.58,1.58,0,0,0,.32-.92c-1.37,0-2.74,0-4.11,0a1.63,1.63,0,0,1-1.33-2.12A1.66,1.66,0,0,1,61,131.35c1.7,0,3.41,0,5.11,0a1.31,1.31,0,0,1,.39-.49c.61-.21.38-.86.69-1.25a1,1,0,0,1,1.46-.3c.44.27.28.79.45,1.17,0,.26.33.33.46.51a3,3,0,0,1,.18.36c1.83,0,3.66,0,5.5,0,.49,0,.82-.34,1.23-.5-.7-.29-1.33-.84-1.29-1.53s.56-1.34,1.33-1.6c-.58-.24-1.17-.6-1.29-1.17-.34-.91.57-2,1.73-2s2.27,0,3.4,0a1.69,1.69,0,0,1,1.07-.51,29.52,29.52,0,0,1,3.12,0c.4,0,.61.32.92.48a25.47,25.47,0,0,0,2.9.06,3.31,3.31,0,0,1-.49-.5c2.36-.12,4.73,0,7.09,0,.75-.05,1.14.72,1.93.56l15.48,0c.64.1,1.09-.3,1.61-.52,1-.09,2,0,3.06,0,1.46,0,2.93,0,4.4.06-.14.18-.31.35-.46.52,1,0,2.09,0,3.14,0,.34-.13.49-.54.94-.51a31.82,31.82,0,0,1,3.24,0c.41,0,.62.31.92.49,1,.15,2.11,0,3.16.12a1.83,1.83,0,0,1,1.48,1.35,1.68,1.68,0,0,1-1.31,1.8,2.39,2.39,0,0,1,1.07.77,1.39,1.39,0,0,1,.12,1.45,2.72,2.72,0,0,1-1.13.92c.39.16.69.51,1.16.5,1.86.07,3.71,0,5.57,0a1.73,1.73,0,0,1,1.55,1.39,1.65,1.65,0,0,1-1.38,1.85c-2,.11-4,0-5.93,0-.34.14-.64.34-1,.49.58.31,1.2.73,1.26,1.34a1.68,1.68,0,0,1-1.3,1.79c.52.26,1.1.57,1.24,1.09a1.61,1.61,0,0,1-1.41,2.06c-1,.14-2.06,0-3.08.07-.35.14-.49.55-.94.52a32,32,0,0,1-3.25,0c-.53,0-.68-.54-1.19-.53-1-.05-2,0-2.94,0,.16.17.32.33.46.51-2.35.12-4.72,0-7.08,0-.66.07-1-.59-1.65-.55-4.93-.05-9.86,0-14.79-.06a13.39,13.39,0,0,0-1.67.06c-.41.18-.76.55-1.28.5-2.36,0-4.73.06-7.09-.07a2.52,2.52,0,0,1,.48-.5c-1,0-1.92-.05-2.87,0-.32.17-.51.53-.95.51a21.45,21.45,0,0,1-3.4,0c-.35,0-.52-.3-.74-.48-1.13,0-2.26,0-3.39,0s-2.15-1.09-1.79-2a1.88,1.88,0,0,1,1.28-1.16,2.28,2.28,0,0,1-1.19-.89,1.4,1.4,0,0,1,0-1.4,2.33,2.33,0,0,1,1.09-.84c-.4-.16-.7-.51-1.17-.5-1.65-.06-3.31,0-5,0a2,2,0,0,0,0,.81,16,16,0,0,0,3.25,4.77,15,15,0,0,1,1.26,1.26,20.34,20.34,0,0,1-8.61,1.68A24.47,24.47,0,0,1,58.39,141.45Z" transform="translate(-1.15 -41.76)"/><path id="path3074" class="cls-1" d="M58.39,141.45a4.88,4.88,0,0,1,.68-.59,23.16,23.16,0,0,0,5.38-5.3,1.58,1.58,0,0,0,.32-.92c-1.37,0-2.74,0-4.11,0a1.63,1.63,0,0,1-1.33-2.12A1.66,1.66,0,0,1,61,131.35c1.7,0,3.41,0,5.11,0a1.31,1.31,0,0,1,.39-.49c.61-.21.38-.86.69-1.25a1,1,0,0,1,1.46-.3c.44.27.28.79.45,1.17,0,.26.33.33.46.51a3,3,0,0,1,.18.36c1.83,0,3.66,0,5.5,0,.49,0,.82-.34,1.23-.5-.7-.29-1.33-.84-1.29-1.53s.56-1.34,1.33-1.6c-.58-.24-1.17-.6-1.29-1.17-.34-.91.57-2,1.73-2s2.27,0,3.4,0a1.69,1.69,0,0,1,1.07-.51,29.52,29.52,0,0,1,3.12,0c.4,0,.61.32.92.48a25.47,25.47,0,0,0,2.9.06,3.31,3.31,0,0,1-.49-.5c2.36-.12,4.73,0,7.09,0,.75-.05,1.14.72,1.93.56l15.48,0c.64.1,1.09-.3,1.61-.52,1-.09,2,0,3.06,0,1.46,0,2.93,0,4.4.06-.14.18-.31.35-.46.52,1,0,2.09,0,3.14,0,.34-.13.49-.54.94-.51a31.82,31.82,0,0,1,3.24,0c.41,0,.62.31.92.49,1,.15,2.11,0,3.16.12a1.83,1.83,0,0,1,1.48,1.35,1.68,1.68,0,0,1-1.31,1.8,2.39,2.39,0,0,1,1.07.77,1.39,1.39,0,0,1,.12,1.45,2.72,2.72,0,0,1-1.13.92c.39.16.69.51,1.16.5,1.86.07,3.71,0,5.57,0a1.73,1.73,0,0,1,1.55,1.39,1.65,1.65,0,0,1-1.38,1.85c-2,.11-4,0-5.93,0-.34.14-.64.34-1,.49.58.31,1.2.73,1.26,1.34a1.68,1.68,0,0,1-1.3,1.79c.52.26,1.1.57,1.24,1.09a1.61,1.61,0,0,1-1.41,2.06c-1,.14-2.06,0-3.08.07-.35.14-.49.55-.94.52a32,32,0,0,1-3.25,0c-.53,0-.68-.54-1.19-.53-1-.05-2,0-2.94,0,.16.17.32.33.46.51-2.35.12-4.72,0-7.08,0-.66.07-1-.59-1.65-.55-4.93-.05-9.86,0-14.79-.06a13.39,13.39,0,0,0-1.67.06c-.41.18-.76.55-1.28.5-2.36,0-4.73.06-7.09-.07a2.52,2.52,0,0,1,.48-.5c-1,0-1.92-.05-2.87,0-.32.17-.51.53-.95.51a21.45,21.45,0,0,1-3.4,0c-.35,0-.52-.3-.74-.48-1.13,0-2.26,0-3.39,0s-2.15-1.09-1.79-2a1.88,1.88,0,0,1,1.28-1.16,2.28,2.28,0,0,1-1.19-.89,1.4,1.4,0,0,1,0-1.4,2.33,2.33,0,0,1,1.09-.84c-.4-.16-.7-.51-1.17-.5-1.65-.06-3.31,0-5,0a2,2,0,0,0,0,.81,16,16,0,0,0,3.25,4.77,15,15,0,0,1,1.26,1.26,20.34,20.34,0,0,1-8.61,1.68A24.47,24.47,0,0,1,58.39,141.45Z" transform="translate(-1.15 -41.76)"/><path id="path3076" class="cls-1" d="M58.91,141.36a24.07,24.07,0,0,0,6.2-6.21c1.58,0,3.17,0,4.75,0a21.55,21.55,0,0,0,1.42,2.68,18.06,18.06,0,0,0,3.13,3.56,20.86,20.86,0,0,1-6.2,1.45A22.17,22.17,0,0,1,58.91,141.36Z" transform="translate(-1.15 -41.76)"/><path id="path3078" class="cls-1" d="M58.91,141.36a24.07,24.07,0,0,0,6.2-6.21c1.58,0,3.17,0,4.75,0a21.55,21.55,0,0,0,1.42,2.68,18.06,18.06,0,0,0,3.13,3.56,20.86,20.86,0,0,1-6.2,1.45A22.17,22.17,0,0,1,58.91,141.36Z" transform="translate(-1.15 -41.76)"/><path id="path3080" class="cls-1" d="M60.65,134.32a1.32,1.32,0,0,1-1.06-1.45,1.29,1.29,0,0,1,1.06-1.22c1.78-.07,3.57,0,5.35,0a16.24,16.24,0,0,0-1.15,2.69C63.45,134.34,62.05,134.39,60.65,134.32Z" transform="translate(-1.15 -41.76)"/><path id="path3082" class="cls-1" d="M60.65,134.32a1.32,1.32,0,0,1-1.06-1.45,1.29,1.29,0,0,1,1.06-1.22c1.78-.07,3.57,0,5.35,0a16.24,16.24,0,0,0-1.15,2.69C63.45,134.34,62.05,134.39,60.65,134.32Z" transform="translate(-1.15 -41.76)"/><path id="path3084" class="cls-1" d="M65.07,134.92a14.91,14.91,0,0,1,1.54-3.85h2.67a11.66,11.66,0,0,1,.72,3.85Z" transform="translate(-1.15 -41.76)"/><path id="path3086" class="cls-1" d="M65.07,134.92a14.91,14.91,0,0,1,1.54-3.85h2.67a11.66,11.66,0,0,1,.72,3.85Z" transform="translate(-1.15 -41.76)"/><path id="path3088" class="cls-1" d="M67.13,130.84a2.54,2.54,0,0,1,.49-1.31.64.64,0,0,1,.94.11,4.93,4.93,0,0,1,.19,1.21Z" transform="translate(-1.15 -41.76)"/><path id="path3090" class="cls-1" d="M67.13,130.84a2.54,2.54,0,0,1,.49-1.31.64.64,0,0,1,.94.11,4.93,4.93,0,0,1,.19,1.21Z" transform="translate(-1.15 -41.76)"/><path id="path3092" class="cls-1" d="M70.35,134.36a12.72,12.72,0,0,0-.58-2.71h5.56a4.59,4.59,0,0,0,0,2.72Z" transform="translate(-1.15 -41.76)"/><path id="path3094" class="cls-1" d="M70.35,134.36a12.72,12.72,0,0,0-.58-2.71h5.56a4.59,4.59,0,0,0,0,2.72Z" transform="translate(-1.15 -41.76)"/><path id="path3096" class="cls-1" d="M75.68,140.52a1.31,1.31,0,0,1,1-2c1.24-.1,2.49,0,3.74,0v2.71c-1.17,0-2.34,0-3.51,0A1.64,1.64,0,0,1,75.68,140.52Z" transform="translate(-1.15 -41.76)"/><path id="path40" class="cls-1" d="M75.68,140.52a1.31,1.31,0,0,1,1-2c1.24-.1,2.49,0,3.74,0v2.71c-1.17,0-2.34,0-3.51,0A1.64,1.64,0,0,1,75.68,140.52Z" transform="translate(-1.15 -41.76)"/><path id="path42" class="cls-1" d="M75.63,137.32a1.31,1.31,0,0,1,1.06-1.88c1.25-.09,2.5,0,3.75,0,0,.91,0,1.81,0,2.72-1,0-2.07,0-3.1,0A1.8,1.8,0,0,1,75.63,137.32Z" transform="translate(-1.15 -41.76)"/><path id="path44" class="cls-1" d="M75.63,137.32a1.31,1.31,0,0,1,1.06-1.88c1.25-.09,2.5,0,3.75,0,0,.91,0,1.81,0,2.72-1,0-2.07,0-3.1,0A1.8,1.8,0,0,1,75.63,137.32Z" transform="translate(-1.15 -41.76)"/><path id="path46" class="cls-1" d="M75.76,134.38c-.37-.34-.25-.83-.29-1.25s-.14-1.06.29-1.47a1.78,1.78,0,0,1,1.44-.61c1.07,0,2.14,0,3.21,0,0,1.31,0,2.62,0,3.93-1.05,0-2.11,0-3.16,0A1.88,1.88,0,0,1,75.76,134.38Z" transform="translate(-1.15 -41.76)"/><path id="path48" class="cls-1" d="M75.76,134.38c-.37-.34-.25-.83-.29-1.25s-.14-1.06.29-1.47a1.78,1.78,0,0,1,1.44-.61c1.07,0,2.14,0,3.21,0,0,1.31,0,2.62,0,3.93-1.05,0-2.11,0-3.16,0A1.88,1.88,0,0,1,75.76,134.38Z" transform="translate(-1.15 -41.76)"/><path id="path50" class="cls-1" d="M76.68,130.61a1.31,1.31,0,0,1-1-2,1.67,1.67,0,0,1,1.44-.67c1.09,0,2.2,0,3.3,0v2.72C79.18,130.63,77.93,130.7,76.68,130.61Z" transform="translate(-1.15 -41.76)"/><path id="path52" class="cls-1" d="M76.68,130.61a1.31,1.31,0,0,1-1-2,1.67,1.67,0,0,1,1.44-.67c1.09,0,2.2,0,3.3,0v2.72C79.18,130.63,77.93,130.7,76.68,130.61Z" transform="translate(-1.15 -41.76)"/><path id="path54" class="cls-1" d="M75.65,126.81a1.31,1.31,0,0,1,1-2c1.24-.09,2.49,0,3.74,0v2.71c-1.17,0-2.34,0-3.5,0A1.66,1.66,0,0,1,75.65,126.81Z" transform="translate(-1.15 -41.76)"/><path id="path56" class="cls-1" d="M75.65,126.81a1.31,1.31,0,0,1,1-2c1.24-.09,2.49,0,3.74,0v2.71c-1.17,0-2.34,0-3.5,0A1.66,1.66,0,0,1,75.65,126.81Z" transform="translate(-1.15 -41.76)"/><path id="path58" class="cls-1" d="M80.77,141.39a20.88,20.88,0,0,1,0-2.24q0-6.94,0-13.88c0-.3,0-.66.23-.89a2.63,2.63,0,0,1,1-.13,21.76,21.76,0,0,1,2.68.07c.51,0,.38.53.42.79l0,15.86c0,.27.09.78-.41.79a21.91,21.91,0,0,1-3.34,0A.53.53,0,0,1,80.77,141.39Z" transform="translate(-1.15 -41.76)"/><path id="path60" class="cls-1" d="M80.77,141.39a20.88,20.88,0,0,1,0-2.24q0-6.94,0-13.88c0-.3,0-.66.23-.89a2.63,2.63,0,0,1,1-.13,21.76,21.76,0,0,1,2.68.07c.51,0,.38.53.42.79l0,15.86c0,.27.09.78-.41.79a21.91,21.91,0,0,1-3.34,0A.53.53,0,0,1,80.77,141.39Z" transform="translate(-1.15 -41.76)"/><path id="path62" class="cls-1" d="M85.41,141.25c0-.9,0-1.81,0-2.71,2.46,0,4.92,0,7.38,0-1.14.8-2.31,1.57-3.44,2.38-.24.13-.44.37-.77.31C87.51,141.29,86.46,141.25,85.41,141.25Z" transform="translate(-1.15 -41.76)"/><path id="path64" class="cls-1" d="M85.41,141.25c0-.9,0-1.81,0-2.71,2.46,0,4.92,0,7.38,0-1.14.8-2.31,1.57-3.44,2.38-.24.13-.44.37-.77.31C87.51,141.29,86.46,141.25,85.41,141.25Z" transform="translate(-1.15 -41.76)"/><path id="path66" class="cls-1" d="M85.4,138.14c0-.91,0-1.81,0-2.72l11.91,0L93.59,138a1.6,1.6,0,0,1-.9.16Z" transform="translate(-1.15 -41.76)"/><path id="path68" class="cls-1" d="M85.4,138.14c0-.91,0-1.81,0-2.72l11.91,0L93.59,138a1.6,1.6,0,0,1-.9.16Z" transform="translate(-1.15 -41.76)"/><path id="path70" class="cls-1" d="M85.39,135v-4c3.78,0,7.56,0,11.34,0a8.63,8.63,0,0,1,1.14,0c1,.61,1.92,1.32,2.89,2l-2.6,1.79c-.34.26-.86.15-1.28.19Z" transform="translate(-1.15 -41.76)"/><path id="path72" class="cls-1" d="M85.39,135v-4c3.78,0,7.56,0,11.34,0a8.63,8.63,0,0,1,1.14,0c1,.61,1.92,1.32,2.89,2l-2.6,1.79c-.34.26-.86.15-1.28.19Z" transform="translate(-1.15 -41.76)"/><path id="path74" class="cls-1" d="M85.38,130.66v-2.72c2.63,0,5.26,0,7.89,0,1.42.81,2.67,1.81,4,2.7Z" transform="translate(-1.15 -41.76)"/><path id="path76" class="cls-1" d="M85.38,130.66v-2.72c2.63,0,5.26,0,7.89,0,1.42.81,2.67,1.81,4,2.7Z" transform="translate(-1.15 -41.76)"/><path id="path78" class="cls-1" d="M85.38,127.55c0-.91,0-1.81,0-2.72,1.14,0,2.28,0,3.42,0,1.36.85,2.62,1.81,4,2.69C90.3,127.57,87.84,127.55,85.38,127.55Z" transform="translate(-1.15 -41.76)"/><path id="path80" class="cls-1" d="M85.38,127.55c0-.91,0-1.81,0-2.72,1.14,0,2.28,0,3.42,0,1.36.85,2.62,1.81,4,2.69C90.3,127.57,87.84,127.55,85.38,127.55Z" transform="translate(-1.15 -41.76)"/><path id="path82" class="cls-1" d="M88.59,141.81c2.24-1.61,4.57-3.14,6.84-4.73q9.15-6.29,18.29-12.57c.25-.21.63-.16,1-.18,2,0,4,0,6,0-1.76,1.29-3.62,2.49-5.41,3.75L96.1,141.31c-.35.21-.64.58-1.13.53C92.84,141.86,90.72,141.84,88.59,141.81Z" transform="translate(-1.15 -41.76)"/><path id="path84" class="cls-1" d="M88.59,141.81c2.24-1.61,4.57-3.14,6.84-4.73q9.15-6.29,18.29-12.57c.25-.21.63-.16,1-.18,2,0,4,0,6,0-1.76,1.29-3.62,2.49-5.41,3.75L96.1,141.31c-.35.21-.64.58-1.13.53C92.84,141.86,90.72,141.84,88.59,141.81Z" transform="translate(-1.15 -41.76)"/><path id="path86" class="cls-1" d="M100.78,132.75c-4.06-2.83-8.16-5.62-12.22-8.46,2.21,0,4.43,0,6.64,0a7.35,7.35,0,0,1,1.19.77q4,2.76,8,5.51c-1,.7-2,1.39-3,2.1C101.2,132.79,100.94,132.94,100.78,132.75Z" transform="translate(-1.15 -41.76)"/><path id="path88" class="cls-1" d="M100.78,132.75c-4.06-2.83-8.16-5.62-12.22-8.46,2.21,0,4.43,0,6.64,0a7.35,7.35,0,0,1,1.19.77q4,2.76,8,5.51c-1,.7-2,1.39-3,2.1C101.2,132.79,100.94,132.94,100.78,132.75Z" transform="translate(-1.15 -41.76)"/><path id="path90" class="cls-1" d="M96.66,141.27c1.3-.89,2.57-1.81,3.91-2.66,1.36-.09,2.73,0,4.09,0s2.73,0,4.09,0c1.35.84,2.6,1.79,3.92,2.68Q104.66,141.32,96.66,141.27Z" transform="translate(-1.15 -41.76)"/><path id="path92" class="cls-1" d="M96.66,141.27c1.3-.89,2.57-1.81,3.91-2.66,1.36-.09,2.73,0,4.09,0s2.73,0,4.09,0c1.35.84,2.6,1.79,3.92,2.68Q104.66,141.32,96.66,141.27Z" transform="translate(-1.15 -41.76)"/><path id="path94" class="cls-1" d="M100.55,127.55c-1.35-.85-2.61-1.79-3.92-2.68,5.33,0,10.67,0,16,0-1.3.89-2.56,1.83-3.9,2.67-1.36.09-2.73,0-4.09,0S101.91,127.64,100.55,127.55Z" transform="translate(-1.15 -41.76)"/><path id="path96" class="cls-1" d="M100.55,127.55c-1.35-.85-2.61-1.79-3.92-2.68,5.33,0,10.67,0,16,0-1.3.89-2.56,1.83-3.9,2.67-1.36.09-2.73,0-4.09,0S101.91,127.64,100.55,127.55Z" transform="translate(-1.15 -41.76)"/><path id="path98" class="cls-1" d="M101.2,138.17c1.12-.82,2.29-1.6,3.45-2.39,1.17.79,2.32,1.6,3.47,2.4C105.81,138.2,103.5,138.19,101.2,138.17Z" transform="translate(-1.15 -41.76)"/><path id="path100" class="cls-1" d="M101.2,138.17c1.12-.82,2.29-1.6,3.45-2.39,1.17.79,2.32,1.6,3.47,2.4C105.81,138.2,103.5,138.19,101.2,138.17Z" transform="translate(-1.15 -41.76)"/><path id="path102" class="cls-1" d="M104.64,130.39c-1.15-.8-2.32-1.58-3.46-2.39,2.3,0,4.61,0,6.92,0C107,128.82,105.82,129.62,104.64,130.39Z" transform="translate(-1.15 -41.76)"/><path id="path104" class="cls-1" d="M104.64,130.39c-1.15-.8-2.32-1.58-3.46-2.39,2.3,0,4.61,0,6.92,0C107,128.82,105.82,129.62,104.64,130.39Z" transform="translate(-1.15 -41.76)"/><path id="path106" class="cls-1" d="M104.92,135.62c1.12-.8,2.23-1.6,3.42-2.33,4.1,2.89,8.29,5.71,12.4,8.59-2.22,0-4.43,0-6.64,0a9.09,9.09,0,0,1-1.42-.92C110.09,139.18,107.53,137.37,104.92,135.62Z" transform="translate(-1.15 -41.76)"/><path id="path108" class="cls-1" d="M104.92,135.62c1.12-.8,2.23-1.6,3.42-2.33,4.1,2.89,8.29,5.71,12.4,8.59-2.22,0-4.43,0-6.64,0a9.09,9.09,0,0,1-1.42-.92C110.09,139.18,107.53,137.37,104.92,135.62Z" transform="translate(-1.15 -41.76)"/><path id="path110" class="cls-1" d="M111.42,135.05c-1-.61-1.91-1.3-2.87-2,.85-.61,1.72-1.2,2.59-1.79.34-.26.85-.15,1.27-.19,3.92,0,7.85,0,11.77,0v4c-3.78,0-7.56,0-11.34,0A13.38,13.38,0,0,1,111.42,135.05Z" transform="translate(-1.15 -41.76)"/><path id="path112" class="cls-1" d="M111.42,135.05c-1-.61-1.91-1.3-2.87-2,.85-.61,1.72-1.2,2.59-1.79.34-.26.85-.15,1.27-.19,3.92,0,7.85,0,11.77,0v4c-3.78,0-7.56,0-11.34,0A13.38,13.38,0,0,1,111.42,135.05Z" transform="translate(-1.15 -41.76)"/><path id="path114" class="cls-1" d="M115.69,138c-1.21-.84-2.44-1.67-3.63-2.52,4,0,8.08,0,12.12,0,0,.9,0,1.81,0,2.71H117C116.55,138.18,116,138.3,115.69,138Z" transform="translate(-1.15 -41.76)"/><path id="path116" class="cls-1" d="M115.69,138c-1.21-.84-2.44-1.67-3.63-2.52,4,0,8.08,0,12.12,0,0,.9,0,1.81,0,2.71H117C116.55,138.18,116,138.3,115.69,138Z" transform="translate(-1.15 -41.76)"/><path id="path118" class="cls-1" d="M112.05,130.72c1.07-.81,2.21-1.54,3.31-2.31.27-.17.52-.42.9-.38,2.64,0,5.27,0,7.91,0,0,.9,0,1.81,0,2.72C120.13,130.74,116.09,130.75,112.05,130.72Z" transform="translate(-1.15 -41.76)"/><path id="path120" class="cls-1" d="M112.05,130.72c1.07-.81,2.21-1.54,3.31-2.31.27-.17.52-.42.9-.38,2.64,0,5.27,0,7.91,0,0,.9,0,1.81,0,2.72C120.13,130.74,116.09,130.75,112.05,130.72Z" transform="translate(-1.15 -41.76)"/><path id="path122" class="cls-1" d="M120.08,141.05l-3.53-2.43c2.55,0,5.09,0,7.64,0,0,.91,0,1.81,0,2.72-1.17,0-2.34,0-3.51,0A1.29,1.29,0,0,1,120.08,141.05Z" transform="translate(-1.15 -41.76)"/><path id="path124" class="cls-1" d="M120.08,141.05l-3.53-2.43c2.55,0,5.09,0,7.64,0,0,.91,0,1.81,0,2.72-1.17,0-2.34,0-3.51,0A1.29,1.29,0,0,1,120.08,141.05Z" transform="translate(-1.15 -41.76)"/><path id="path126" class="cls-1" d="M116.53,127.62c1.13-.8,2.29-1.58,3.43-2.38a1.21,1.21,0,0,1,.83-.32c1.13,0,2.25,0,3.37,0,0,.91,0,1.82,0,2.72C121.62,127.63,119.07,127.64,116.53,127.62Z" transform="translate(-1.15 -41.76)"/><path id="path128" class="cls-1" d="M116.53,127.62c1.13-.8,2.29-1.58,3.43-2.38a1.21,1.21,0,0,1,.83-.32c1.13,0,2.25,0,3.37,0,0,.91,0,1.82,0,2.72C121.62,127.63,119.07,127.64,116.53,127.62Z" transform="translate(-1.15 -41.76)"/><path id="path130" class="cls-1" d="M124.58,141.55a20.88,20.88,0,0,1,0-2.24c0-4.72,0-9.44,0-14.16a.6.6,0,0,1,.42-.74,24.06,24.06,0,0,1,2.55,0,3,3,0,0,1,1.15.13c.3.18.18.53.22.78,0,5.38,0,10.77,0,16.15a.5.5,0,0,1-.52.47c-1,.07-2.08.05-3.12,0C125,141.9,124.63,141.8,124.58,141.55Z" transform="translate(-1.15 -41.76)"/><path id="path132" class="cls-1" d="M124.58,141.55a20.88,20.88,0,0,1,0-2.24c0-4.72,0-9.44,0-14.16a.6.6,0,0,1,.42-.74,24.06,24.06,0,0,1,2.55,0,3,3,0,0,1,1.15.13c.3.18.18.53.22.78,0,5.38,0,10.77,0,16.15a.5.5,0,0,1-.52.47c-1,.07-2.08.05-3.12,0C125,141.9,124.63,141.8,124.58,141.55Z" transform="translate(-1.15 -41.76)"/><path id="path134" class="cls-1" d="M129.22,141.36c0-.91,0-1.81,0-2.72,1,0,2,0,3.07,0a1.33,1.33,0,0,1,1.12,1.89,1.57,1.57,0,0,1-1.43.79C131.05,141.39,130.14,141.36,129.22,141.36Z" transform="translate(-1.15 -41.76)"/><path id="path136" class="cls-1" d="M129.22,141.36c0-.91,0-1.81,0-2.72,1,0,2,0,3.07,0a1.33,1.33,0,0,1,1.12,1.89,1.57,1.57,0,0,1-1.43.79C131.05,141.39,130.14,141.36,129.22,141.36Z" transform="translate(-1.15 -41.76)"/><path id="path138" class="cls-1" d="M129.21,138.25v-2.72c.91,0,1.83,0,2.75,0a1.47,1.47,0,0,1,1.58,1.3c.07.74-.76,1.43-1.65,1.4S130.11,138.25,129.21,138.25Z" transform="translate(-1.15 -41.76)"/><path id="path140" class="cls-1" d="M129.21,138.25v-2.72c.91,0,1.83,0,2.75,0a1.47,1.47,0,0,1,1.58,1.3c.07.74-.76,1.43-1.65,1.4S130.11,138.25,129.21,138.25Z" transform="translate(-1.15 -41.76)"/><path id="path142" class="cls-1" d="M129.21,135.13c0-1.32,0-2.64,0-4,.94,0,1.88,0,2.81,0a1.51,1.51,0,0,1,1.52,1.35c0,.65.21,1.4-.27,2a1.78,1.78,0,0,1-1.44.61C131,135.16,130.08,135.13,129.21,135.13Z" transform="translate(-1.15 -41.76)"/><path id="path144" class="cls-1" d="M129.21,135.13c0-1.32,0-2.64,0-4,.94,0,1.88,0,2.81,0a1.51,1.51,0,0,1,1.52,1.35c0,.65.21,1.4-.27,2a1.78,1.78,0,0,1-1.44.61C131,135.16,130.08,135.13,129.21,135.13Z" transform="translate(-1.15 -41.76)"/><path id="path146" class="cls-1" d="M129.2,130.77c0-.91,0-1.81,0-2.72.94,0,1.88,0,2.82,0s1.54.68,1.51,1.36a1.44,1.44,0,0,1-1.57,1.35C131,130.8,130.12,130.77,129.2,130.77Z" transform="translate(-1.15 -41.76)"/><path id="path148" class="cls-1" d="M129.2,130.77c0-.91,0-1.81,0-2.72.94,0,1.88,0,2.82,0s1.54.68,1.51,1.36a1.44,1.44,0,0,1-1.57,1.35C131,130.8,130.12,130.77,129.2,130.77Z" transform="translate(-1.15 -41.76)"/><path id="path150" class="cls-1" d="M129.19,127.65v-2.71c1,0,2,0,3.06,0a1.38,1.38,0,0,1,1.19,1.78,1.58,1.58,0,0,1-1.5.9C131,127.68,130.11,127.65,129.19,127.65Z" transform="translate(-1.15 -41.76)"/><path id="path152" class="cls-1" d="M129.19,127.65v-2.71c1,0,2,0,3.06,0a1.38,1.38,0,0,1,1.19,1.78,1.58,1.58,0,0,1-1.5.9C131,127.68,130.11,127.65,129.19,127.65Z" transform="translate(-1.15 -41.76)"/><path id="path154" class="cls-1" d="M133.68,134.52a4.29,4.29,0,0,0,0-2.72c1.88,0,3.77,0,5.65,0a1.38,1.38,0,0,1,1.16,1.8,1.35,1.35,0,0,1-1.05.88C137.51,134.58,135.59,134.5,133.68,134.52Z" transform="translate(-1.15 -41.76)"/><path id="path156" class="cls-1" d="M133.68,134.52a4.29,4.29,0,0,0,0-2.72c1.88,0,3.77,0,5.65,0a1.38,1.38,0,0,1,1.16,1.8,1.35,1.35,0,0,1-1.05.88C137.51,134.58,135.59,134.5,133.68,134.52Z" transform="translate(-1.15 -41.76)"/></g><g id="g6569"><path id="path8420" class="cls-2" d="M197.8,61.25c-2.55,3.92-39.81-.31-49.52-1.92l2.63-3C190,59.81,199.57,58.52,197.8,61.25Z" transform="translate(-1.15 -41.76)"/><path id="path8418" class="cls-2" d="M196.78,56.53c-2.76,4-34.64,1.82-39.45,1.13l2-3C191.7,57.68,198.45,54.09,196.78,56.53Z" transform="translate(-1.15 -41.76)"/><path id="path8410" class="cls-2" d="M188.82,56.56c-.11,2.27-27.67.89-31.49.37L159,54.61C177.24,55.54,188.92,54.3,188.82,56.56Z" transform="translate(-1.15 -41.76)"/><path id="path8422" class="cls-2" d="M191.74,64.12c-2.55,3.91-42.43-.68-52.15-2.29l2.64-3C181.32,62.31,193.51,61.39,191.74,64.12Z" transform="translate(-1.15 -41.76)"/><path id="path8408" class="cls-2" d="M156.16,53.83c4.2.2,18-.75,17.82,0-.46,2.82-13.86,3.07-17.47,2.13Z" transform="translate(-1.15 -41.76)"/><path id="path8424" class="cls-2" d="M180.63,67.82C178,71.92,140.86,66.05,131.2,64l2.73-3.17C172.89,66,182.49,65,180.63,67.82Z" transform="translate(-1.15 -41.76)"/><path id="path8426" class="cls-2" d="M169.17,71.19c-2.62,3.7-32,0-34.64-7.49l5.73-2.32C148.53,69.49,171.42,68,169.17,71.19Z" transform="translate(-1.15 -41.76)"/><path id="path8428" class="cls-2" d="M155.13,75.39c-3.43,2.93-23.19-.54-30.58-15.75L128,57.33C135.94,69.58,158.07,72.87,155.13,75.39Z" transform="translate(-1.15 -41.76)"/><path id="path8430" class="cls-2" d="M147.8,78.16C144.37,81.1,127.77,77,121,62.7l3.46-2.32C135,76.06,150.74,75.65,147.8,78.16Z" transform="translate(-1.15 -41.76)"/><path id="path3161" class="cls-2" d="M59.61,68.81s-21.67-.2-27.92.1-11.45.63-11.44,2c0,1.2,5.2,2.72,10,3,8.4.47,32.78.25,32.78.25Z" transform="translate(-1.15 -41.76)"/><path id="path3159" class="cls-2" d="M49.68,63.78S28,63.37,21.76,63.61s-11.45.52-11.45,1.89c0,1.2,5.17,2.77,10,3.08,8.4.55,32.77.57,32.77.57Z" transform="translate(-1.15 -41.76)"/><path id="path3157" class="cls-2" d="M44.81,59.63s-19.44-.41-28.13-.11S5.44,60.65,5.44,62c0,1.2,5.17,2.06,10,2.37,8.4.54,32.78.62,32.78.62Z" transform="translate(-1.15 -41.76)"/><path id="path2184" class="cls-2" d="M40.65,55.37l-23,.22c-7.54,0-16.33.8-16.33,2.16,0,1.2,3.72,1.72,8.49,2,8.4.55,34.24,1,34.24,1Z" transform="translate(-1.15 -41.76)"/><path id="path3169" class="cls-2" d="M57.82,55.87s-6.19-.09-10.7,0S39.19,57,39.37,58.65c.16,1.36,4,2.26,7.47,2.68,6,.75,17.3-.46,17.3-.46Z" transform="translate(-1.15 -41.76)"/><path id="path2182" class="cls-2" d="M33.45,51.94H22.85c-7.54,0-17.3,1-17.3,2.38,0,.48.56,1.48,5.13,1.48H35.46Z" transform="translate(-1.15 -41.76)"/><path id="path3171" class="cls-2" d="M63.51,58.81s-10,1.13-14.49,1.38-7.88,1.42-7.64,3c.2,1.36,4.11,2.12,7.55,2.42,6,.54,17.28-1.07,17.28-1.07Z" transform="translate(-1.15 -41.76)"/><path id="path3173" class="cls-2" d="M65.43,63.51s-9.22.7-13.71,1.08-7.85,1.64-7.56,3.25c.23,1.36,4.17,1.94,7.61,2.21,8.2.65,13.39-1.56,16.86-4.77Z" transform="translate(-1.15 -41.76)"/><path id="path3165" class="cls-2" d="M61.75,72.19s-9.12,1.67-13.56,2.52-7.79,2.5-7.62,3.85c.15,1.2,3.89.93,7.34.77,6.07-.28,16.52-5.11,16.52-5.11Z" transform="translate(-1.15 -41.76)"/><path id="path3163" class="cls-2" d="M56.15,70.09A85.2,85.2,0,0,1,38,73.83c-2.32.13-3.31.47-3.22,1.83.11,1.57,3.77,1.62,7.26,1.32,7.61-.64,16.84-3.83,16.84-3.83Z" transform="translate(-1.15 -41.76)"/><path id="path3175" class="cls-2" d="M69.6,64.29s-5.76,4.34-11.34,4.89c-5.41.53-9.14,1.26-8.86,2.87.24,1.35,4.17,2,7.61,2.2,9.4.6,15.66-2,18.71-5.43Z" transform="translate(-1.15 -41.76)"/><path id="path3167" class="cls-2" d="M71.91,71.82S62.79,74.53,58.52,76s-7.34,3.7-6.68,5.2c.55,1.25,4.52.9,7.91.24,6-1.16,15.09-8,15.09-8Z" transform="translate(-1.15 -41.76)"/><path id="path3177" class="cls-2" d="M74.25,66.34s-3.66,4.78-6.85,5.88-7.63,2-7.34,3.59c.24,1.36,3.17,2.43,6.58,1.93,7.78-1.12,11.5-5,14.54-8.48Z" transform="translate(-1.15 -41.76)"/><path id="path4156" class="cls-2" d="M78.07,72.59S69.63,76.9,65.63,79s-6.86,5.22-5.75,6.4c1,1,6.84-1,10.16-1.9,7.48-2.15,12.66-7.68,11.44-9.33Z" transform="translate(-1.15 -41.76)"/><path id="path4158" class="cls-2" d="M81.47,75.14s-7.13,5-11.14,7.13-6.85,5.22-5.74,6.39c1,1,7.24-.68,10-2.59a42.65,42.65,0,0,0,9.9-9.41Z" transform="translate(-1.15 -41.76)"/><path id="path4160" class="cls-2" d="M83.55,77.45s-5.73,5.84-9.73,8S67,90.63,68.07,91.81c1,1,6.06-1,8.85-2.92A36,36,0,0,0,86.6,79Z" transform="translate(-1.15 -41.76)"/><path id="path3181" class="cls-2" d="M82.9,70.37a25.7,25.7,0,0,1-4.47,5.84c-2.31,2-5.62,4.35-5.34,6,.24,1.36,2.37,2,4.69.83,4.7-2.27,8-6.6,9.89-10.14Z" transform="translate(-1.15 -41.76)"/><path id="path4162" class="cls-2" d="M85.58,79.44a46.94,46.94,0,0,1-8.78,8.75c-4.64,3.24-6.09,6.1-5,7.28,1,1,5.34-.92,8-3.11A36.85,36.85,0,0,0,88.63,81Z" transform="translate(-1.15 -41.76)"/><path id="path3183" class="cls-2" d="M85.37,73.15a21.19,21.19,0,0,1-3.64,6.34c-2.13,2.25-4.51,4.59-4.08,6.17.36,1.33,1.29,2.49,3.77.54a29.29,29.29,0,0,0,8.93-11Z" transform="translate(-1.15 -41.76)"/><path id="path4164" class="cls-2" d="M87.67,79s-3.35,7.57-6.3,11.2-4.32,6.1-3.21,7.28c1,1,4.61-.46,6.36-3.52A57.16,57.16,0,0,0,90,80.22Z" transform="translate(-1.15 -41.76)"/><path id="path8142" class="cls-2" d="M112.3,103.77c1,4.52,3.89,12,6.55,15.48a1.47,1.47,0,0,1,1.21.68s.59.61.86.35a3.2,3.2,0,0,1,2.72-.6,1.65,1.65,0,0,1,1.06,0,2,2,0,0,1,1.27,1.09l-.38,1.1a2.19,2.19,0,0,1-1,.27c-.43,0-.24-.45-.72-.42s-.74.5-1.31.39-.95-.23-1.18-.71l-3.5-.23.18.72a8,8,0,0,1,1.3.24c.5.16,0,.21.69.4a6.84,6.84,0,0,0,2.23.38c1.12,0,1,.71,1.71.93s.64-.39,1.18-.07a3.47,3.47,0,0,1,1,1.35l-.36,1.08a2.13,2.13,0,0,1-1.65,0c-.76-.4-.78-1.42-1.36-1.59s-1,1-2,.58-1.08-1.72-1.81-2.27a.72.72,0,0,0-1.13.24l1.07,2a.93.93,0,0,1,.93.19c.45.39.5,1,.91,1.29s.9.09,1.37.55a2.23,2.23,0,0,1,.45,1.38l-1.06,1s-1.54.44-2.12-.37c-.4-.55.84-.84.51-1.26s-1.24,0-1.74-.54.23-1-.24-1.56-1.48.35-1.75-.38c-.21-.57.19-1.74-.06-2.17,0,0-2.13,1.21-3.21,1.13s-.08-1.17-1.11-1.44-2,.6-3.07.28a1.67,1.67,0,0,1-1-1.54l.09-.9a5.23,5.23,0,0,1,2.48-.3c1,.27.7,1.08,1.34,1.35s.44-.39,1.21-.26,2.31-1.1,2.31-1.1l.81-1.35a102.59,102.59,0,0,1-5.37-13.58Z" transform="translate(-1.15 -41.76)"/><path id="path6401" class="cls-2" d="M92.14,104.55c-1,4.53-4.66,10.62-7.32,14-.5,0-1.35.61-1.79.87-1,.57-2.19,1.07-2.45.81a3.22,3.22,0,0,0-2.73-.6,1.62,1.62,0,0,0-1,0,2,2,0,0,0-1.28,1.09l.39,1.1a2.15,2.15,0,0,0,1,.27c.42,0,.23-.45.71-.42s.74.5,1.31.39,1-.23,1.19-.71l3.49-.23-.18.72a8,8,0,0,0-1.3.24c-.49.16,0,.21-.68.4a6.85,6.85,0,0,1-2.24.38c-1.12,0-.22,1.17-.94,1.39s-.64-.39-1.18-.07-.45,1.87-.45,1.87l.35,1.08a3.84,3.84,0,0,0,1.6-.38c.75-.4.32-1.55.9-1.72s.28.54,1.23.12,1.08-1.72,1.81-2.27a5.13,5.13,0,0,0,4.28-2.06c1.08-.08,2.44,1.06,3.34,1.64,1.23.77,1,1.27,1.93,1.85s2-.76,2-.76l.1-1.1s-1.52-2.71-2.47-2.45-.45.61-1.09.89-.44-.4-1.21-.26l-1.65-2.12c2.33-5,5.31-9.13,6.13-12.14Z" transform="translate(-1.15 -41.76)"/><path id="path4170" class="cls-2" d="M92.36,92s-.75,8.17-2.53,12.95c-.79,2.14-2.94,5.44-2.54,6.21s4.35-3.43,4.35-3.43.17,5.94,1.08,5.83c.72-.08,1.76-1.73,2.53-5.22,1.2-5.33,1.54-13.52,1.68-15.28Z" transform="translate(-1.15 -41.76)"/><path id="path4168" class="cls-2" d="M93.36,92.84l-4.44-3.7c-2.12,4.78-3.63,9.79-3.16,14.58.16,1.65,2.71,0,3.16-1.35,0,0,.93,1.62,2-.55S93.36,92.84,93.36,92.84Z" transform="translate(-1.15 -41.76)"/><path id="path8164" class="cls-2" d="M117.89,123.22a1.58,1.58,0,0,1-.25-.85" transform="translate(-1.15 -41.76)"/><path id="path8166" class="cls-2" d="M125.75,120.68c1.17.9,1.91,1.93,1.15,3.37.2-1.43-.25-2.07-1.5-2.37A.75.75,0,0,1,125.75,120.68Z" transform="translate(-1.15 -41.76)"/><path id="path8168" class="cls-2" d="M125.79,124.91A1.4,1.4,0,0,1,127,127c0-.74-.38-1.59-1.59-1.16A.87.87,0,0,1,125.79,124.91Z" transform="translate(-1.15 -41.76)"/><path id="path8170" class="cls-2" d="M122.18,128.34a2.4,2.4,0,0,1-.6,3.23,1.83,1.83,0,0,0-.23-2.42A1.12,1.12,0,0,1,122.18,128.34Z" transform="translate(-1.15 -41.76)"/><path id="path8172" class="cls-2" d="M108.1,121a1.28,1.28,0,0,0-1.59,1.87c0-.86.86-1.7,1.47-1.15Z" transform="translate(-1.15 -41.76)"/><path id="path6405" class="cls-2" d="M75.75,120.68c-1.17.9-1.91,1.93-1.16,3.37-.2-1.43.25-2.07,1.51-2.37A.75.75,0,0,0,75.75,120.68Z" transform="translate(-1.15 -41.76)"/><path id="path6409" class="cls-2" d="M76.82,125.79a2.4,2.4,0,0,0,.6,3.23,1.83,1.83,0,0,1,.23-2.42A1.12,1.12,0,0,0,76.82,125.79Z" transform="translate(-1.15 -41.76)"/><path id="path6411" class="cls-2" d="M93.56,122.67c1.51-.09,2.42,2,.83,2.66.46-.87,0-2.12-1.12-1.88Z" transform="translate(-1.15 -41.76)"/><path id="path3179" class="cls-2" d="M80.14,67.44s-3.81,5.46-6.68,7.27c-2.6,1.64-6.71,3-6.43,4.64.24,1.36,1.82,1.85,4.53,1.27,5.15-1.12,10.63-6.93,12.49-10.47Z" transform="translate(-1.15 -41.76)"/><path id="path2161" class="cls-2" d="M27,52l17.44,0c9,0,16.94,2.39,21.76,6.14,7.88,6.15,11.35,7,17.87,6.38l.07,4s-1.26,3-2.14,2.82-1.54-2.92-1.54-2.92-1.16,2.93-2,2.84S77,68,77,68s-1.24,3-2.31,2.65-1.91-3.68-1.91-3.68-1.63,2.43-3,2.19-2.45-3.91-2.45-3.91-3,1.41-4,.16-.08-5.17-.08-5.17-2.2,2.14-4,1.41-3.14-4.3-3.14-4.3a18.35,18.35,0,0,1-5.79.55c-1.16-.12-1.42-1.5-1.42-1.5a36,36,0,0,0-6.86.33c-2.69.53-2.68,1.5-5.39,1.34-3.59-.22-3.84-3-3.84-3C29.37,55.05,27.63,53.25,27,52Z" transform="translate(-1.15 -41.76)"/><path id="path4166" class="cls-2" d="M82.68,59.89a4.44,4.44,0,0,1,1.54,3.33c0,3.89-1.81,7-1.81,12.22A19.27,19.27,0,0,0,86.12,87.1c2.32,3.39,8.1,7.86,12,9.35a5.47,5.47,0,0,0,1.45,4.91,11.45,11.45,0,0,0,3.26,9.34l.63-3.51a11.2,11.2,0,0,0,3.21,3,1.16,1.16,0,0,0,1-.6,10.57,10.57,0,0,0,3,3c1.57-2.31.92-4.62.27-6.94,1.5,3.39,4.59,5.31,7.33,6.57,1.32-2.25-.09-4.59-1.45-6.75,1.72.46,3.5-.56,2.19-3.28-1.06-2.22-4.5-8.15-4.5-8.15L120,90l-6.58-19.23-9.27-4.57a9.4,9.4,0,0,1-7.33-3.61c.2-.44,1-.73,2.31-.92-3.7-2.65-2.28-4.83-5.48-7.52Z" transform="translate(-1.15 -41.76)"/><path id="path8432" class="cls-2" d="M143.54,82.7c-3.42,2.93-20-1.19-26.77-15.47L121,63.81C131.51,79.48,146.49,80.18,143.54,82.7Z" transform="translate(-1.15 -41.76)"/><path id="path8404" class="cls-2" d="M111.09,89.79c1.27,2.49,7.14,9,8.78,7.31,1-1.06-.82-5.93-.82-5.93" transform="translate(-1.15 -41.76)"/><path id="path8434" class="cls-2" d="M137.3,87.42c-2.28,2.26-17.4-2.67-24.15-17l3.36-3C129.52,83.18,139.41,85.33,137.3,87.42Z" transform="translate(-1.15 -41.76)"/><path id="path8406" class="cls-2" d="M113.53,86.64C118,92.71,125.12,96,126.29,95s-.7-4.07-4.25-7.87a86.27,86.27,0,0,0-9.19-8l-2.57,4.42A18.17,18.17,0,0,1,113.53,86.64Z" transform="translate(-1.15 -41.76)"/><path id="path8436" class="cls-2" d="M131.22,91.28c-2.58,1.89-16.9-5-21.72-20.1l3.73-2.57C124.05,86,134,89.21,131.22,91.28Z" transform="translate(-1.15 -41.76)"/><path id="path7385" class="cls-2" d="M83.12,72.19s2,3.52,2.88,3.14.51-4.64.51-4.64,1.87,2.08,2.62,1.37.39-4.19.39-4.19,1.75,2.34,2.3,1.9-.13-3.66-.13-3.66,2,1.57,2.88.85.64-3.73.64-3.73c.83.44,1.66,1.13,2.5.59" transform="translate(-1.15 -41.76)"/><path id="path7387" class="cls-2" d="M83.12,77.69s1.56,3.09,2.17,3,.26-3.34.26-3.34,2.13,2.31,2.81,1.84-.06-3.74-.06-3.74,1.31,2.46,2.11,1.9,1.09-4.12,1.09-4.12,2,2.22,2.75,2,.32-2.82.32-2.82,1.3.82,1.54.27-.58-2.49-.58-2.49,2,1.83,2.56,1.18-.38-3.8-.38-3.8,2,1.7,2.81,1.18.32-3.27.32-3.27" transform="translate(-1.15 -41.76)"/><path id="path7389" class="cls-2" d="M83.53,82s2.15,2.31,3.11,2.06,1-3.07,1-3.07,1.88,2,2.75,1.44.7-3.67.7-3.67,1.31,2.85,2.18,2.49,1.28-3.93,1.28-3.93,1.55,2.15,2.94,2h0" transform="translate(-1.15 -41.76)"/><path id="path7391" class="cls-2" d="M100.58,77.36s1.78,2.46,2.44,1.9.19-4.12.19-4.12" transform="translate(-1.15 -41.76)"/><path id="path7393" class="cls-2" d="M85.32,85.67c.45.46,1,1.77,1.76,1.71s.9-1.9.9-1.9,1.1,1.77,1.73,1.5.77-2.55.77-2.55,1.47,2,2.3,1.77,1-2.88,1-2.88,1.7,2.42,2.43,2,.52-3.6.52-3.6" transform="translate(-1.15 -41.76)"/><path id="path7395" class="cls-2" d="M89.32,89.41s1.79,2.17,2.18,2-.64-2.82-.64-2.82,2,2.16,3.07,1.77S95.27,87,95.27,87s1.33,2.38,2,2,.83-3.4.83-3.4,1.75,2.21,2.56,1.7.71-3.73.71-3.73" transform="translate(-1.15 -41.76)"/><path id="path7397" class="cls-2" d="M92.46,92.55c.64.46,1.82,1.52,2.56,1.24s.38-2.36.38-2.36,2.24,1.92,3.07,1.64.26-2.75.26-2.75,2.06,2.06,2.94,1.57.58-3.53.58-3.53,2.14,2.21,3.07,1.83.64-3.34.64-3.34" transform="translate(-1.15 -41.76)"/><path id="path7399" class="cls-2" d="M96.75,95.23c.38.13,2.2,1,3,.65s.19-2,.19-2,1.94,1.52,2.69,1.18.32-2.55.32-2.55,2.29,2,3.14,1.5.25-3.34.25-3.34" transform="translate(-1.15 -41.76)"/><path id="path7401" class="cls-2" d="M98.31,99.32c.35,1.08,1.89,2.47,2.66,2.19s.32-3.27.32-3.27,1.87,2.21,2.69,2,.57-2.75.57-2.75,1.79,1,2.3.52-.25-2.22-.25-2.22" transform="translate(-1.15 -41.76)"/><path id="path7403" class="cls-2" d="M104.1,100.27a30.84,30.84,0,0,0,3.52,9.2" transform="translate(-1.15 -41.76)"/><path id="path7405" class="cls-2" d="M101,101.51a15.9,15.9,0,0,0,2.53,5.66" transform="translate(-1.15 -41.76)"/><path id="path7407" class="cls-2" d="M84.65,63.68c.32.46.79,2.88,1.54,2.75s1.47-3.27,1.47-3.27,1,2.27,1.41,1.9.25-3.4.25-3.4.87,1.32,1.35,1,.57-2.36.57-2.36" transform="translate(-1.15 -41.76)"/><path id="path7409" class="cls-2" d="M78,51.58c-5.26,0-8.24.82-6.21,3.73.48-2.68,4-1.5,8.13-1,.61,1,1.34,1.75,1,2.75-3.33-.19-4.58.49-5.12,1.57a9,9,0,0,1,5.82.4,5.85,5.85,0,0,1,2.5,2.75s2,.72,2.56-.2-.32-3.47-.32-3.47,1.58,1.78,2.24,1.57.38-2.42.38-2.42,2.77,2.55,3.52,2.29S92,56.22,92,56.22s2,1.8,2.75,1.64.25-2.29.25-2.29a5.92,5.92,0,0,0-2.88-2.36l1.41-.46A7.49,7.49,0,0,0,88,50.46a2.45,2.45,0,0,0,1.35-2.09,24.63,24.63,0,0,1-8.9,1.11A2.34,2.34,0,0,0,78,51.58Z" transform="translate(-1.15 -41.76)"/><path id="path7411" class="cls-2" d="M79.92,52s-.15-.79.89-.85,2.21.57,3.27.59,1-.53,1-.53" transform="translate(-1.15 -41.76)"/><path id="path7413" class="cls-1" d="M82,52.3a.83.83,0,1,1-1.66,0h0a.85.85,0,0,1,.83-.86.84.84,0,0,1,.83.85Z" transform="translate(-1.15 -41.76)"/><path id="path8384" class="cls-2" d="M73.26,53.15c1-.44,3.9,0,6.34.19" transform="translate(-1.15 -41.76)"/><path id="path8402" class="cls-2" d="M106.11,83.58c.46.37,6.67,4.17,7.51,3,1.27-1.81-2.08-5-2.08-5" transform="translate(-1.15 -41.76)"/><path id="path8400" class="cls-2" d="M103.76,77.75s7.67,5.83,9.86,4.45c1.59-1-.63-5.19-.63-5.19" transform="translate(-1.15 -41.76)"/><path id="path8388" class="cls-2" d="M108.29,75.07s7.81,5.88,9.86,4.26c.58-.46.57-1.5.35-2.6-.35-1.74-8.35-10.12-8.35-10.12" transform="translate(-1.15 -41.76)"/><path id="path8390" class="cls-2" d="M108,69.24c3.35,3,14.62,10.46,16.74,7.49.56-.78-2.1-4.38-3.53-6.1S115.55,65,115.55,65l-7.54.91" transform="translate(-1.15 -41.76)"/><path id="path8392" class="cls-2" d="M115.07,67.76s13.46,8.29,15.2,6c.75-1-.89-4-2.05-5.92-.57-.92-4.73-6.67-4.73-6.67" transform="translate(-1.15 -41.76)"/><path id="path8394" class="cls-2" d="M121.23,65.26s12.72,7,15.11,4c.93-1.17-.45-3.31-1.6-4.75-.69-.85-6.46-8.49-6.46-8.49" transform="translate(-1.15 -41.76)"/><path id="path8396" class="cls-2" d="M125.75,61.09s17.66,7,19.64,4.17c1.35-2-8.24-6.76-10.23-12.22" transform="translate(-1.15 -41.76)"/><path id="path8398" class="cls-2" d="M129.1,56.46s22.16,8.95,25.15,4c1.33-2.19-8.32-7.77-8.32-7.77" transform="translate(-1.15 -41.76)"/><path id="path8386" class="cls-2" d="M100.73,65.53a10.4,10.4,0,0,0,3.12.47c8.34,0,11.68-2.87,16.83-7.78,6.79-6.45,13-7.68,17.65-7.68,6.38,0,8,2,18.64,2,.15.87.93,1.32,2.53,1.2,0,0,1,2.41-.36,3.33-1.79,1.2-7.69-.37-7.69-.37s.22,1.39-1.45,1.3a23,23,0,0,1-5.25-1.67s-.13,1.76-1.27,1.3-3.25-3.15-3.25-3.15-.45,2.68-2.17,2.78-4.71-2.41-4.71-2.41.18,2.22-.9,3-3.44,0-3.44,0,1.22,1.71.36,2-3.8-.74-3.8-.74.86,2.68.36,3.52-2.35-.19-2.35-.19,1,3.15-1.18,4-7.69-.65-7.69-.65,3.05,2.66,1.09,3.06c-4.34.88-7.6-2.69-7.6-2.69s3.29,2.65.54,3.71c-.6.22-2.35-1.86-2.35-1.86s-.55,2.32-2,2.23-3.8-2.6-3.8-2.6Z" transform="translate(-1.15 -41.76)"/></g><g id="g4"><g id="g8"><path id="path10" class="cls-1" d="M134.21,110.42c-3.12.84-6.45,1.11-9.48,2.16,5.13-4.45,4.84-11.32,8.27-16.55a52.73,52.73,0,0,1,3.26-4.45c-2.08,4.22-1.18,9.7-3.57,13.79a17.72,17.72,0,0,1-3.7,4.48c.48,0,.89-.43,1.31-.71,3.89-3.92,9-5,13.17-8.19a12.79,12.79,0,0,0,4-5c-.8,6.49-7.2,12.58-13.23,14.52Z" transform="translate(-1.15 -41.76)"/><path id="path12" class="cls-1" d="M148.22,84.11c-1.91,2.74-4.21,5.28-6,8.06.19-2.2.45-4.91-.4-7a61.13,61.13,0,0,1-3.18-14l.06-1.88c1.11,5,6,8.48,5.69,14.12a12.55,12.55,0,0,1-.56,3.73l.08.09.22-.25c.73-2.77,1.09-5.68,2.22-8.26,1.61-3.71,3.61-7.46,2.79-11.94,2.44,5.29,1.7,12.35-1,17.28Z" transform="translate(-1.15 -41.76)"/><path id="path14" class="cls-1" d="M145.21,55.64a17.29,17.29,0,0,1,1.58,16.41A28.65,28.65,0,0,0,145,78.82c-.16-.41-.2-1-.35-1.41-1.27-4.93-5.89-8.44-7.78-13.09a22.84,22.84,0,0,1-1.4-4.73c2,3.78,7,5.74,8.38,9.91.56,1.06.53,2.38.88,3.51a.13.13,0,0,0,.14-.13,48.65,48.65,0,0,1,.16-13c0-2.3-.25-4.53-1.52-6.31.81.48,1.18,1.39,1.74,2.11Z" transform="translate(-1.15 -41.76)"/><path id="path16" class="cls-1" d="M143,54.79c.85,3.85-.39,7.59.39,11.47l0,0c-2.07-4.11-6.47-6.06-9.5-9.35a13.25,13.25,0,0,1-2.95-6.85c1.73,4.22,6.41,5.15,9.1,8.7a11.65,11.65,0,0,1,1.77,2.89l.09-.09c-1.54-3.33-2.06-7.08-3.14-10.63a8.23,8.23,0,0,0-3-4c3.52.73,6.58,4.44,7.31,7.84Z" transform="translate(-1.15 -41.76)"/><path id="path18" class="cls-1" d="M133.52,46c2.66,2.4,3.86,5.5,4.64,8.72l.44,1a38.13,38.13,0,0,1-9.82-10.53l-3-3.07c2.64,1.13,5.49,1.81,7.75,3.86Z" transform="translate(-1.15 -41.76)"/><path id="path20" class="cls-1" d="M72.65,42.63C70,45,68.13,48,66.16,50.75c-1.78,2.22-4,3.68-6,5.58,1.08-2.27,1.12-5,2.66-7.06C65,45.41,69,44.05,72.65,42.63Z" transform="translate(-1.15 -41.76)"/><path id="path22" class="cls-1" d="M58.07,50.84a9,9,0,0,1,4.79-3.23c-3.59,2.49-3.35,7-4.49,10.66-.37,1.37-1,2.63-1.31,4l.09.07a12.58,12.58,0,0,1,3-4.39c2.55-2.37,6.32-3.85,7.57-7.37-.06,4.89-4.09,8.73-8,11.47a16.49,16.49,0,0,0-4,4.83c-.09-1.23.18-2.47.09-3.79-.42-4.26-.72-9.13,2.26-12.29Z" transform="translate(-1.15 -41.76)"/><path id="path24" class="cls-1" d="M50.81,65.42C50.7,61.1,52.48,57.57,55,54.35c.07,0,.13-.11.22-.09-2.76,4.23-.48,9.56-.6,14.36l-.37,4.92c.06,0,.06.19.19.13.16-.55.19-1.13.3-1.7.65-4,4.07-6.79,7.05-9.53a7.85,7.85,0,0,0,1.53-2.29A21.06,21.06,0,0,1,61.63,66c-2.32,4.57-6.61,8.32-7.4,13.56-.38-5-3.76-8.77-3.42-14.09Z" transform="translate(-1.15 -41.76)"/><path id="path26" class="cls-1" d="M48.73,71.57a19.18,19.18,0,0,1,1.12-4c-1.1,5.71,2.7,9.83,3.95,14.78.53,1.85.65,3.84,1.4,5.58.07,0,.13,0,.17-.09-1.86-5.26.83-10.15,3.52-14.27a13.51,13.51,0,0,0,1.36-3.64c.29,2.38-.31,5.12-.65,7.59C59,80.68,58,83.66,57.11,86.71A14.54,14.54,0,0,0,57,92.77l-.27-.22c-2-3.68-5.89-6.55-7-10.57a22.53,22.53,0,0,1-.94-10.41Z" transform="translate(-1.15 -41.76)"/><path id="path28" class="cls-1" d="M48.55,82.73C49,88.78,55.43,92,58.42,97a16.24,16.24,0,0,0,2.27,3c-.15-.64-.75-1.19-1-1.85A13.25,13.25,0,0,1,58.55,91c.29-3.09,1.57-6,1.08-9.21,2.63,5.72,1.83,12.86,3.3,19,.39,1.36,1.16,2.57,1.67,3.86-5.4-3.71-12.76-7.24-15.15-14a17.12,17.12,0,0,1-.9-7.94Z" transform="translate(-1.15 -41.76)"/><path id="path30" class="cls-1" d="M51.77,96.63c3,6.87,10.55,7.44,15.6,11.63a12.34,12.34,0,0,0,2.95,2l.06-.05a17.67,17.67,0,0,1-3.32-3.64c-3-4.15-1.91-10-4.13-14.43A33.51,33.51,0,0,1,68,99.88c1.81,4.51,2.5,9.59,6.68,13-4.52-1.51-9.83-1.09-13.82-3.9-4.37-2.71-8.26-7.3-9.08-12.35Z" transform="translate(-1.15 -41.76)"/><path id="path32" class="cls-1" d="M59.51,109.45c4.82,5.54,12.7,3.7,19.13,5.15a9.06,9.06,0,0,0,2.7.34c-.76-.49-1.83-.44-2.66-.88-5-1.79-5.78-7.3-8.52-11,3.5,2.34,6.44,5.5,9.66,8.56a16.74,16.74,0,0,0,8,3.6c-.7.26-1.63.19-2.39.39-5.27,1.31-11.14,3.45-16.74,1.54a16.33,16.33,0,0,1-9.22-7.69Z" transform="translate(-1.15 -41.76)"/><path id="path34" class="cls-1" d="M125,122.37c-5.43,2-11.11-.1-15.35-3.35-1.72-1.1-3.24-2.69-5.46-2.55a7.85,7.85,0,0,0-2.27.23,41.87,41.87,0,0,1,11.46,8,17.26,17.26,0,0,1-2.08,1.91c-3.37-3.67-7.11-7.21-11.3-9.28a7.32,7.32,0,0,0-2.34,1,35,35,0,0,0-9.31,8.4L86.16,125a39.73,39.73,0,0,1,11.52-8.29c-4.13-1.32-6.82,2.17-10,4-3.66,2.58-8.91,3.79-13.33,2a14.49,14.49,0,0,1-6.4-4.43c3.48,2.42,8.66,2.68,12.61,1.1,5.3-2.32,10.82-5.26,17.21-3.86,1,0,2,1,2.91.17A20.27,20.27,0,0,1,115,117.41l4.22,1.7a13.87,13.87,0,0,0,12.35-1.35,14.83,14.83,0,0,1-6.53,4.61Z" transform="translate(-1.15 -41.76)"/><path id="path36" class="cls-1" d="M130.82,116.7c-6.1,2.32-12.25-.53-18.09-1.49l-1.13-.14v0c2.8-.64,5.51-1.48,7.74-3.51,3.28-3.18,6.19-6.46,9.83-9-2.7,3.49-3,8.47-7.44,10.71-1.11.73-2.5.86-3.64,1.41,1.63,0,3.11-.55,4.72-.71,6-1,12.83,0,17-5.12-1.56,3.58-5.46,6.58-9,7.85Z" transform="translate(-1.15 -41.76)"/><path id="path38" class="cls-1" d="M141.91,99.35c-2.41,1.6-4.85,3.07-7.17,4.89V104c3.55-6,1.82-14.13,4-20.68l.82-2.2c-.46,4.08,1.3,7.54,1.17,11.64a13.11,13.11,0,0,1-2.21,6.64h.22c1.74-2.3,3.1-4.75,5.13-7,3.15-3.07,6.36-6.22,6.77-10.48,1.07,7.11-2.88,13.35-8.73,17.37Z" transform="translate(-1.15 -41.76)"/></g></g></svg>