<svg xmlns="http://www.w3.org/2000/svg" viewBox="0 0 149 196.17"><g id="Layer_8" data-name="Layer 8"><path d="M78.57,198.5s-3.35-23.44-10-31.81S48.44,143.25,43.42,139.9,35,124.83,35,124.83L25,108.09a16.67,16.67,0,0,1,1.67-6.69c1.68-3.35,0-10.05,0-10.05s0-8.37,1.68-10,6.69,0,8.37,3.34,5,10,5,13.4v6.69l10,11.72s10,0,13.39-3.35,8.37-11.71,8.37-21.76S71.88,69.59,70.2,64.56s-5-13.39-6.69-21.76l-1.68-8.37s-1.67-11.72-1.67-16.74,0-6.7,3.35-8.37,6.69,0,8.37,5,5,16.74,5,18.41,3.35,13.4,5,16.75,3.35,13.39,5,16.74,1.68,8.37,5,8.37,8.37,3.35,8.37-6.7A231.8,231.8,0,0,1,102,44.47s1.68-10,3.35-15.06,0-16.74,3.35-18.42,8.37-3.35,10,1.68,1.68,13.39,1.68,15.06V39.45c0,3.35-1.68,13.39-3.35,20.09s-3.35,15.07-1.68,16.74,1.68,3.35,5-1.67,8.37-18.42,10-21.77,6.7-15.06,6.7-21.76,3.35-10,5-10,5-1.68,6.7,3.34c0,0,1.67,8.37,0,13.4s-5,20.09-5,21.76-3.35,10.05-5,13.39-5,13.4-5,15.07,0,6.7,5,3.35S150.56,83,150.56,83s8.37-10,8.37-11.72,6.7-18.42,10-18.42,5,1.68,5,5,0,8.37-1.67,11.72S165.63,86.33,164,88s-15.07,16.74-16.75,18.42-1.67,6.69-3.34,8.37c0,0-1.68,5-3.35,6.7s-3.35,26.78-6.7,35.15-5,18.42-5,20.09-1.68,21.77-1.68,21.77Z" transform="translate(-25 -2.33)"/><polygon points="2.22 82.05 5.02 72.28 7.63 78.81 2.22 82.05"/><path d="M60.27,13.77c-.11.57-1.79-9.48-.11-11.15S67.84,7,69,9.81,60.27,13.77,60.27,13.77Z" transform="translate(-25 -2.33)"/><path d="M108.71,11a23.76,23.76,0,0,1,3.35-5c1.67-1.68,7.36,2.26,7,7.83S108.71,11,108.71,11Z" transform="translate(-25 -2.33)"/><path d="M140,22.41a46,46,0,0,1,3.85-4.72c1.67-1.68,3.63.2,4.32,5.12S140,22.41,140,22.41Z" transform="translate(-25 -2.33)"/><path d="M169,52.84s1.67-3.34,3.35-3.34S174,57.87,174,57.87Z" transform="translate(-25 -2.33)"/></g></svg>