<svg xmlns="http://www.w3.org/2000/svg" viewBox="0 0 200.43 174.54"><g id="machado"><path d="M178.58,53.58l-2.22-4.31-6.65,3.43a25.61,25.61,0,0,1-.17,2.63c-.07.51-.17,1-.28,1.51a34.76,34.76,0,0,1,2.64,5.63l.14-.07a66.58,66.58,0,0,1-116.7,63l0,0c-.55-.79-1.08-1.59-1.59-2.38-1.23-1.92-2.35-3.9-3.48-5.88L42,121.77,44.37,126A76.26,76.26,0,0,0,178.58,53.58Z" transform="translate(0.43 -12.28)"/><rect x="26.21" y="121.41" width="16.3" height="64.65" transform="translate(136.95 21.54) rotate(53.02)"/><path d="M174.64,69.66s-14.2-42.85-48.09-57.38c0,0,37.46,5,55.05,47.91Z" transform="translate(0.43 -12.28)"/><path d="M48.41,132.76,37,135.37s1.36,14.83,15.34,19.44l7.23-10.1Z" transform="translate(0.43 -12.28)"/><circle cx="8.91" cy="160.45" r="8.91"/><polygon points="3.45 153.41 21.94 140.94 31.69 153.52 14.73 167.2 3.45 153.41"/></g><g id="Layer_5" data-name="Layer 5"><path d="M164,167.77l.05.07,35.92,19-19.15-36.24c-.35-.25-.7-.5-1.06-.74s-.61-.39-.92-.56l-.23-.12-.08,0-.08,0h0L162.3,165.24a7.59,7.59,0,0,1,.54,1.46C163.24,167.05,163.66,167.39,164,167.77Z" transform="translate(0.43 -12.28)"/><rect x="125.22" y="74.9" width="24.08" height="98.37" transform="translate(-47.1 121.12) rotate(-45)"/><rect x="96.27" y="57.24" width="7.57" height="59.27" transform="translate(91.17 -57.59) rotate(45)"/><rect x="76.77" y="47.67" width="10.81" height="44.04" transform="translate(-24.78 66.24) rotate(-45)"/><circle cx="63.92" cy="38.65" r="10.09"/></g></svg>