<svg id="Layer_9" data-name="Layer 9" xmlns="http://www.w3.org/2000/svg" viewBox="0 0 196.07 166.44"><g id="g3320"><path d="M17.75,118.87l.5.42c-.55-3.78-.84-7.9.25-11.52,1.64-5.8,3.7-11.44,4.75-17.45.85-4.67,1.81-9.92,1.27-14.42a23.45,23.45,0,0,1-2.61,6.93C16.82,90.7,11.61,100,15.18,110c-.08.12-.21.25-.34.17-1.43-3.33-1.76-7.07-2.69-10.6C9.67,90.15,2.48,82.29,4.58,71.44A35.7,35.7,0,0,0,2.44,79c-1.26,6.64,0,13.66,1.81,19.8C6.48,106.43,13.92,111.89,17.75,118.87Z" transform="translate(-1.93 -17.19)"/><path d="M15.81,70.18A25.84,25.84,0,0,1,23.51,61c7.23-5.47,15.14-12.53,15.26-21.78-2.44,6.64-9.71,9.42-14.55,14a22.5,22.5,0,0,0-5.68,8.32l-.16-.12c.59-2.69,1.72-5.09,2.52-7.7,2.1-7.06,1.72-15.51,8.62-20.26-3.53.92-6.52,3.19-9.17,6.13h0C14.76,45.75,15.26,54.87,16,62.94A32,32,0,0,1,15.81,70.18Z" transform="translate(-1.93 -17.19)"/><path d="M24.22,50c3.87-3.62,8.33-6.31,11.61-10.6,3.91-5.17,7.31-11,12.44-15.43-6.93,2.69-14.42,5.46-18.92,12.61C26.7,40.78,26.28,45.7,24.22,50Z" transform="translate(-1.93 -17.19)"/><path d="M27.12,68.33a34.71,34.71,0,0,0,3.2-11,11.87,11.87,0,0,1-2.94,4.33C21.74,67,15.14,72.2,13.88,79.76A28.49,28.49,0,0,1,13.29,83c-.25.13-.25-.17-.34-.25l.72-9.33c.67-9.13-4.12-19.26,1.13-27.3-.17,0-.29.13-.42.17-4.79,6.1-8,12.83-8,21,0,10.13,5.85,17.24,6.56,26.74C14.47,84.14,22.79,77.07,27.12,68.33Z" transform="translate(-1.93 -17.19)"/><path d="M16,130.6c5.42,4.29,11.9,7.62,16.86,11.4-1-2.48-2.56-4.75-3.19-7.32-2.91-11.73-1.31-25.35-6.31-36.2.92,6.18-1.52,11.65-2.06,17.53a26.22,26.22,0,0,0,2.27,13.58c.55,1.22,1.55,2.28,1.85,3.54a24.65,24.65,0,0,1-4.33-5.72C15.22,118,3,111.81,2.15,100.29h0a35.94,35.94,0,0,0,1.72,15.09C6.18,121.61,10.72,126.44,16,130.6Z" transform="translate(-1.93 -17.19)"/><path d="M89.74,161.68c-9.46,0-18,4.58-26.24,8-7.53,3.11-17.5,2.52-24.18-2.1A27.73,27.73,0,0,0,51.6,176c8.45,3.36,18.33.8,25.56-3.83,5.18-3.32,9.63-8,15.81-8,10,0,20.44,10.22,29.4,19.47a32.24,32.24,0,0,0,4-3.62C117,171.1,103.74,161.68,89.74,161.68Z" transform="translate(-1.93 -17.19)"/><path d="M72.83,162.69c1.47-.38,3.24-.25,4.59-.76-5.64-1.13-11.06-2.86-15.44-6.85-6.26-5.72-11.81-11.82-18.5-16.28,5.26,7.07,6.73,17.33,16.32,20.9,1.68.63,3.65.76,5.13,1.69-1.85.29-3.45-.3-5.18-.68-12.36-2.65-27.41.76-36.66-9.75,3.49,6.89,10.72,12.32,17.7,14.59C51.51,169.16,62.74,165.17,72.83,162.69Z" transform="translate(-1.93 -17.19)"/><path d="M52.14,157.52c-8-6.48-9.25-16.19-12.82-24.69-2.23-5.3-5.85-10.05-9.72-14.67,4.25,8.49,2.4,19.42,7.91,27.41a39.34,39.34,0,0,0,6.35,6.9l-.08.13a27.48,27.48,0,0,1-5.68-3.87c-9.63-8-24.14-9-29.9-22.12h0c1.56,9.59,9.17,18.08,17.41,23.46C33.43,155.2,43.48,154.66,52.14,157.52Z" transform="translate(-1.93 -17.19)"/><path d="M164,39.44c3.28,4.33,7.74,7,11.61,10.6-2.06-4.34-2.48-9.26-5.09-13.42-4.5-7.15-12-9.92-18.92-12.61C156.68,28.46,160.09,34.22,164,39.44Z" transform="translate(-1.93 -17.19)"/><path d="M179,53.69c.76,2.57,1.89,5,2.52,7.7l-.17.12a22.35,22.35,0,0,0-5.67-8.32c-4.84-4.58-12.11-7.32-14.51-14,.12,9.29,8,16.35,15.26,21.78a26.26,26.26,0,0,1,7.7,9.17,31.65,31.65,0,0,1-.17-7.2c.76-8.11,1.22-17.19-4.33-23.38h0c-2.65-2.94-5.64-5.25-9.17-6.13C177.24,38.18,176.87,46.63,179,53.69Z" transform="translate(-1.93 -17.19)"/><path d="M186.2,73.37l.72,9.34c-.09.08-.09.33-.34.25a26.44,26.44,0,0,1-.59-3.24c-1.26-7.52-7.9-12.78-13.5-18.12a11.87,11.87,0,0,1-2.94-4.33,35,35,0,0,0,3.19,11C177.08,77,185.4,84.1,186.92,94.06c.71-9.54,6.56-16.61,6.56-26.74,0-8.2-3.2-14.93-8-21-.13-.08-.26-.21-.42-.17C190.32,54.16,185.49,64.29,186.2,73.37Z" transform="translate(-1.93 -17.19)"/><path d="M187.71,99.49c-.92,3.53-1.26,7.31-2.69,10.59-.12.09-.25-.08-.33-.16,3.57-10-1.64-19.22-6.73-27.13a22.84,22.84,0,0,1-2.61-6.94c-.54,4.55.42,9.76,1.26,14.43,1.1,6,3.12,11.65,4.76,17.45,1.09,3.61.79,7.69.25,11.52l.5-.42c3.79-7,11.27-12.45,13.54-20.1,1.81-6.1,3.07-13.16,1.81-19.81h0a38.62,38.62,0,0,0-2.14-7.57C197.39,82.25,190.2,90.11,187.71,99.49Z" transform="translate(-1.93 -17.19)"/><path d="M136.33,169.71c-8.33-3.45-16.78-8-26.24-8-14,0-27.25,9.46-36.54,18.33a28.72,28.72,0,0,0,4,3.62c8.92-9.21,19.43-19.47,29.4-19.47,6.18,0,10.63,4.71,15.81,8,7.19,4.59,17.07,7.19,25.56,3.83a28.24,28.24,0,0,0,12.28-8.41C153.86,172.19,143.86,172.82,136.33,169.71Z" transform="translate(-1.93 -17.19)"/><path d="M197.76,100.2Z" transform="translate(-1.93 -17.19)"/><path d="M178.84,127.32a24.71,24.71,0,0,1-4.33,5.72c.3-1.22,1.3-2.31,1.85-3.53a26.33,26.33,0,0,0,2.27-13.58c-.59-5.89-3-11.36-2.06-17.54-5,10.85-3.4,24.48-6.31,36.21-.63,2.61-2.23,4.88-3.19,7.32,5-3.79,11.44-7.11,16.86-11.4,5.26-4.12,9.8-9,12.19-15.31a35.31,35.31,0,0,0,1.73-15.09C197,111.72,184.69,117.86,178.84,127.32Z" transform="translate(-1.93 -17.19)"/><path d="M161.69,148.73A27.48,27.48,0,0,1,156,152.6l-.09-.13a42.39,42.39,0,0,0,6.35-6.9c5.51-8,3.66-19,7.91-27.41-3.87,4.62-7.49,9.37-9.71,14.67-3.58,8.5-4.8,18.21-12.83,24.69,8.66-2.86,18.71-2.32,26.49-7.4,8.2-5.39,15.81-13.88,17.41-23.47C185.82,139.69,171.36,140.7,161.69,148.73Z" transform="translate(-1.93 -17.19)"/><path d="M191.58,126.61Z" transform="translate(-1.93 -17.19)"/><path d="M140.11,160.75a14.25,14.25,0,0,1-5.17.68c1.47-.93,3.41-1.05,5.13-1.68,9.59-3.62,11.06-13.88,16.32-20.9-6.69,4.45-12.24,10.55-18.51,16.27-4.37,4-9.79,5.68-15.43,6.85,1.35.51,3.11.38,4.59.76,10.13,2.52,21.32,6.48,32.08,2.9,6.94-2.31,14.17-7.73,17.7-14.59C167.53,161.51,152.43,158.15,140.11,160.75Z" transform="translate(-1.93 -17.19)"/><path d="M99.91,17.19A69.39,69.39,0,1,0,169.3,86.58,69.46,69.46,0,0,0,99.91,17.19Zm0,82.63a13.25,13.25,0,1,1,13.25-13.24A13.24,13.24,0,0,1,99.91,99.82Zm10-24.39a14.92,14.92,0,0,0-9.08-3.78V60.3a26.06,26.06,0,0,1,17.11,7.1ZM99.07,71.65A14.92,14.92,0,0,0,90,75.43l-8-8a26.06,26.06,0,0,1,17.11-7.1V71.65Zm-10.26,5A14.89,14.89,0,0,0,85,85.74H73.67a26.07,26.07,0,0,1,7.11-17.12ZM85,87.42a14.87,14.87,0,0,0,3.78,9.08l-8,8a26.07,26.07,0,0,1-7.11-17.11Zm5,10.3a14.93,14.93,0,0,0,9.08,3.79v11.35A26.07,26.07,0,0,1,82,105.75Zm10.76,3.74a14.89,14.89,0,0,0,9.09-3.78l8,8a26.07,26.07,0,0,1-17.12,7.11Zm10.31-5a14.92,14.92,0,0,0,3.78-9.08h11.35a26.06,26.06,0,0,1-7.1,17.11Zm3.78-10.76a15,15,0,0,0-3.78-9.09l8-8a26.07,26.07,0,0,1,7.1,17.12Zm4.25-19.52a27.9,27.9,0,0,0-18.34-7.61V46A40.47,40.47,0,0,1,128,57.31Zm-20-7.61a28,28,0,0,0-18.33,7.61l-8.92-8.91A40.51,40.51,0,0,1,99.07,46V58.61ZM79.56,67.4A27.9,27.9,0,0,0,72,85.74H59.33A40.44,40.44,0,0,1,70.65,58.49ZM72,87.42a28,28,0,0,0,7.61,18.33l-8.95,8.92A40.48,40.48,0,0,1,59.33,87.42Zm8.79,19.51a27.89,27.89,0,0,0,18.33,7.61v12.62a40.43,40.43,0,0,1-27.24-11.32Zm20,7.57a28,28,0,0,0,18.34-7.61L128,115.8a40.47,40.47,0,0,1-27.25,11.31Zm19.52-8.79a27.89,27.89,0,0,0,7.61-18.33h12.61a40.47,40.47,0,0,1-11.31,27.24Zm7.61-20a28,28,0,0,0-7.61-18.34l8.91-8.91a40.47,40.47,0,0,1,11.31,27.25Zm1.3-29.61a42.16,42.16,0,0,0-28.43-11.77V33.17A53.18,53.18,0,0,1,137,48.23ZM99.07,44.32A42.09,42.09,0,0,0,70.65,56.09l-7.87-7.86A53.18,53.18,0,0,1,99.07,33.17Zm-29.6,13A42.12,42.12,0,0,0,57.69,85.74H46.55A53.21,53.21,0,0,1,61.6,49.45ZM57.69,87.42a42.1,42.1,0,0,0,11.78,28.42l-7.87,7.87A53.21,53.21,0,0,1,46.55,87.42Zm13,29.6A42.1,42.1,0,0,0,99.07,128.8v11.14a53.21,53.21,0,0,1-36.29-15Zm30.1,11.82a42.12,42.12,0,0,0,28.43-11.78l7.86,7.87a53.21,53.21,0,0,1-36.29,15Zm29.65-13a42.09,42.09,0,0,0,11.77-28.42h11.15a53.18,53.18,0,0,1-15.06,36.29Zm11.77-30.1A42.11,42.11,0,0,0,130.4,57.31l7.86-7.86a53.18,53.18,0,0,1,15.06,36.29Zm-3.91-38.69a54.78,54.78,0,0,0-37.51-15.56V18.88a67.47,67.47,0,0,1,46.43,19.25ZM99.07,31.49A54.89,54.89,0,0,0,61.56,47.05l-8.87-8.92A67.45,67.45,0,0,1,99.11,18.88V31.49ZM60.39,48.23A54.73,54.73,0,0,0,44.83,85.74H32.21A67.48,67.48,0,0,1,51.47,39.31ZM44.87,87.42a54.89,54.89,0,0,0,15.56,37.51l-9,8.87A67.23,67.23,0,0,1,32.25,87.42ZM61.6,126.1a54.77,54.77,0,0,0,37.51,15.56v12.62A67.45,67.45,0,0,1,52.69,135Zm39.15,15.56a54.83,54.83,0,0,0,37.51-15.56l8.92,8.92a67.48,67.48,0,0,1-46.43,19.26V141.66Zm38.69-16.77A54.82,54.82,0,0,0,155,87.38h12.61a67.45,67.45,0,0,1-19.25,46.42ZM155,85.74a54.88,54.88,0,0,0-15.56-37.51l8.92-8.92a67.47,67.47,0,0,1,19.25,46.43Z" transform="translate(-1.93 -17.19)"/><polygon id="polygon59" points="101.98 53.32 101.56 53.36 101.56 53.87 101.98 53.83 101.98 53.32"/><rect id="rect61" x="100.93" y="52.65" width="0.55" height="0.42"/><polygon id="polygon63" points="99.92 52.52 100.42 52.6 100.46 52.19 99.96 52.1 99.92 52.52"/><polygon id="rect65" points="99.5 52.35 99.03 52.31 99.08 51.89 99.58 51.93 99.5 52.35"/><rect id="rect67" x="95.46" y="51.81" width="0.55" height="0.42"/><polygon id="polygon69" points="94.24 52.65 94.75 52.73 94.79 52.31 94.33 52.23 94.24 52.65"/><polygon id="rect71" points="94.33 53.32 93.74 53.15 93.86 52.73 94.41 52.9 94.33 53.32"/><polygon id="rect73" points="93.31 53.83 93.23 53.4 93.65 53.32 93.74 53.74 93.31 53.83"/><polygon id="polygon75" points="38.44 97.35 38.44 98.27 38.86 98.27 38.78 97.22 38.23 97.01 38.23 96.63 37.89 96.63 37.89 97.35 38.44 97.35"/><polygon id="polygon77" points="41.38 99.91 42.43 100.42 42.77 101.38 43.27 101.76 43.74 102.81 43.48 103.32 42.69 102.6 42.14 101.81 41.84 101.17 41.38 99.91"/><polygon id="polygon79" points="59.04 121.74 59.42 122.66 58.92 122.96 58.62 122.54 57.95 122.33 57.87 121.69 57.32 120.85 58.16 120.98 59.04 121.74"/><path id="path81" d="M97.77,75.1H97l-.12-1.56.42-.29v-.8H94.87l-.09-.8.34-.21-.55-.21-.42.55-.12.63-.72.12v.34h-.5v.92l-2,1.64-3.91-.12c-.3.63-1-.09-1-.09-.12-.42-1.13,0-1.13,0,0,.8-1.35-.33-1.35-.33L81,73.12c-1.39-1.26-3.49.34-3.57.72.08,1-1.6.21-1.6.21s-1.39-.42-1.6.12-1.13.42-1.13.42l-.13.3-.71.12-.13.42-.84.13,2.1-.08c.55-.09-.21,1.22-.55,1.13l-1,.09-.34.33h-.92l-.42.59-1.35-.08s-.76.63-.72.84-.12.84-.33.84-.63.63-.51.84-.42.92-.42.92l-.12.72-.42.13v1.93l-.84.59v.84l-1.27,1.35.13,1.13-1,1.14.12,1.13-.63.21-.12.51-.3,1.47.72.08c.33-.12.29.93,0,1.05s-1,.42-.63.72-1.14.21-1.14-.21-.84-.8-1.05-.63-.55-.63-.55-.63c-.75-.8-3.15.08-3.15.08l-.34,1.14c-.75.12-1.26,1.43-1.26,1.43-.63.21-1.13,1-.92,1.21s-.34.3-.34.3v1.56l-.34.5.09,1.68c.42,0,.34.8.34.8-.72.08-.55,1-.55,1l-1.47.5-.3.43-1.81-.09-.5.51-.5-.51H45.2l-.12-.34-.72-.12-.08-.8-1.05.08-.21.42-1.14.09c.09.71-1.13,1.76-1.26,1.47s-.92-1-.55-1.22a10.61,10.61,0,0,1,1.27-.29v-.51l-2.61-.08-.3.42-1,.08v1.14l-.5.12c-.34.21.08,1,.08,1,.51.51-.08,1.26-.08,1.26-.42.42.34,1.22.34,1.22.54.13-.34.55-.34.55a1.26,1.26,0,0,0,.55.93.71.71,0,0,0,.29,1.05l.08,1.22.51.29v.8l.29.5h1.14l-.09-1.76c-1-1.14.85-1.43.93-1s.84.63.84.63c.13,1.05,1.35,1.68,1.68.63s.63-.42.84.08a9.51,9.51,0,0,0,1.56,1.73h1l.13,1c1.17-.09,1.55.08,2,1.68a3.09,3.09,0,0,0,1.8,2.06l1-.08c0-.84,1,.12,1,.58S54.33,120,54.33,120l1.89.42L58,121.82l1.34-.13h.55c.34-1.22,2,.08,2.19.5s1.26,1.14,1.38.8.93-.12,1.06.93.63.84.63.84l4-.09,1.39-1.21,3.57-.09c1.81-.08.72-2.56.34-2.56-.63-.51.21-2.57.21-2.57l-5.09-4.75c-1.18,0-.12-1.72-.12-1.72.92-.59-.21-1.48-.21-1.48a3.36,3.36,0,0,0-.51-1.85,2.52,2.52,0,0,1-.92-2.48v-1.13c-1.06-1,.42-1.14.42-1.14a1.14,1.14,0,0,0-.34-1.47l-.08-.93-1.14-.12-.13-3.32L64,94.23c-.5-.13-.12-1-.12-1,.63-.34-.13-1.22-.13-1.22l-.08-1.55,1.47-.13.33-.55h.72l-.09-1.85a.77.77,0,0,1,1.18-.42l1,.09.55-1,.12-.85-.76-.08c-.84-.5-.42-2.35-.42-2.35,1.35-2,2.86-.85,2.86-.85l1-.08c1.47,1,.13,2.82.13,2.82-.3.42-.13,1.76-.13,1.76l.34,2.27L71,90c-.75.42-.75,1.43.09,1.64.54.09.33,1.43-.51.51-1.26,0,.72,1.13.13.84,1.26.63,1-.55,1-.55l1.69-1.34c.63-.51,1.76,1,1.76,1.26s2.78.08,2.78.08a3.35,3.35,0,0,1,1.05,1.77c.76-1,2.4-.09,1.18.5,1.13.72,1.13,1.35,1.13,1.35.93-.3.93.42.93.63a7,7,0,0,0,.29-1c-1-.8,1.39-1.05.72.33l-.42.64.71.54.09,1.64c1.55-.12,1.13-2.06,1.13-2.06l.72-.12c0-.64.5-.3.5-.3-.5-2.4,1.14-2.82,1.14-2.82.92-.21,1-2.14,1-2.14-.63-.3-.29-1.26.42-.42S88,89.18,88,89.18l-.54-.5-.76-.08-.09-.8H85.36l-.21,1-.46.21-.13-.3-.21.8H83.09L83,88.68l.76-.21.29-.42.21-1.14h.93l1.17-.33c.09-1.22.72-.93.72-.93l.42.34.63.5.08.42-.42.21-.08.59.21.8h.55a1.17,1.17,0,0,1,2.1-.42l.42-1c-1-.5,0-1.26.25-.92s.93-.93.93-.93.5.63,0-.21a.85.85,0,0,1,.33-1.26c-.12-.84.93-.72.93-.72l.08-1.13-1-.08c-.21,1-1,.12-.63-.09a3.92,3.92,0,0,0,.84-.63V80.4l.42-.13.09-.72h1l.93-.42.21-.33,1-.09,1.39-1.26-.13-.54c-.84,0,0-.64,0-.64l.09-1.17Z" transform="translate(-1.93 -17.19)"/><path id="path83" d="M69.59,89.14,68.33,89l.09.5h.33c.55,1,.09,3.41.09,3.41s-.84.08-1-.34-.5.93-.21,1.14,1.26,0,1.35.79.63-.5.63-.5l0-4.88Z" transform="translate(-1.93 -17.19)"/><polygon id="polygon85" points="66.4 77.71 66.4 79.39 67.5 80.91 67.92 79.9 68.08 79.27 67.58 79.06 67.67 78 68.08 77.92 68.13 77.42 67.08 78.13 66.4 77.71"/><polygon id="polygon87" points="68.21 82.46 68.21 81.75 67.71 81.83 67.67 82.38 68.21 82.46"/><polygon id="polygon89" points="67.58 85.87 67.58 85.36 66.99 85.45 66.99 85.95 67.58 85.87"/><path id="path91" d="M70.35,100.87a.29.29,0,1,0,0-.58.29.29,0,0,0,0,.58Z" transform="translate(-1.93 -17.19)"/><circle id="circle93" cx="68.88" cy="84.86" r="0.29"/><circle id="circle95" cx="68.93" cy="76.74" r="0.29"/><polygon id="polygon97" points="91.34 67.11 91.76 67.11 91.84 67.58 91.55 67.83 91.42 68.21 90.88 68.33 89.61 69.55 89.53 70.1 89.19 70.6 88.77 71.65 87.3 71.74 87.01 73 87.22 74.09 88.48 74.6 88.61 73.88 89.03 73.67 89.11 72.96 89.41 72.45 89.83 71.95 89.95 71.4 90.67 70.98 91.51 70.81 91.84 70.39 91.97 69.55 92.05 68.92 92.35 68.46 93.19 68.12 93.19 66.78 92.77 66.78 92.69 66.27 91.93 66.19 91.76 66.57 91.42 66.57 91.34 67.11"/><path id="path99" d="M96.55,88.3v-1l-.13-.92-1-.51-.76.72-.12,1v.63l-.72.12-.12,1.94-.55.21.08.71-.75.21-.76.21-.13.93-.54.33-.3.85-.33,2.06s.63,1.22,1,.63a1.41,1.41,0,0,1,.93-.63l.21-.51,1.89.09a.54.54,0,0,1,1-.13c0,.34.72.08.72.08l.5-.8h.76l.08-.84.34-.21V92.21a1.29,1.29,0,0,0,1-1.43l.29-.33L99,89.94c-.55-.21-.3-.71.08-.59s-.5-.63-.5-.63c-.43.34-.76-.42-.76-.42Z" transform="translate(-1.93 -17.19)"/><path id="path101" d="M97.68,96.88c-.08.84-1.13,1.13-1.13,1.13l-.76-.21-.42-.33-.08-1,.63-.09.12.43,1.64.08Z" transform="translate(-1.93 -17.19)"/><path id="path103" d="M101.47,92.34c.17.63.12-1,.42-.93s.08-1,.08-1l-1.26.93C101.3,91.41,101.38,92,101.47,92.34Z" transform="translate(-1.93 -17.19)"/><path id="path105" d="M105.17,88.64c.29.63.21,1.55,1.26,2.27.34.25-.21.71-.55.5a11.89,11.89,0,0,1-1.34-1.76v-.93c.21-.54.5-.33.63-.08Z" transform="translate(-1.93 -17.19)"/><polygon id="polygon107" points="103.24 93.02 103.45 93.23 103.66 93.61 104.12 92.81 103.74 92.68 103.24 93.02"/><line id="line109" x1="101.47" y1="91.88" x2="101.47" y2="92.76"/><polygon id="polygon111" points="111.61 90.87 112.15 90.49 111.94 90.16 111.36 90.49 111.61 90.87"/><path id="path113" d="M133.76,122.87l.63.29.09,1.22c.84.84,3.57.13,3.57-.08s-.12-2.61-.12-2.61l-.34-.34-.08-1.76c.29-.93-1.35-2.27-1.48-2s-1.05.08-1.05.34-.54,1.68-.29,2.18-.21.51-.3,1-.79,1.26-.63,1.73Z" transform="translate(-1.93 -17.19)"/><path id="path115" d="M132.21,120c-.13.54-.63.84-.93.63s.34.33.51.63a.4.4,0,0,0,.71,0c.13-.3.09-.93.21-1.22s-.42-.34-.5,0Z" transform="translate(-1.93 -17.19)"/><rect id="rect117" x="127.04" y="89.82" width="0.5" height="1.35"/><path id="path119" d="M136.2,93.35c-.29-.42,1.39-1.14,1.68-.3s0,.72-.29.63-1,.21-1.39-.33Z" transform="translate(-1.93 -17.19)"/><polygon id="polygon123" points="135.79 66.65 135.7 67.07 136.46 67.2 136.54 66.78 135.79 66.65"/><polygon id="polygon125" points="133.81 67.87 133.85 68 134.27 67.83 134.1 67.49 134.02 67.24 133.81 67.36 133.31 67.66 132.84 67.36 132.63 67.74 133.18 68.08 133.31 68.16 133.39 68.08 133.81 67.87"/><path id="path127" d="M138.39,67.78h-1s.33.13-.63-.8a1,1,0,0,0-1.6.21l-1.14.13v1.13l-.54.21.08.72.76-.09s0,.85.21.51,2,.08,1.81.92c0,.34,1.76,1.27,1.55,2.4a.84.84,0,0,1,.72,1l1.17.13.34-.72.34.09v-.42l-.76-.21-.13-2.27-.5-.34.13-.59-.55-.21.29-.92-.5-.93Z" transform="translate(-1.93 -17.19)"/><path id="path129" d="M141.46,75l-.55-.08-1.26.21-.71,1.34a2.38,2.38,0,0,1,.63.72c.29.5.42,3.41-.42,3.91s.08.21.08.21l-.13,1.56c.21.71.55.33.76,0s.42-.42.72-.8a3.33,3.33,0,0,0,.75-1.47c.09-.51.42-1.27.21-1.48s.21-1.22.21-1.22a1.3,1.3,0,0,0,0-1.13,1.43,1.43,0,0,1,.3-1.47l-.59-.3Z" transform="translate(-1.93 -17.19)"/><polygon id="rect133" points="140.37 60.72 140.41 60.17 140.83 60.22 140.79 60.8 140.37 60.72"/><polygon id="rect135" points="140.33 62.7 139.95 62.49 140.16 62.07 140.54 62.28 140.33 62.7"/><path id="path137" d="M141.67,74.26l-.3-.63a2.76,2.76,0,0,1,.13-.85c.13-.29-.29-.54-.5-.63s-.13-.63-.21-.92-.55-.51-.55-.51-.13-1-.13-1.26-.63-.5-.42-.71.34-.51.55-.63-.21-1.14.13-.93.33.59.5.84-.08,1.26.29,1.47-.08.93.51.93.21,1.35.21,1.35-.13,1,.21,1,.13,1.76.13,1.76l-.55-.33Z" transform="translate(-1.93 -17.19)"/><path id="path139" d="M137.13,62.78c.21.29.63.5.63.8s-.13.5.29.54.72-.08.84.3a3,3,0,0,1,.09,1.22c-.09.29.08.71.42.71s.42.08.42.3.42-.8.42-.8a3.42,3.42,0,0,1-.63-.93s-.34-1-.34-1.13-.5-.3-.71-.34-.55-.72-.55-.72l-.88.05Z" transform="translate(-1.93 -17.19)"/><path id="path141" d="M137.8,62.1a1.77,1.77,0,0,0-.71-.63,2.34,2.34,0,0,0-.76-.29.45.45,0,0,1-.42-.63c.12-.34-.21-.51-.21-.8s.21-.3.54-.09.3.3.55.64.42.71.72.63.5.63.75.42.21.5.21.5l-.67.25Z" transform="translate(-1.93 -17.19)"/><path id="path143" d="M129.64,70.14c.38.37-2.1.29-2.1,0s.21-1.27.84-1.06.72-1.26.72-1.26-.55.09-.09-.21,0-.71-.21-.92a3.23,3.23,0,0,1-.42-.59h1c.42-.3.54-1.64.54-1.64a1.09,1.09,0,0,0,1.27-.3,2.6,2.6,0,0,0,.42.8c.29.34-.72.51-.34.72s.51.84.34,1-.93.08-.93-.21-.29.34,0,.71-.33.84-.5.84-1.05.13-.3.59a2.43,2.43,0,0,0,1.6.21s.63-.08.84.3-.08.42-.42.42-2-.13-2-.13-.42.47-.21.68Z" transform="translate(-1.93 -17.19)"/><path id="path145" d="M125.14,70.77c.34-.09,1.18-.13,1.35.08s-.51.5-.51.5l-.84.13c-.25-.34-.33-.63,0-.71Z" transform="translate(-1.93 -17.19)"/><path id="path147" d="M134.18,64.84c.55-.3,1.77-.3,1.69-.72s.71-.54.71-.54l.21.84.63.42.09.8s.21-.13-.55.08-.29.55-.29.55l-1.69.08-.21-.71-.59-.8Z" transform="translate(-1.93 -17.19)"/><path id="path149" d="M131.45,61c.42,0-.13,1.64,1,1.47s.08.5.92.55.63-.63.93-1.14.12-.8-.34-.92-.5-.13-.63-.72a1.06,1.06,0,0,0-.71-.71l-.21-.84-.93.54-.92,1.22c0,1,.5.55.92.55Z" transform="translate(-1.93 -17.19)"/><polygon id="rect153" points="131.37 49.79 131.58 49.37 131.96 49.54 131.75 50 131.37 49.79"/><rect id="rect155" x="130.66" y="49.12" width="0.42" height="0.5"/><polygon id="rect157" points="130.99 39.65 131.08 40.28 130.66 40.33 130.57 39.7 130.99 39.65"/><rect id="rect159" x="129.82" y="46.26" width="0.42" height="0.34"/><polygon id="rect161" points="128.68 46.26 128.64 45.84 129.35 45.79 129.4 46.21 128.68 46.26"/><polygon id="rect163" points="122.92 53.11 122.54 52.94 122.75 52.44 123.13 52.6 122.92 53.11"/><polygon id="rect165" points="120.73 51.81 120.69 51.39 121.41 51.3 121.45 51.72 120.73 51.81"/><polygon id="polygon169" points="108.62 51.68 107.07 51.72 107.11 52.14 108.62 52.1 108.62 51.68"/><polygon id="rect171" points="106.06 52.27 105.89 51.64 106.31 51.55 106.44 52.19 106.06 52.27"/><polygon id="rect173" points="105.76 52.73 105.64 52.31 105.85 52.27 105.97 52.65 105.76 52.73"/><path id="path175" d="M111.18,68.71l-.08.5.76.08s.33.3.33.51.51.42.76.42,1-.59,1-.59.34-1,.08-.92-.84.5-.92.08-.93-.21-.93-.21l-1,.13Z" transform="translate(-1.93 -17.19)"/><path id="path177" d="M114.67,68c0,.21-.12.5.3.59s1.17-.3,1.26.12.08.72.63.93a3.53,3.53,0,0,0,1.34.29c.43,0,1.35-.12,1.35-.12a4.57,4.57,0,0,1,1.18.33c.75.8,1.26,1,1.47.63s-.08-1.13-.13-1.43-1-1.64-1.38-1.34-.42,0-1.06.21-2,.08-2-.21-1.06-.42-1.06-.72-.71-.63-.63-.21-.5.63-.63.51-.63.42-.63.42Z" transform="translate(-1.93 -17.19)"/><path id="path179" d="M130.74,58.87l.5-1.56c-.71-.13-.55-.93-.55-.93-.08-.63-1.05-1.34-1.38-1.13s-.21-1.47-.21-1.47.63-.42.92-.21-2.4-3.53-2.94-3.2-1.81-.33-1.77-1-2.52-2.77-2.52-2.77-.84-.55-1-.13-.42.72,0,.93.34-.34.84.12,1.39,1.14,1,1.56a2,2,0,0,1-.75.59l.5.59h.76l.12,1.21s.85.43,1.06.93.21.8,0,1-.64.8-.55,1.26a1,1,0,0,0,.63.72l.55.08.42.21v.93c.54-.13,1.47.63,1.38,1.13s.13.21.85.72.5.59,1,.92.89.09,1.1-.54Z" transform="translate(-1.93 -17.19)"/><path id="path181" d="M119.21,49.19c-.08-.29-.21-1.26.21-1.22a1.74,1.74,0,0,1,.64.21c.5.22.54-.33.54-.33h.76l1,.8-.13.63-.72.08c-.33-.54-1-.33-.92.13s-.34,1.43-.63,1.47-1.18.08-1.14-.34.42-1.43.42-1.43Z" transform="translate(-1.93 -17.19)"/><path id="path183" d="M118.67,47.3v-.54s-.09-.55-.42-.55-1-.42-.84-.72-1.18-.59-1.18-.59-1.18-1.13-.76-1,.21-.51.21-.51a6.28,6.28,0,0,1-1.05.09c-.21-.09-.13-.72-.13-.72s-.84-.21-.84,0,.3.21.42.63.09,1.14.72,1.26.76.3.84.59.84.34.84.34l.55.29,1.64,1.43Z" transform="translate(-1.93 -17.19)"/><polygon id="polygon185" points="109.17 22.88 108.96 22.29 108.41 22.16 108.41 22.79 109.17 22.88"/><path id="path187" d="M110.89,37.08c-.72-.54,1,.42,1,.42a.92.92,0,0,1,.92.63c0,.21.76.13.76.13l.08-.5-.55-.72-.5-.34s-.76-.08-.76-.29-.63.88-.92.67Z" transform="translate(-1.93 -17.19)"/><path id="path189" d="M123.76,37.5c-.21.63-.3,1.48-.64,1.48s-.21.92-.21.92a7.23,7.23,0,0,1,1.18.08c.3.09.3.8.3.8,1-.08,1.47,1.35,1.34,1.73s.42.33.42.33a7,7,0,0,1-.12,1.43c-.13.3.92.51,1.17.93a2.37,2.37,0,0,1-.33,1.93c-.21.09.54.3.5.63s.21,0,.3.59.21,1.77.21,1.77l1,.08c.13-.92,1.94-1,2.23-.84a4.25,4.25,0,0,1,2.1,2.69c0,.42-.75.51-.75.51l.12,2.06c1.18.33,2.19,2.06,2,2.35s.84.21.84.21c.13-1.26,1.35-.84,1.39-.42s.3,1.35.3,1.35l.33.63.51.5.75-.08.21.42.93.13a8.66,8.66,0,0,1,.84,1c.08.21,1.14.12,1.39.21s.71.29.75.63a4,4,0,0,0,.51.92s.84.21.92.51a8.41,8.41,0,0,0,.42.92l.72.59.08.63.76.09.21.84,1.26-.09.72-.5a3.44,3.44,0,0,0,1.6-1.43c.08-.29.21-1.35.92-1.14s.21-1.55.21-1.55-1-.72-.92-1-1-1.05-.93-1.35-.92-.84-.84-1.13-.51-1-.51-1l-1.05-1-.12-.63-.84-.09L144.23,53l.09-.59-.51-.08v-.8l-.5-.3-.76-.08L141,49.49l-.13-.8h-.76l.13-1.47a2.6,2.6,0,0,0,.21-1.85s-1,.5-1.47.29.21-.71.21-.71V44.4l-.42-.42s-1.18.13-1.26-.08-.3-1.14-.3-1.14l-.08-1.22-.51-.21-.08-.42-.76.08v-.84l-.42-.12-.42-.21-.08-.84-1.56-.09-.5-.71-.55-.84-1.77-.13-.42-.42-.71-.13-.51-.21-.21.34-1.34.08-.09.42c-.58.3-3.36,0-3.44.21Z" transform="translate(-1.93 -17.19)"/><path id="path191" d="M131.11,35.65c-.12-.54,1.39-1,1.77-.63a2.84,2.84,0,0,1,1.47,2.61c0,.76-1.26-.8-1.26-.8L132,36.49a1,1,0,0,1-.93-.84Z" transform="translate(-1.93 -17.19)"/><polygon id="rect193" points="108.66 19.34 108.29 19.18 108.58 18.5 108.96 18.71 108.66 19.34"/><path id="path195" d="M107,29.56l-.93-.93v-.8l-.29-.29-.3-1-.92-.3-.93.34-1,.63-1.06.13-.54.63,2.23.21.42.71,1.6.13,1,1c1,.42,1.17,0,.63-.5Z" transform="translate(-1.93 -17.19)"/><path id="path197" d="M106.85,26.07c-.17-.63-1,.8-.12,1.05a3.25,3.25,0,0,0,1.8,0l.21-.42,3.49.08a1.8,1.8,0,0,0,.42-.71s.85-.3,1.18-.13.09-1-.29-.84a3.36,3.36,0,0,1-1.05.08h-1.27c-.08-.5-1.17-.29-1.26,0s-.46.34-.46.34l-1.6.13c-.17.42-1,.71-1.05.42Z" transform="translate(-1.93 -17.19)"/><path id="path199" d="M99.91,38.05c1.1.34,1.47.08,1.56-.21s.12-.34.55-.42-.09-.93-.51-.84a.76.76,0,0,1-.92-.51c-.09-.33-.76-1.26-.85-.54s-.5.71-.42,1.22.34,1.22.59,1.3Z" transform="translate(-1.93 -17.19)"/><path id="path201" d="M91.88,38.85c0-.25,1.39-.29,1.6-.08s.08.58.71.58.34.42.3.63-.76.13-.84-.08-1.14-.29-1.14-.29a2.1,2.1,0,0,1-.63-.76Z" transform="translate(-1.93 -17.19)"/><polygon id="polygon205" points="113 7.32 113.16 7.49 113.29 7.36 114 6.77 113.71 6.43 113.16 6.9 112.83 6.52 112.53 6.85 113 7.32"/><polygon id="polygon207" points="109.88 5.68 109.97 5.59 110.77 5.09 110.51 4.75 109.88 5.17 109.42 4.88 109.21 5.26 109.76 5.59 109.88 5.68"/><polygon id="polygon209" points="107.36 20.14 107.82 20.86 108.16 20.61 107.7 19.85 107.61 19.76 107.53 19.76 106.81 19.68 106.77 20.1 107.36 20.14"/><path id="path211" d="M86.41,56.72l.09.8h1c.42,0-.34-.5-.34-.5s-.84.08-.8-.3Z" transform="translate(-1.93 -17.19)"/><polygon id="rect213" points="85.83 39.57 86.08 39.23 86.5 39.57 86.25 39.91 85.83 39.57"/><polygon id="rect215" points="73.09 26.28 73.38 25.99 73.8 26.41 73.51 26.7 73.09 26.28"/><polygon id="polygon219" points="92.81 117.99 93.11 118.29 93.44 117.95 93.65 117.74 93.4 117.57 92.69 117.24 92.52 117.62 92.94 117.83 92.81 117.99"/><polygon id="polygon221" points="87.3 112.86 87.81 113.2 88.06 112.86 87.77 112.65 87.97 112.49 87.72 112.15 87.3 112.53 87.09 112.7 87.3 112.86"/><path id="path223" d="M141.92,116.22a.71.71,0,0,0-.55-.5l-.12.42h0s.08,0,.12.08l.09.38s-.09.09-.09.13l.3.29a1.1,1.1,0,0,0,.25-.8Z" transform="translate(-1.93 -17.19)"/><polygon id="polygon225" points="140.62 97.68 139.95 97.64 139.99 97.01 140.66 97.09 140.62 97.68"/><path id="path227" d="M158.74,109.37c.3-.17.67-.55.63.25s-.38.55-.63.8-.42-.8,0-1Z" transform="translate(-1.93 -17.19)"/><path id="path231" d="M162.32,106.34v-.08a1.2,1.2,0,0,0-.13-.47l-.38.21c0,.09,0,.21.09.3a.5.5,0,0,0,.12.34.38.38,0,0,0,.3,0l-.09-.42s0,0,.09.08Z" transform="translate(-1.93 -17.19)"/><path id="path233" d="M161.39,106.68c.13.42.25.84.25.88l.38-.17a5.16,5.16,0,0,1-.25-.84l-.38.13Z" transform="translate(-1.93 -17.19)"/><path id="path235" d="M159.84,108.36l-.43,0c0,.33.05.75.38.8l.09-.42h0a1.7,1.7,0,0,1,0-.34Z" transform="translate(-1.93 -17.19)"/><path id="path237" d="M158,99.91c-.05-.13-.09-.26-.21-.3a1.52,1.52,0,0,0-1.1.26l.26.33a1.13,1.13,0,0,1,.67-.21v0l.38,0Z" transform="translate(-1.93 -17.19)"/><path id="path241" d="M138.64,77.24a2.08,2.08,0,0,1-.92.42l-.21.8-.34.3a1.54,1.54,0,0,1,0,.71c-.08.51-.72.8-.72.8l-.29.34a14.8,14.8,0,0,1-1.89,0,.56.56,0,0,1,.21-1.06c.42.09-.09-1.21-.09-1.21l.55-.09s.09-1.26.3-1.26-.09-.42-.34-.63-.63-.93-.93-.84a7.75,7.75,0,0,1-1.38,0l-.21.42-.76.12s.08.55-.09.72c-.42.5-2,1.56-1.34-.21l.21-.42v-.63l-1.26-.09s-.63-.21-.63-.5a2.8,2.8,0,0,0-.09-.63L127,72.66l-1.76-.21-.13-.34L124,72c-1.26-.64-2.4-.09-2.19,1s.55,1.48-.12,1.48a.8.8,0,0,1-.85-.55s-.54-.21-.54.08-.21.84,0,1.14-.3.71-.51.5-.75-.84-.63-1-1-1.55.13-1.76-.09-.84.33-1l.55-.3h.55l.33-.29-.92-.13-.55-.08-1-.09a3,3,0,0,0-1.26,1.56c-.55,1.05-1.89-.42-1.39-1s-1.55-.08-1.89.21-1.39.13-1.39.13c-.21.63-1.18-.09-.92-.51a1.4,1.4,0,0,0,.29-.71l-.34-.09-.42.8c-1,0-1.26.55-1,.93s-.29-.09-.42.42.09.5.51.71-.21.21.08.55,1.14,0,.63.5a1.8,1.8,0,0,1-1.47.3c-.08.63-1.39.5-1.56.29s-1.17-1.47-1.17-1.47l-1.35-.08c-.12-1,.63-.51.93-1.26a10.81,10.81,0,0,0,.42-2.06s-1.14-.09-1.18.29-.76.59-.76.59-.54.21-.33.5-.42.42-.42.42.12.47-.09.63c-.54.59-2,.09-2.18-.12l-.85-.34-.84-.55-1,.43-.3.29h-1l-.08.84,1.89.21.12,1.77L99,74.84h-.51l-.21-.42-.42-.08V75.9l.42.33.34.34.71.08.13.84,1.77.09.21.33,1,.09,2,2.06-.13.63-.34.21c.13.5-.92.21-.92.21v.42l.5.09.51.29.71-1.22c.76-.5,1.14.21,1.18.63s-.34.34-.34.34v1l.42.12a.83.83,0,0,1-.29,1.35l-.21.71c-.21.63-1,.51-1,.51l-.29.42-.84.21,1.64.21c.17-.59.59-.72.8-.42a1.63,1.63,0,0,1,.21.8l.42.08-.09.8.42.13v2.27l.51.54c.84-.33.84.21.42.51s-.13,1.55-.13,1.55l-.33.34v.59l-.42.29v.8a2,2,0,0,0-1.77,0c-.63-.42-2-.29-2,.09.42.54-.5.71-.5.71l-.51.55c.34.71-.33.8-.33.8V98l-.84.8.08,1.85c0,.51,1,.55,1.26.3s1.05.59,1.05.59H104l.13-1.27-.42-.21V98l.71-.8c.85-.29.55,1.85.55,2.06.09.8.42.72.76.55.71-.29.12.8-.42.72s-.21.71-.21.71l.33.13-.63.5-.54.63-.72-.21-.84-.08-.29-.51-.51-.08-.08,1-.34.42-.84.84c1.14,0-.13.8-.42.8.63.21-.08.84-1.68.34v.5l-.55.08.51.55.54.08-.21,1.22c0,.93-2.31.3-2.52.09l-.09,1.26-.42.08.09.84-.09,1.22.76-.12v.5l1.89.09,2.74-2.9,1.59-.34c.13-.72.85.13.85.13.71-.09.84.42.84.42l.92.12c.76.21.3.3.34.59s.42.29.42.29l.12-.92.43.08-.43-.5-.75-.34-.84-.33c-.55-.8.12-.63.71-.55h.93a8.08,8.08,0,0,1,1.05,1.77c0,.33.5.42.5.42l.63-.09.21.51h.63l.21.42h1.27l.08-.63-1.18-.21-.08-.72-.84-.21c-.3-1.22.21-1.55.54-1l.42.09-.12-1.06.5-.12-.12-1.47-.42-.13v-.5l1.76.08a2.57,2.57,0,0,1,.09-1.35h.5l.09.34,2.14.21,1.51-1.72c-.08-.13.17-.21,0-.38s-.5,0-.84-.21,0-1.43-.08-1.68,1.18-.72,1-.09a1.08,1.08,0,0,0,0,.93c.92-.84,1.68.08,1.59.29s.51.42.84.21.76.63.64,1-1.39.34-1.48-.08-.29-.29-.42-.08a1,1,0,0,1-1.13.12c-.09,0-.09-.08-.13-.12l-1.51,1.72h.08c.84.5.42,1.13.13,1.26a2.33,2.33,0,0,1-.76.13l-.12.29-1.81.13-.13.71a1,1,0,0,0-1,1.35,1.17,1.17,0,0,1,0,.92l.76.34,1-.29c.13-.72.76-.85,1.35-1.27s1.47.8,1.18,1.35a2,2,0,0,0-.3.8l.09.63-.72.29-.55.3-.08.33h-1.89l-.34.34-.92.08-.3.43-.63.08s-1.05.5-.63,1-1.76.51-2.23-.29c-.12.71-.92.08-.92.08l-.76-.21-.08-1c-.13-.72-1.48-.72-1.39-.21s-2.52.21-2.52.21l-.85.42-.75.46-.09.34-1.26.12-.54.3-.21-.42h-.55l-.55.8c-1.47.08-2.86.92-2.73,1.26s-.55.71-.55.71l-.63.21-.42.63-.84.3-.13,1.47-.42.3v.63l-.5.12v.34l-.72.08.42,1,.55.3c1,.12.55,1.34.55,1.34l.54.09.3.8.55,1.13c.21.84.84.63,1.13.59s.55.84.55.84l2.77.09s-.12.29.34.42a15.16,15.16,0,0,0,3.83.08c-.13-.63,1.76-.8,2.52-.21a2.25,2.25,0,0,0,1.81.21l1.05,1.26.71,1.56,1.18.33.84.21.3,1.22.63.09.21.8c.75.54-.21,1.76-.21,1.76v1.56l.54.29-.08.59.92.93,1.06.08,2.64,2.82,2.11.63.33,1.13.55-.08.42-.34,1.68-.08.84-.8.93-.12,7.78-6.61-.72-.42v-1.55c1.26-.93,1.35-2.57.13-2.69-.88-.13-.51-1.06.34-1.22l.5-.21v-.63l1.6-1.48v-1.13L127.5,121c-1.56-.55,0-4,1.05-3.91s-.08-5.26-.08-5.26l-.55-.29.12-1.73h-.75L126,111.47l-.34,1.14c-.13,1.47-4.46,1.22-4.67,1a12.62,12.62,0,0,0-1.68-.85s-1.14-.92-1.35-.63-1.17-.33-1.17-.12-.93-.51-.93-.51l-1.39-.5,1.06-.21-.21-.84,1.8.92c.21.3,1.14.21,1.14.21l.29.34a1.09,1.09,0,0,1,.93.34c.33.42,2.19.08,2.19.08l.5.42.76.29,2.18.09.09-1.35.42-.42-.09-.84.51-.42v-.71l.42-.13.08-1.56.34-.08v-3.41l-1-1c-.09.34-1.18.34-1.18.34s-.29.51-.5.51.29.63.12,1.05-.71.42-.71.42l-1,.29-.3.34h-1.13l-.13-.93,1.26-.33.72-.34.33-.71c.09-.72.93-.64.93-.64s1.6-1.34,1.68-2,.63-2.4,1.6-2.4h1.81c.71-.29.5-1.22.5-1.22l.93-.12.12.5s1.26.13,1.39-.08.42-.72.76-.51,1.47-.5,1.47-.5c.08-.51,1.81-.3,1.81-.3l.21-.63s-1.18-1.64-1.39-1.64-1.35-1-1.47-.63c-1.14-.29-1-1.85-1-1.85l-.42-1c0-.59-1.06-1.76-1.27-1.64a1,1,0,0,1,0-1.76c.3-.09,1-1.06,1-1.06l.34-1,1.18-.34.12-.93-.63-.08s.72-1.26,1.05-1.26a20.13,20.13,0,0,0,2.86-.13,3.77,3.77,0,0,0,.63-1.47c0-.21.55-.29.76-.34a2.61,2.61,0,0,0,.84-.92c.38-.72-.08-2.48-.38-2.19Z" transform="translate(-1.93 -17.19)"/><path id="path245" d="M99.91,102.81c.09-.09.21.34.42.25s.3.38.09.38-.21.25-.21.38a.73.73,0,0,1-.17.54c-.17.17-.3,0-.51,0a.9.9,0,0,0-.58-.12c-.26,0,0,.42,0,.42s-1.09-.05-.88-.21.42-.21.25-.34,0-.21,0-.42.51-.13.38-.25,0-.76.25-.42l.17-.38c-.17-.17,0-.21-.38-.34s0-.75,0-.75l0-.43c.09-.54,1.14-.58,1.22-.12a4.35,4.35,0,0,1,0,.8l.3.12s0,.34-.3.34,0,.17-.17.34l.17.25Z" transform="translate(-1.93 -17.19)"/><path id="path247" d="M96.46,103.36c.17-.34.51-1.69.93-1.27s.67,0,.67,0a.64.64,0,0,1,.09.63c-.09.43-.21.85-.47.93s-.46.21-.79.25-.43-.54-.43-.54Z" transform="translate(-1.93 -17.19)"/></g></svg>