<svg id="Layer_10" data-name="Layer 10" xmlns="http://www.w3.org/2000/svg" xmlns:xlink="http://www.w3.org/1999/xlink" viewBox="0 0 184.54 196.38"><defs><style>.cls-1{fill:none;}.cls-2{clip-path:url(#clip-path);}.cls-3{clip-path:url(#clip-path-2);}.cls-4{clip-path:url(#clip-path-4);}.cls-5{fill-rule:evenodd;}</style><clipPath id="clip-path" transform="translate(-12.12 -2.86)"><rect class="cls-1" x="-11.39" y="-29" width="230.67" height="326.24"/></clipPath><clipPath id="clip-path-2" transform="translate(-12.12 -2.86)"><rect class="cls-1" x="2.56" y="2.68" width="202.77" height="230.8"/></clipPath><clipPath id="clip-path-4" transform="translate(-12.12 -2.86)"><rect class="cls-1" x="-0.52" y="-22.75" width="209.6" height="263.49"/></clipPath></defs><g class="cls-2"><g id="g2165"><g class="cls-3"><g id="g2170"><g class="cls-3"><g id="g2175"><g class="cls-4"><g id="g2180"><g id="g2182"><path id="path2184" class="cls-5" d="M85.5,48.46c-.37-.3-.4-1.39-.45-2.4,0-1.22.3-2.68,1.06-2.77a35.64,35.64,0,0,0,3.55-1.94c1.39-.83,8.49-6,8.58-6,1.12-.09-4.1,4.89-4.12,4.89a28,28,0,0,0-3.8,3.61c-.47,0-3.37,3.65-3.61,4.21-.1.24-.75.73-1.21.36m-7.6,6.66a25.51,25.51,0,0,1,1.84-3.31,24,24,0,0,1,1.63-2.54c1-1,1.17-2.15,1.37-2a4.25,4.25,0,0,1,.93,3,6.67,6.67,0,0,1-2.57,3.69c-.34.24-3.25,3.68-4.06,4.37a.17.17,0,0,1-.24,0c-.17-.3.24-1.57,1.1-3.18M91.19,77.18a3.53,3.53,0,0,1-.35-1.56c0-.57.32-1.17.41-1.9a32.35,32.35,0,0,0,.69-4c0-1.86-1-3-1-3.55a3.3,3.3,0,0,1,1.54-2.57c3.54-1.91,5.92-4.06,8.86-5.73a60.38,60.38,0,0,1,8.41-4.34,42.59,42.59,0,0,1,6.43-1.58c2.34-.47,4.34-1,4.33-.59,0,.73-3.66,3.27-7.14,6.29-4.08,3.54-8.14,7.6-8.68,8.15-.13.12-2.31,2-4.77,4.09-2.89,2.5-6.22,5.28-7.12,6.17s-1.44,1.62-1.65,1.17M47.65,78a.87.87,0,0,1-.93-.18,2.21,2.21,0,0,1-.52-1.71,2.71,2.71,0,0,1,.72-1.9,11.86,11.86,0,0,1,3.34-2.3c1.16-.64,1.51-1.36,1.81-.54,0,.08-.21.19-.41.44a11.49,11.49,0,0,0-.94,1.47c-.53.9-1.3,1.82-1.83,2.73-.66,1.14-1.07,2-1.24,2m-4.9,6c.13-.22,1.11-4.56,1.72-5,.45-.33.62.43.68.57s.42.39.36,1a6.83,6.83,0,0,1-2.41,4.22c-.13.09-.58-.34-.35-.75m100.13.62a3.64,3.64,0,0,1,.49-2c.44-1.2,3.4-3,3.4-3.41A9,9,0,0,0,149.38,77a35.7,35.7,0,0,0,3.8-3.41c.4,0,2.61-3,2.61-1.81,0,0-3.21,3.9-3.21,4a33.68,33.68,0,0,0-3.4,3.83c-.39,0-4.2,4.85-4.41,5.2s-.21.84-.92,1c-.21,0-.5.11-.65,0a2.41,2.41,0,0,1-.32-1.1m-68.73,8c-.25-.08-.07-1.47.09-2.51a25.64,25.64,0,0,1,2-5.81,52.4,52.4,0,0,1,3.93-5.92c2-2.72,3.28-4.94,3.5-5.06s1.11,1.09,2.3,2.32c.61.62,1.5,1.1,1.92,1.81.72,1.2.6,2.72-.92,4.06-.93.82-2.57,1.43-3.83,2.66-1.64,1.58-3.32,3.7-4.87,5.27-2,2-3.73,3.32-4.16,3.18m-36.69.62c-1-.64,1-17.69,1.51-18.69.31-.69.3-11.51,1.33-10.79.72.5,1,3.76,2,6.62.53,1.5,1.29,2.9,1.62,4.2A5.61,5.61,0,0,1,44,76.5a38,38,0,0,1-1.91,6.29c0,2.18-2.9,11.49-4.6,10.44m92.3,9a17.66,17.66,0,0,1,2.6-4c0-.45,4.17-6.22,4.2-6.22a38,38,0,0,1,2.21-3.21c.07,0,.81.18.25,2-.07.24.1.87-.28,1.42a20.68,20.68,0,0,1-1.72,1.6,29.83,29.83,0,0,0-2.15,2.75c-2.08,2.75-4.19,5.68-5.11,5.68m-40.13.22a3.19,3.19,0,0,1,2.12-.87c.66.1.84,1.3.89,2a3.59,3.59,0,0,1-1.36,2.94,1.78,1.78,0,0,1-2.63.09,3.6,3.6,0,0,1-.45-2.07c0-1,.68-1.47,1.43-2.06m-31.24,4c-.21-.83.07-.88-.12-1.36a3.33,3.33,0,0,0-2.7-1.85,1.64,1.64,0,0,1-.9-.45c-1.37-2.2,1.5-2.14,2.61-2.61a8.57,8.57,0,0,1,3.11-.18,28.85,28.85,0,0,0,6.92-.95c.28-.11-1.36,2-1.52,1.94s-2.54,2.58-2.9,2.8a12.46,12.46,0,0,0-2.21,1.8,15.74,15.74,0,0,1-1.09,1.14c-.36.43-.51.85-.81.72s-.28-.53-.39-1m24,2.23a5.17,5.17,0,0,1-.08-1.07,3.83,3.83,0,0,1-.11-1c.09-.41.7-.48,1.09-.81s3.51-2.29,3.54-1.57a7,7,0,0,1-.18,2.22,10,10,0,0,1-1.73,1.22c-1.13.64-2.45,1.2-2.53,1m-1.11,2.33a1.38,1.38,0,0,1-.54.87,1.27,1.27,0,0,1-1.14.48,1,1,0,0,1-.84-.43,3,3,0,0,1-.11-3.27c.43-.52,1-1,1.48-.89,1.46.26,1.37,2.11,1.15,3.24m10.31,3.36c-.5,0-1.35-1.92.75-1.67.18,0,.4.65.25,1.16s-.47.52-1,.51m-2.08-1.23c.34.07.34.77.34,1,0,.8-.39.94-.68,1a1,1,0,0,1-1.07-.18,1.61,1.61,0,0,1-.22-1.23c.11-.4.31-.9,1.63-.63m-5.46,3.63c0,.74-.38.84-.72.87-.81.08-.9-.33-.87-1.15,0-.26-.09-.63.16-.84a.85.85,0,0,1,1.25.14,1.64,1.64,0,0,1,.18,1m-3.35,1.47c-.17-1,.34-1.24.56-1.16a1.11,1.11,0,0,1,.48.5c.1.94-1,1.24-1,.66m-3.62,2.2c0-.65-.2-.81-.2-1.61-.42,0-1.6-13.24-.4-13.24,0-1,.55-3.41,1.4-3.41,0-.64,4-1.72,4-2.2a13.35,13.35,0,0,0,3.2-2,16,16,0,0,0,3.81-2.41c1.11,0,2.34-1.8,3.41-1.8,0-.29,2.94-1.41,3.41-1.41,0-.09,1-.82,1-.4.58,0,.22.2.8.2,0,.81,1.15,10,1.41,10,0,3,1.6,5.17,1.6,8.23-.29,0-.46,1.6-1,1.6,0,1.15-5.21,2.24-5.21,2.61a47.4,47.4,0,0,0-6,2.41,31,31,0,0,0-4.8,2c-1.18,0-2.35,1.21-3.8,1.21,0,.41-2.14.2-2.61.2m-32.44,2c-.53-.13-.94-.91-1.1-1.63a15.76,15.76,0,0,1,.41-7,19,19,0,0,1,2.5-5.38,42.67,42.67,0,0,1,3.64-4.28c.6-.6,1-1.17,1.36-1.13s1,.64.39,1.61c-.21.33-.82.34-1.06.63a5,5,0,0,0-.74,2.17,2.93,2.93,0,0,0,.44,1.93A6.41,6.41,0,0,0,52,110.92c.48.28,1,.2.93.62,0,.25-.14.87-.5.61s-.62-.88-1-1.2a.45.45,0,0,0-.68,0c-.31.29.69.88.55,1.77A5.37,5.37,0,0,1,49.62,115c-.23.19-.51.21-.68.37a.82.82,0,0,0-.15,1c.2.22.76.37.83.7A3.05,3.05,0,0,1,49,119a13.08,13.08,0,0,1-2.23,2.09c-.87.83-1.41,1.6-2.08,1.43M80,131.31c-.15-.12-.66-1.95-1.28-3.47-.37-.92-1.13-1.58-.92-2.1s.77-.38,1.17-.07c.24.18.23.54.57.69.71.31,2-.13,3-.63.47-.23,1-.32,1.19-.62s.24-.48,0-.59c-.89-.35-4-.14-5.83-.13-.74,0-1.12-1.44-1.12-1.76s.92-.16,2.24,0a36.88,36.88,0,0,0,9.67.08,54.13,54.13,0,0,0,5-2.61c.45-.24,5.37-2.7,8.23-4.13,1-.51,1.78-.82,1.86-1.1s0-1.38.26-2.31c.54-2.2,1.33-3.25,3.51-2.48a1.55,1.55,0,0,1,1.09.83,1.63,1.63,0,0,1,.18,1.39c-.19.5-.68.88-.52,1.35.25.74,1.07,1.26,1.49,1.87s1,.62,1.09,1a2.25,2.25,0,0,1-1.75,2.51c-1.36.36-3.18-.25-3.19-.93,0-1.31-6.1,1.41-6.36,1.56-.46.27-4,1.84-4,2.2a.9.9,0,0,0-.57.25c-.06.06-.41.46.07.57a11,11,0,0,0,2.35.09,8.37,8.37,0,0,0,3.19-.46A3.43,3.43,0,0,0,102,121c.25-.37.59-.59.57-1.12,0-.76,1-1.08,1.94-1.08s1.23.58,1.86,1.48a2.31,2.31,0,0,1-.07,1.9c-.2.39-.6.44-.72.71-.42.87.25,1.5.75,2.16.3.4.57.93.46,1.18a1.64,1.64,0,0,1-.61.9,3,3,0,0,1-2.16.21,4.68,4.68,0,0,1-2.25-2.52c-.08-.17-.75,0-1.71-.06-2.68,0-8.29,0-10.84-.16a4.07,4.07,0,0,0-1.86.55c-.78.36-1.58.77-2.42,1.26a20.64,20.64,0,0,1-3.56,1.62c-.28.1-.15.74-.25,1.37-.13.92-.69,2.19-1.09,1.88m-46.54,4.85c0-2.39,2.36-29.29,2.59-29.29,0-3,1.53,4.81,1.61,4.81,0,2.06,3.59,11,5.21,11,0,3.7-5.81,4.21-5.81,6.42-2.58,0,1.79,5.42,1.79,3.2,1,0,5.81-3,5.81-2.2-.32,0-.47.6-.79.6,0,.46-4.42,1.41-4.42,2.21-1.4,0-3.6,3.21-6,3.21m99.9,7.22c0-.17-1.32-.81-1.82-1.3-.25-.25-.82-.67-1-.85-.74-.87-1.79-2.51-2.46-3.43-1.53-2.09-4-2.79-5-5.67a5.08,5.08,0,0,0-.75-1.19,25.17,25.17,0,0,1-2.12-3.85c-.62-1.47-1-3-1.15-3.43a41.11,41.11,0,0,1-1.22-5.37s.49-.22.48-.07c0,1.11,1,4,.81,4.09s3.15,7.66,4.41,9.45c.24.35.4.54.65.92a12,12,0,0,0,1.41,2.11c1.28,1.34,3,2.52,3.14,2.77a26.87,26.87,0,0,0,2.73,3.54,8.49,8.49,0,0,0,.67.55c.1.08,1.22.52,1.3,1,0,.16.31.75-.1.75m-13.81-.8c-.13-.19-.33-.63,0-.63,1.44,0,6.17,1.54,6.39,2,0,0-1,.4-1.9.91s-1.26,1-1.7,1.08c-.76.12-1.77-.65-2.3-1.57-.35-.61-.27-1.37-.52-1.74M88.71,146a6.34,6.34,0,0,1-2.42-2.58c-.63-1.24-1.41-2.3-1.94-3.31-.91-1.74-1.43-3.24-2-4.37s-1-1.68-1.32-2.25c-1-2.21-.11-1.51.94.15.75,1.17,1.17,3.09,2,4.59a18.45,18.45,0,0,0,1.8,3,8.56,8.56,0,0,0,1.65,1.67c.13.06.2-.57.91-.47s.91.31,1,.55c.16.45-.35,1.07-.35,1.64s.21,1.45-.28,1.35m1.41.4a15.5,15.5,0,0,1-.16-2.34,9.25,9.25,0,0,1,.36-1.47c.13-.55.36,1.07.37,1.16.08,1,0,1.71,0,2.79,0,.32-.27.62-.15,1,0,.09.15,2-.38.67a5.83,5.83,0,0,1,0-1.84m-32.37,3.09c2-.53,4.23-2.9,6.32-2.54.44.08,1.28.17,1.41.58.06.19.36.69,0,.92-.14.09-1.09,0-1.63.11-1.35.17-2.71.37-3.17.48a19,19,0,0,0-2.08.75,1.35,1.35,0,0,1-.73,0c-.26-.08-.3-.29-.13-.34m-9-7a20.27,20.27,0,0,1,.47-6c1.46-4.88,1.1-1.65,1,.37,0,.9-.19,1.74-.26,2.84a25.28,25.28,0,0,0,.7,7.45c.35,1.43,1,3,.81,3.17-.36.24-.58-.23-1.11-1.31a15.12,15.12,0,0,1-1.62-6.47m76,5.08c.65-.23,1.86-1.22,2.14-.48.78,2.09-2.09,4.29-2.43,3.9-.69-.77-1.5-1.39-1-2.24a3.35,3.35,0,0,1,1.29-1.18M91.91,149.4a5.64,5.64,0,0,1-.13-2.16c0-.92,0-1.87,0-2.76a15.78,15.78,0,0,1,.28-2.71c.07-.33.42-.31.52.2s0,1.33.1,2.15c.16,1.13.12,2.49.22,3.6a11.1,11.1,0,0,1-.09,1.95c-.11,1.17-.31,1.87-.75,1.06-.13-.23,0-.88-.2-1.33m27.84-1.61a28.65,28.65,0,0,1-2.41-3.61c0-.5-.35-.7-.55-1.07-.42-.77-.72-1.23-.67-1.57,0-.15,0-.38.28-.4,1-.07,1.75,1.35,2.61,2.86a8.87,8.87,0,0,1,.86,1.58c.31.76.47,1.68.88,2.49s2,2.55,1.8,3.37-.92.54-1.48-.44a32.59,32.59,0,0,1-1.32-3.21M87.51,153,81,151c-1.39-.44-3-.85-4.41-1.27s-3.37-.46-4.67-.94c-3.46-1.28-2.68-2.12-.81-2.23a24.77,24.77,0,0,1,5.85.74c1.93.46,3.6,1.29,4.59,1.52.49.12,1.1.59,2.13,1a19,19,0,0,1,4.22,1.88c.94.79.67,1.61-.34,1.35m32.44.6a1.91,1.91,0,0,1-1.51-.93c-.43-.69-.54-1.69-.94-2.49-1.16-2.31-4.24-5.56-4.85-8.46-.25-1.17-.56-1.3-.22-1.29a2.52,2.52,0,0,1,1.48.32,10.73,10.73,0,0,1,1.76,2.4c.86,1.44,1.83,3.35,2.73,5.11,1.46,2.84,2.65,5.35,1.55,5.34M68.73,153c0,.59-.15.7-.51.74s-.72.14-.78,0c-.21-.48-.52-1.35-.2-1.65s.42,0,.67,0c1,.07.79.27.82.9m2.75.13c0-.2,0-.58.09-.67s.48.11.87.27.67.09.85.35a.93.93,0,0,1-.22,1.31c-.26.16-.47-.11-.76-.18s-.59.11-.72-.11-.06-.72-.11-1m44.31,1c-.17-.32-.3-.89-.56-1.43-.85-1.8-1.94-4.6-3.07-7.1-.81-1.77-1.91-3.16-2.36-4.17-.3-.66-.32-1-.19-1.12s.92.21,1.57.8a9.14,9.14,0,0,1,1.36,2c.12.16,1.68,4.21,3.17,7.31,1,2.13,2.08,3.54,2,3.71-.38,1.36-1.49.86-1.95,0m-56.72,0a1.49,1.49,0,0,1-.08-1.31c.1-.37.59.31,1.23.86.84.73,1.27,1.27,1.86.45.27-.38.72-.46.81-.69,0,0,0-1.42.47-1.41.12,0,.39-.18.58.17a3.32,3.32,0,0,1,.12,1.21c0,.36.26.6,0,.87s-1,.19-2.17.45c-.29.07-.16.17-.45.21a3,3,0,0,1-2.37-.81m17-.59c.6.09.51-.05,1.18.35.35.2.28.66.17,1s.34.43-.92.43c-.65,0-.87-1.9-.43-1.82m36.46.64c-.34-.59-.47-1.31-.79-2-.84-1.88-1.81-4-2.49-5.59a28.42,28.42,0,0,0-2-3.86c-1.91-2.8-1.42-3.47-.62-2.8a12.77,12.77,0,0,1,1.5,2.1,49,49,0,0,1,2.86,5.37c.94,1.83,1.7,3.59,2.51,5.36a18.32,18.32,0,0,1,1.27,2.6c.49,1.8-1,1.21-1.84,0a6.39,6.39,0,0,1-.45-1.18m-31.26,2c-.07.66-.77,1-1.07.39a1.62,1.62,0,0,1-.09-1.12c0-.23.29-.18.59-.19s.52-.13.64.09,0,.5-.07.83m12.34-15c.51-.85,2.92-.64,3.73-.74,1.25-.15.92,1.88,1,2.49.15,1.58.53,3.89.72,5,.37,2.06.57,3.66.85,4.77.48,1.9,1.33,3,.72,4.91-.09.29-1.74-1.08-3.32-2.22-1.94-1.4-2.89-2-3.21-3.08-.23-.74,0-3.53-.15-6.21-.11-2.18-.65-4.33-.32-4.88m-9.71,16.12c-.11-.8,0-1,.08-1.08.45-.17.82,0,.94.29.06.16,0,.41,0,.59s.12.44.09.52-.31,0-.43.05c-.61,0-.62-.1-.65-.37m27.8,1.07c-.27.08-1.09-1.64-1.85-3.45-1.26-3-2.62-6.74-2.75-7-.48-.91-4.21-6.94-3.4-8,.19-.26,1.22,1.54,2.1,3.35,1.22,2.47,2.77,5.48,3.08,6.1,1,2.07,1.87,4.12,2.39,5.38.84,2,2,3.14.43,3.61M101,154c-.28-1.76-.37-4-.74-6.08-.32-1.84-.86-3.58-1-4.93a12.42,12.42,0,0,1-.11-2.26c0-.49.45-.75.69,0s-.34.46-.09,1.52c.48,2,1.54,5.53,1.57,5.64a23.15,23.15,0,0,1,.49,2.91c.1,1,0,2.14.2,3.25.25,1.57.91,3.27,1,4.2s-.31,1.12-.78.52-.85-2.43-1.23-4.77m-13.13,4.61a.59.59,0,0,1-.07-.76.79.79,0,0,1,1.2-.14,2.27,2.27,0,0,1-.13,1.29c-.07.26-.83-.24-1-.39m36.48-1.51c-.2-2.31.58-.68,1.23.41.2.34.82,1.17.71,1.44,0,.07.15.32-.08.24s-.29.09-.37.05c-.38-.16-.55-.52-.84-.87a2.08,2.08,0,0,1-.65-1.27m-65.71,2.52c-.12-.09-.31-.3-.57-.53-.77-.71-2.16-1.68-2-1.8s.76.31,1.37.52a2.05,2.05,0,0,0,1.21-.06c.3-.12.44-.72.72-.85a1,1,0,0,1,1.15.34,1.28,1.28,0,0,1,.37.83c0,.2-.29.16-.4.35-.21.34-.33.89-.45,1.08s-.19-.1-.39-.09c-.36,0-.91.34-1.06.21m33.83.76c-1.49-.16-.9.22-1.38-1.1-.39-1.1.85-.61,1.26-.52s.38.63.37.88c0,.75.17.78-.25.74m-55.46-9.14-.2-.15c.13-.05.36-.05.65-.11a15.47,15.47,0,0,1,1.69-.31c1-.06,4.06,1.2,4.94,1.75a28,28,0,0,1,3.44,2.83c1,.88,2.26,2.15,3.52,3.15A24.07,24.07,0,0,0,54,160.15c.48.3.38.47.33.51s-2.25-.88-5.62-2.88c-2.29-1.36-4.5-2.81-4.86-3C42.51,153.92,41,153.59,40,153a4.68,4.68,0,0,1-1.08-.89c-.24-.41-.18-.84-.45-.83-.69,0-1.19-.06-1.44,0m109.2,8.83c-.35-2.53.09-2.18.63-1.47a5.91,5.91,0,0,1,.93,1.24c.27.79-.4,1-.89.95a1.05,1.05,0,0,1-.67-.72m-24.4-2.27c.28-.28,1.19-.13,1.26.27a3.92,3.92,0,0,0,.86,1.66c.24.45.1.71-.17.87s-.49.14-.62.34c-.25.38-1.88-2.57-1.33-3.14m-46.76,3.62a1.85,1.85,0,0,1-1.13-.71,1.34,1.34,0,0,1-.06-1.28c.17-.25.09-.15.4-.2,1-.17,1.21.11,1.48.57a1.94,1.94,0,0,1,.41,1.57c-.11.38-.69.12-1.1,0m58.67,1c-.49-.29-.16-1.12-.15-1.77a55.34,55.34,0,0,1,.55-6.08c.09-.67.86-4.91,1.4-5.42a6.22,6.22,0,0,1,3.35-1.15c1.6-.25,3.16-.3,3.52.17s.13,1.12.27,1.84a28.08,28.08,0,0,1,.28,7.42,1.24,1.24,0,0,1-.7.76c-.66.3-1.69.39-2.45.7a21.82,21.82,0,0,0-3.34,1.69c-1.3.8-2.51,2-2.73,1.84m-14-3.41a7.88,7.88,0,0,1,1.6,2.25c.13.35.33.61,0,1-1,1.07-2.35-.79-2.59-1.74a2.66,2.66,0,0,1,.36-1.14.77.77,0,0,1,.64-.33m-23.23-1.42c-.62-.27-.09-.45.53-.28a5.5,5.5,0,0,1,1.27.68,6.13,6.13,0,0,1,2,1.38,5.84,5.84,0,0,1,1,1.84,3,3,0,0,1,.34,1.16c0,.33,0,1-.47,1.05-.71.15-1.92-.73-2.79-2.09-1-1.61-1.6-3.62-1.87-3.74m19.55,4.27c.29-.14.08-.78.28-1.06s0-.11.19-.2c.58-.22.78.08,1.12.49.16.19.21.63.4.95s.44.28.47.51c.22,1.61-.46,1.9-1,1.66-.3-.13-.43-.53-.68-.88-.49-.65-1-1.37-.76-1.47M73.9,164.63a1.66,1.66,0,0,1-.09-1.36c.26-.71,1.33-.71,2.34-.26,2.19,1,2.15,1.62,1.28,1.84a24.71,24.71,0,0,1-2.49-.1c-.54,0-1,0-1-.12m37.83.6c0-.2-2.59-1.22-2.59-1.6-.17,0-2.75-2-2.81-2a8.43,8.43,0,0,1-1.15-3.23c-.45-2.06-.77-5-1.38-7.7-1-4.35-2.25-8.63-2.08-10.12,0-.4,1.69,3.46,3.41,7.45,1.24,2.87,2.86,6,3.92,8.37a33.56,33.56,0,0,1,1.49,4,5.91,5.91,0,0,0,.57,2.31c.88,1.42,1.44,2.5.62,2.5m-9-2.79c.26-.67,1.09-.83,1.35.66.11.67.19,1.86-.08,2.14s-.57-.25-.78-.6a7.69,7.69,0,0,1-.49-2.2m12.37.79c0,.09.23.89.38,1.49.45,1.66-2-.14-2.11-.54a1.83,1.83,0,0,1,.22-1.62c.74-1,1.34.07,1.51.67M127.59,165c.11-.27.72-.59,1.3-.78a1,1,0,0,1,.67-.1c.19.06.5.27.42.52s-.47.2-.72.41a3.12,3.12,0,0,1-1,.55c-.27.08-.28,0-.41-.19s-.39-.15-.3-.41m-29.47.83s-1.77-.64-3.61-1.44a33.31,33.31,0,0,1-3.43-1.87c-.61-.37-1.19-.58-1-.68a7.14,7.14,0,0,1,2.37.56,46.5,46.5,0,0,1,4.32,2.1c1.36.7,2.42,1.16,2,1.34a1.56,1.56,0,0,1-.61,0m27.44-.39c.21-.14.44,0,.56,0,.51-.08.42.32.73.41.06,0,.2.17.16.22s-.39.11-.56.27-.38.49-.78.28a.69.69,0,0,1-.11-1.15m-15.91.76a2.62,2.62,0,0,1-1.63.65c-.46,0-.86.14-1-.27-.82-2.7.11-2.28,1-1.76.15.09,1.85,1.07,1.64,1.38M36.86,151.09l.21.14a7.51,7.51,0,0,0-2.24.67,3.51,3.51,0,0,0-1.46,1.25c.06.39.56.61.91.91a16.18,16.18,0,0,0,1.81,1.38c1.35.85,3,1.84,4.44,2.84,3.56,2.42,6.62,5,6.94,5.23,2.59,1.82,5.49,3.24,5.43,4.09,0,.35-7.66.39-8.46.38-2.3,0-4.15-.61-7.94-2.45a12.62,12.62,0,0,1-5.38-4.72,6.54,6.54,0,0,1,.45-6.88,5.85,5.85,0,0,1,1.11-1.52,3.44,3.44,0,0,1,1.3-.76c.49-.14,1.49-.16,1.88-.27Zm85.59,17.15c-.37-.48.12-1.27.26-1.5a3,3,0,0,1,1.17-.1c.32.09.31.33.32.5,0,.34-.44.93-.93,1.16a.77.77,0,0,1-.82-.06m-47.9-2.43a6.46,6.46,0,0,1,3.2.79c1.61,1.22,3.13,2.51.6,2.33a26.15,26.15,0,0,1-3.36-.74,7,7,0,0,1-2.26-.53c-.55-.43-.39-.85.08-1.26a1.92,1.92,0,0,1,1.74-.59m45.19,2.66c0-.34.35-.43,1-.43.37,0,.42.66.41,1.05,0,.21-.1.15-.3.29l-.19.13c-.7.42-.86-.06-.92-1m22.15.74a7,7,0,0,1,2.06-2.07,8.64,8.64,0,0,1,1.36-1.06c.63-.28,1.19-1.16,1.72-1.47a1.19,1.19,0,0,1,1.25-.07,12.14,12.14,0,0,1-1.43,2.1,11.11,11.11,0,0,1-1.5,1.3c-.5.45-2.83,1.8-3,2.11-.07.15-.48-.05-.57-.24s0-.5.09-.6m-39.36,1.64a36.93,36.93,0,0,1-4-1.35,38.66,38.66,0,0,1-3.79-1.86c-1.07-.49-3.48-1.38-4.37-2.85-.27-.43-.56-1.14-.23-1.36a22.16,22.16,0,0,1,3.59,1.36,33.65,33.65,0,0,1,4.41,2.45,22.08,22.08,0,0,0,4.68,2.23c.93.31,2.82.45,2.27.5,0,0,.08.7-.55.84a8,8,0,0,1-2,0m6.61.2a9.51,9.51,0,0,1-1.53-.6c-.56-.3-.7-.67.12-.8.13,0,1.17-.23,2.4-.54.84-.21,1.28-.59,1.86-.67a4.09,4.09,0,0,1,1.35.2c.79.2.42.42,0,.74s-1.38.66-1.59.87-.59.2-.79.31a2.9,2.9,0,0,1-1.8.49m8.4.2a.52.52,0,0,1-.43-.17,1.25,1.25,0,0,1,0-1.4c.24-.38.6-.18.76-.14a.45.45,0,0,1,.32.29,3.7,3.7,0,0,1,0,.88c0,.26.12.54-.28.54h-.38m-30.23.2c-.16,0-.8.06-1.66-1.11a15.83,15.83,0,0,1-1.92-4.68,30,30,0,0,0-1.79-4.79c-.56-1.11-1.07-1.2-1.12-1.64-.1-.71.61-.27,1-.16,2,.67,4,6.53,4.62,8.45s1.31,4,.91,3.93m27.82-.6c.25.28.4.23.44.36.09.32-.52.79-.81,1-1,.74-.78.74-2.1.55-.89-.14-1.51-.48-1.47-.74s1.09-.33,1.91-.62c1.09-.38,1.75-.89,2-.56m-27.35-4.27c-.58-1.4-1.63-4.23-1.21-5.46.12-.35,2.24,2.12,3.15,6.12a19.94,19.94,0,0,0,.79,2.49c.62,1.53,1.37,3.11.9,3.25-.64.18-.72-.55-1.09-1.17a39.38,39.38,0,0,1-2.54-5.23m-33.41,4.66c.18-.13.12-.45.3-.52a5.49,5.49,0,0,1,1.37-.07c.69,0,.58.75,0,1.36a6.65,6.65,0,0,1-2,1c-1,.37-1-.49-.54-1.14.21-.3.64-.44.87-.6m46,2a20.15,20.15,0,0,1-2.35-.83,41.24,41.24,0,0,1-3.89-2c-.38-.22-1.94-.94-2-1.22-.08-.5-.28-1,0-1.16s1,.28,1.82.56a12.44,12.44,0,0,0,1.4.36c1,.35,2.14,1,3.26,1.47a10.41,10.41,0,0,1,3.34,1.7c.23.25-.29.56-.58,1.08-.16.29-.67.11-1,0m-4.06,5.05c-.38-.12,6.61-4.4,6.86-4.65a17,17,0,0,1,2.19-1.81c.78-.5,2,1.35,1.8,1.64-.07.11-1-.64-1.78-.69-.36,0-1,.43-1.77,1-1,.7-2.6,1.56-3.83,2.45s-2.5,2.17-3.17,2.32c-.12,0-.21-.21-.3-.24m20.08-3.45c-.48-.24-1.11-.84-1-1.06.35-.52,2.52-.22,4.49-1.37.57-.34,1.21-1.33,2-1.71,1-.51,2.25-.52,3.32-1.2,1.6-1,3.22-2.07,4.74-2.83a14.44,14.44,0,0,1,3.62-1.57c.41-.1.75.1,1.2.15a3.13,3.13,0,0,0,1.51-.24,27.13,27.13,0,0,0,3.68-2.27c1.13-.73,2.19-1.83,2.53-1.47s.79,1,.42,1.5-1.59.83-2.21,1.34c-1.55,1.25-2.46,1.87-4.16,3.06a1.4,1.4,0,0,1-1.42.09c-.08,0-.16-.23.06-.38.42-.28,1.38-.63,1.6-1s-.55-.48-.87-.34c-1.19.48-3.95,2.36-6.12,2.65a23.71,23.71,0,0,0-4.12,1.57,51.57,51.57,0,0,0-5.29,3.2c-1.3.76-2.56,1.24-3.22,1.62-.32.18-.41.42-.78.23m-23.23-3.21a10,10,0,0,1,4,1.5c.95.53,1.75.9,1.59,1.22a2.3,2.3,0,0,1-2.53,1.12,7,7,0,0,1-1.71-.94c-.57-.29-1.16-.38-1.45-.74s0-.55,0-.86c0-.47-.29-1.3.08-1.3m61.2,4.64c-.6-.82-1.17-1.9-1.34-2.17-.33-.54-.48-1.18-.82-1.27s-.46.45-.68.92-.55.84-.64.8c-1.82-.9-1.19-4.81-.66-5.12.16-.09.08-.73,0-1.3s0-.94-.25-.91a9.27,9.27,0,0,0-1.79,1.16c-1.42,1.12-3.1,2.74-3.44,2.87-.75.29-.85-.3-1-.43-.33-.32.66-1,1.22-1.41s.8-.92,1.38-1.39a27.44,27.44,0,0,1,2.31-1.85,6.77,6.77,0,0,1,6.09-.55c.58.24,2.33,1,2.06,2.07a2,2,0,0,1-.85,1c-.83.38-1.92.45-1.4,1.06.24.28,1,.22,1.79.37,1.56.3,3.56.73,4.41,1.52a3,3,0,0,1-.06,4.62c-.84.63-2.27.38-3.44.46-.65,0-1.42.62-2,.6s-.63-.54-1-1M53.48,177.47a3.29,3.29,0,0,1,.83-2.64c.7-.86,1.85-1.58,2.57-1.37.38.12.28.38.26.65a2.17,2.17,0,0,1-.78,1.51c-.35.32-1,.56-1.36.84s-.55.76-.91.94a1.28,1.28,0,0,1-.61.07m33.49-2a43.58,43.58,0,0,0-4.31-1.67,52.68,52.68,0,0,0-7.09-2.24,57,57,0,0,0-7.15-.87.29.29,0,0,1-.26-.27c.27-.49,1.09-.64,2-.82a12.82,12.82,0,0,1,3.58-.33,13.62,13.62,0,0,1,2.79.55c1.14.14,5.63,2.41,5.63,1.08a6.48,6.48,0,0,0-.77-2.4c0-.12-1.21-2.2-2.29-4.53-1.29-2.81-2.51-5.94-2.17-6,.82-.1,1.24,1.15,2,2.85.52,1.12,1.4,2.41,2,3.74a28.34,28.34,0,0,0,1.19,3c.56,1,.37,2.13.66,2.87A3.48,3.48,0,0,0,83.93,172a13.14,13.14,0,0,1,3.92,1c3,1.19,6.49,2.82,7,3.51.25.3-.21.77-.81,1.06a8.91,8.91,0,0,0-1.38.79c-.23.12-1.46-.83-5.73-2.84m1.74,5c-.28.08-.88-.33-1.3-.49-1.73-.65-4.23-2.09-5.51-2.52a64.08,64.08,0,0,0-7.77-2.34c-4.57-1-9.72-1.09-9.67-1.37.33-1.78.65-2.16,2.54-2.1a59,59,0,0,1,8.23,1.25,49.18,49.18,0,0,1,11.64,3.92c.55.29,3.14,1,3.84,1.93.48.65-1.28,1.51-2,1.72m-32.84-3.21a2.66,2.66,0,0,1,1.33-.58c.35,0,.95,1.22.87,1.56a4.47,4.47,0,0,1-2.28,2.38c-.5.29-.95.6-1.25.46-.87-.41-.53-1.62,0-2.42.31-.45.93-.94,1.31-1.4m28.64,5.42c-.34-.06-1.94-.81-4-1.62a46.47,46.47,0,0,0-11.38-2.94c-1.13-.14-2.51.2-3.22.13-1.25-.13-1.51-.55-1.59-.79-.82-2.33.36-2.1,4.09-1.71a26.35,26.35,0,0,1,5.67.86c1.59.53,3.48.75,5.39,1.35,3.58,1.11,7.08,2.52,7.81,2.74,1.22.37-.22.73-.77,1.19-.71.6-1.13.95-2,.79m23.67-1.32a6.11,6.11,0,0,0-1.68-.88,6.54,6.54,0,0,0-3.35,1.12c-.3.26-1,.8-1,.35,0-.07.24-.28.27-.38a11.75,11.75,0,0,1,1-.68,3.54,3.54,0,0,1,2.6-1,15,15,0,0,1,3,1c.16.08,1,.68,1.67,1.15,1.26.82.8,1,.23.83-.24-.08-.6-.39-1-.62-.63-.33-1.37-.61-1.75-.82m8.56,1.72c-.26,0-.26-.52-.16-.68s.55-.25.91-.34A7.66,7.66,0,0,0,120,180.6c.38-.29.6-.75,1-.76,1.09-.05,1.88.41,1.78.8,0,.16,0,.37-.47.44a5.08,5.08,0,0,0-2,1.06,6.68,6.68,0,0,1-2.45.85,3.52,3.52,0,0,1-1.14.1m-37.57.69a46.49,46.49,0,0,0-6.4-2,28.23,28.23,0,0,0-3.47-.68c-2-.21-4.15-.16-4.17-.22-.45-1.58-.16-1.47,2.16-1.42,0,0,3,.18,5.58.57a27.27,27.27,0,0,1,3.63.83,28.25,28.25,0,0,1,5.33,2c.45.23,1.06.32,1.29.57a.85.85,0,0,1-.61,1.4c-.66.1-1.6-.41-3.34-1.06M55.33,183a2.56,2.56,0,0,1,1.51-2.1,1.41,1.41,0,0,1,1.44-.17c.18.11.15.37.23.54a4.93,4.93,0,0,1,.42,1.28c.1.53-.23.68-.51,1.05s-.12.8-.74.88c-.29,0-.76.61-1.18.49-.26-.07-.48-.73-.68-.95a1.19,1.19,0,0,1-.49-1m29.38,2.89c0-.38-.4-.6,0-.6,0-.61,1.4-.72,1.4-1.21.35,0,1.4-.49,1.4-.8.34,0,1.4-.49,1.4-.8h.41c0-.36,1.79-1.18,1.79-2,.38,0,.8.06.8.4-.86,0-.83,1.21-1.39,1.21,0,.85-1.2.95-1.2,1.4-.82,0-1.23.8-2.21.8,0,.36-1,.3-1,.8-.73,0-.67.81-1.4.81m28.83-1.9a.81.81,0,0,1,1.07,0c.17.23-1,1.16-1.2,1.27s-.64.18-1,.33a11.92,11.92,0,0,1-1.38.61c-1.2.12.07-.39.75-.93a11.81,11.81,0,0,0,1.77-1.3m-44.22-1.24a24,24,0,0,1,3.62.25,8.65,8.65,0,0,1,2.76.85c.55.37.52,1.3.84,1.64.79.82.79,1,.18.88-.26-.07-.48-.27-1-.42a30.36,30.36,0,0,0-3.23-1.17c-1.44-.29-3.3-.37-4.51-.64s-1.43-.47-1.5-1c-.22-1.49.67-.49,2.87-.4m-9.49,4c0,.34,0,.92-.45,1A2.1,2.1,0,0,1,58,187.4c-1.35-.81.17-2.91,1.16-2.89.52,0,.63.77.63,2.25m-18,1.14c0-.43.2-1.4.6-1.4,0-.71,1-.94,1-1.41.58,0,.71-.6,1.39-.6,0-.25.8-.38.8-.8.54,0,.67-.4,1.21-.4,0-.42,1-.13,1-.6a.49.49,0,0,0,.4-.4h2.4c0,.65.6,1,.6,1.6.5,0,.44,1,.8,1,0,.58-.8-.12-.8-.6-.37,0-.37-.6-1-.6,0-.41-.79-.19-.79-.6-.57,0-2.41,0-2.41.6-.59,0-.67.4-1.41.4,0,.42-1,.5-1,1-.41,0-.69,1-1.39,1,0,.68-.81.78-.81,1.2-.46,0-.24.6-.6.6m124.14.2a15.75,15.75,0,0,1-1.92-.66,37.88,37.88,0,0,1-3.79-2.24c-1.93-1.12-4-2.16-5.55-3.11s-3.41-1.84-5.06-2.87a82.65,82.65,0,0,0-7.33-4.34,18.79,18.79,0,0,1-3-1.6c-1.08-.76-1.48-1.33-2.53-1.23s-2.22,1.25-4.11,2.6a27.09,27.09,0,0,1-5.22,2.57c-.67.29-1.21,1.24-2,1.19a1.67,1.67,0,0,1-1-.32c-.2-.14,2.14-1.22,4.73-2.57,1.67-.86,3.39-1.92,4.78-2.67a14,14,0,0,0,2.25-1.54c.91-.58,4.1,1.54,8.16,4.3,2.53,1.72,6.14,3.45,8.72,5.12,2.95,1.91,7,4.07,10.18,5.79,1.67.91,3.48,1.67,2.58,1.58m-90.72-1c1,.24,1.8.33,1.7.68-.41,1.54-2.31.63-3.49.34-1.51-.38-3.22-.54-4.14-.85-2.35-.8-1.83-1.87-.48-1.82,2,.06,5.9,1.53,6.41,1.65m76.27.71c-1.17-.6-2.41-1.35-2.75-1.58s-1.36-.88-2.11-1.37a7.61,7.61,0,0,0-.89-.58,5,5,0,0,1-.89-.26c-.3-.19-.34-.53.29-.58a8.21,8.21,0,0,1,2,.87,42.28,42.28,0,0,1,5.34,3,8,8,0,0,0,1.22.74c.28.12.5.21.46.35a.73.73,0,0,1-.69.4c-.42,0-.93-.4-2-.95m-33.63-71.57c.21-.71.63-.24,1.54-1.5,1.82-2.48,4.62-6.92,4.68-6.94s3.6-4.59,7.06-9.63c1-1.5,1.9-3.32,2.88-4.73,1.46-2.09,3-3.72,3.89-5a8.34,8.34,0,0,0,1-1.72c1.06-3.14.55-2.73-.36-3.76a8.1,8.1,0,0,1-1.43-2.92c-.56-2.68-.79-5,.94-6,.28-.15.47-.51.85-.57s1.67-.25,1.8-2.81c0-.13.48-5.38,1.13-10.83.68-5.68,1.92-11.43,2.27-11.93s.54-.34.64.92a25.17,25.17,0,0,1,0,3,4.9,4.9,0,0,1-.31,1.35,18.13,18.13,0,0,0,0,4.1,8.88,8.88,0,0,1-.31,2.77c-.37.75-.4,2.93-.68,5.26-.38,3-.94,6.42-.34,7.71.37.78,1.26.64,1.65,1.09s.29,2.4.29,3.86c0,.45,0,1.35.29,1.4s.52-.48,1-1a21.07,21.07,0,0,1,2.41-1.92,36,36,0,0,0,6.37-6.42,44.48,44.48,0,0,1,3.36-3.38c1.34-1.32,3.38-2.35,4.73-3.71a9.36,9.36,0,0,0,1.54-1.66c.38-.65.4-1.34.86-1.83s1.15-.46,1.54-1c3.19-4.59,6.75-7.7,7-8.43a4.72,4.72,0,0,1,1.5-1c.5-.26,1.47-.27.91.23A27.81,27.81,0,0,0,174,52.89c-.68,1.06-2,1.79-2.89,3.16S169.81,59,169,60.42c-1.28,2.25-2.92,4.6-4.18,7-4.64,8.64-10.38,24.12-11.46,34.77a52.29,52.29,0,0,0-.53,8.55,63.23,63.23,0,0,0,2.63,14.7,39.21,39.21,0,0,0,2.06,5.77,39.5,39.5,0,0,0,6.67,8.76c.33.24,3.45,4,7,7.12a46.63,46.63,0,0,0,7.81,5.34c.54.33,4.37,3.23,3.48,3.48-1.5.42-9.42-6.16-15.85-6.92-.14,0-.48,0-1-.08-2.17-.16-7.37-1.09-11.79-1.35-1.92-.11-3.75-.37-5.07-.28-1.14.07-2.59.24-2.85,1-.4,1.21.41,3.78.46,4.32.13,1.56-.3,3.24,0,4,.14.33,1.44.8,2.07,1.51a6.48,6.48,0,0,1,.92,1.94c.71.43,1.16.06,1.73.3,1.87.8,1.33,2.32,2,2.77,1.67,1.07,3,.84,4,1.54a5.1,5.1,0,0,1,1.44,2,10.89,10.89,0,0,0,.63,1.45c.22.3.34.62.7.82.91.5,2.29.68,3,1.25,1,.78,1.7,3,1.69,4.7,0,2.13-1.39,3.53-2.27,4.63a4,4,0,0,0-.68,1.37,2.37,2.37,0,0,0,.51,2.34c1.44,1.43,4.69,2.19,8,3.81,3.62,1.77,7.49,4,10.52,5.27a22,22,0,0,0,8.1,1.84,3.63,3.63,0,0,0,3.12-1.27c3.28-5.13-5.89-7.41-5.82-4.16,0,1.83,1.68,1.57,2.63.91a1.22,1.22,0,0,0,.37-.71c0-.57.25-1.28.42-.7s.65,2.23-.09,3.07a4.28,4.28,0,0,1-2.24,1.33,2.85,2.85,0,0,1-2.73-.71,5.65,5.65,0,0,1-1-2.19,7.06,7.06,0,0,1-.32-2.15c.26-1.7,2.24-3,4.67-3.11a9,9,0,0,1,6.87,3.07,8,8,0,0,1,1.28,1.82,7.73,7.73,0,0,1,.71,3.9c-.45,2.73-1,4.49-2.9,5.52-.63.34-1.41.18-2.25.52l-169.31-.09a9.79,9.79,0,0,1-1.71-.25c-.42,0-1.22-.81-1.49-1.85a6.38,6.38,0,0,1,.16-2.64A3.46,3.46,0,0,1,20.19,192c.55-.37,1.31-.16,2.24-.15a2,2,0,0,1,.91.81c.11.24.29.44-.1.8-.23.21-.79.26-.88.43-.63,1.15,3.24,1.27,4.56.16,1.66-1.4,2.45-1.77,3-2.79.32-.63.37-1.3.59-1.78.34-.73.83-1.09,1.31-.89.3.13.37.68,1,1.36,2.13,2.16,6.21,5.41,9,2.71.71-.71,1.46-1.5,1.38-2.28s-1.13-1.24-2.36-.7c-.43.18-.62.73-1.24,1.2s-1.62.92-1.61.7a14.79,14.79,0,0,1,1.2-2.43,14.23,14.23,0,0,1,3.27-4.86,14,14,0,0,1,5-2.87c1.1-.31,2.32-.14,3.54-.54l.15-.06a37.63,37.63,0,0,0-.34-3.76,15.46,15.46,0,0,1,.69-5.58c.65-1.65,2-2.68.41-2.71-1.15,0-4.28.49-7.28.39a23.81,23.81,0,0,1-7.89-2,23.88,23.88,0,0,1-10.75-7.52,23,23,0,0,1-2.13-3.84c-.63-1.23-1.72-3.49-1.2-8.5,0-.35-.79,0-.94-.2-.48-.73.2-1.31,1.1-2.14,2.16-2,6.57-4.26,6.51-5.45-.07-1.68-.43-1.24-2.51-3-4.46-3.82-13.22-11.06-14.11-12.46-.44-.68-.66-1.42-.36-1.49C14.1,122.2,25.68,133,27,133.31c.28.06,5,5.25,5,2.4,0,0,.72-8,1.53-15.81.67-6.53,1.17-13,1.47-14.48.06-.25,1.66-17.32,2.32-23.35.59-5.34,1.3-10.58,1.7-16a45.27,45.27,0,0,0,.3-5.5,6.46,6.46,0,0,0-1.11-3.46c-1-1.27-4.6,6-4.6,8-.7,0-2.4,8.83-2.41,8.83a35.83,35.83,0,0,1-1.33,7.27c-.77,2.86-2.65,6.24-3.08,5.87,0,0-.69-1.17.08-1.71.39-.27.68-2.33,1-4.44.4-2.62.18-6.09.67-9,.88-5.21,1.52-10.06,1.6-10.31.38-1.17,5.45-11.51,5.45-11.54,0-4.34-.32-5.53,0-5.61.62-.18,2.3,5.26,4.13,11.08,2.1,6.69,4.31,13.95,4.34,14.79a18.75,18.75,0,0,0,.7,2.23c.13.13.5.57.69.58s.55.38.83.31c.83-.21,1.55-1.16,2.43-1.77a26,26,0,0,0,3.35-2.36c.75-1.07,4-2.08,4-3.81.06,0,2.13-3.61,2.91-3.65a.4.4,0,0,1,.29.64,7.55,7.55,0,0,1-.71.87c-1.14,1.17-2.25,4-2.34,6.92s1.64,8.73,3,11.54c2.9,6,12.86,17.06,13.05,13,0-.14.26-.43.2-.7A13.49,13.49,0,0,0,70,89.78c-1-.76-2.84-4.65-3.4-9s.34-8.89-.35-8.58-1,.86-1.38,1.17-1,.51-1.11.41c-.28-.23.13-1.38,1-2.45a40,40,0,0,1,3.38-3.48,14,14,0,0,0,3-3.21C73.33,60.86,75.76,56.62,78,53a58.19,58.19,0,0,0,4.12-7.18c.28-.71.54-.64.62-1.35.35-3.06-1-6.89-1.74-10-.94-4.14-1-8.72-1.85-12.27-.08-.36-1.27,1.25-2.81,2.85-1.16,1.21-3.61,3.15-4.33,5a18.6,18.6,0,0,0-.8,6.21,17.25,17.25,0,0,1-.47,3c-.23,1.56-1.9,3.75-3.86,5.52S61.41,49.33,59.07,53,55.49,61.09,54.32,61c-.49,0-.83-1.33-.75-3.1,0-1,.39-2.12.5-3.25,0-.31,2.48-5.86,1.75-6.09-1.08-.34-2.31.79-3.7,1.44-1.58.72-3.25,1-3.47.69s2-3.16,5.37-5.72c1.72-1.32,3.7-2.41,5.3-3.75,1.93-1.62,3.34-3.47,3.56-4.83.12-.75.47-7.42,1-7.42,0-1.37,1.39-2.43,1.39-3,.14,0,.75-.59.82-.59A6,6,0,0,0,69,23.13c1.11-1.37.95-2.52,2-4.31.75-1.21,2.31-1.26,2.78-2.67a19.31,19.31,0,0,1,1.23-3.41A20.05,20.05,0,0,0,76.85,10a5.23,5.23,0,0,0-.16-4,5.62,5.62,0,0,1-1.25-2.6c-.14-.67.07-.49,3.08-.36a4.72,4.72,0,0,0-.81,2.24c0,1.5,1,3.37,1,4.33A53.14,53.14,0,0,0,80,18.1C81.36,24.91,83.24,32,83.5,38A11.24,11.24,0,0,0,84,41.29c.19.48.27.93.7,1.15.22.1.75.2,1,0s3.85-2.49,7-4.54a40.77,40.77,0,0,0,4.06-2.68c.12-.49,3.62-2.41,6.84-4.84A28.65,28.65,0,0,0,108.07,26c1.4-1.71,6.47-7.88,7.26-6.41.46.84-1.21,2.05-2.83,3.67a35.06,35.06,0,0,0-4.6,5.55,16.36,16.36,0,0,0-.78,2,18.26,18.26,0,0,0-1,7.92c.78,6.92,5.83,9.55,11.88,9.92,2.28.14,5.49.64,5.69.2.44-1,14.56-13.33,14.45-11.72a8.64,8.64,0,0,1-.82,1.7A7.54,7.54,0,0,1,136,40.78a16.61,16.61,0,0,1-2.87,2.06c-.84.34-2.32,3.59-4.24,7.64-3.42,7.22-7.28,15-9.83,22.83a83.4,83.4,0,0,0-3.31,16.46c-.21,1.78.14,3.35,0,5.06a68.65,68.65,0,0,0,1.78,22.8c.33,1.38.53.92.64,1.07.28.39-.44-1.92-.29-2.43" transform="translate(-12.12 -2.86)"/></g></g></g></g></g></g></g></g></g></svg>