<svg id="Layer_6" data-name="Layer 6" xmlns="http://www.w3.org/2000/svg" viewBox="0 0 166.34 200.1"><path d="M29,192.86c0-67.05,33-121.4,73.79-121.4s73.79,54.35,73.79,121.4" transform="translate(-21.52 0.1)"/><rect x="1.15" y="176.29" width="160.27" height="23.8"/><rect x="70.97" y="66.8" width="19.04" height="128.54"/><rect x="130.55" y="88.04" width="39.53" height="20.63" transform="translate(92.05 -77.39) rotate(45)"/><rect x="38.65" y="87.66" width="39.53" height="20.63" transform="translate(-73.69 70.1) rotate(-45)"/><path d="M147.22,80.67a21.43,21.43,0,0,0,16.68-14c4.76-12.69-6.35-49.19,4.76-57.12S182.94.06,182.94.06,175,14.34,176.59,27s12.7,22.22,11.11,39.67S167.54,101,167.54,101" transform="translate(-21.52 0.1)"/><path d="M62.15,80.52a21.42,21.42,0,0,1-16.67-14c-4.76-12.69,6.34-49.19-4.76-57.12S26.43-.1,26.43-.1s7.94,14.29,6.35,27S20.09,49.1,21.67,66.55s20.16,34.28,20.16,34.28" transform="translate(-21.52 0.1)"/></svg>